<svg xmlns="http://www.w3.org/2000/svg" xmlns:xlink="http://www.w3.org/1999/xlink" width="1311" height="821" fill="#000" fill-opacity="0" stroke="#000" stroke-dasharray="none" stroke-dashoffset="0" stroke-linecap="square" stroke-linejoin="miter" stroke-miterlimit="10" stroke-opacity="0" stroke-width="1" color-interpolation="auto" color-rendering="auto" font-family="'Dialog'" font-size="12" font-style="normal" font-weight="normal" image-rendering="auto" shape-rendering="auto" text-rendering="auto"><g><defs id="defs1"><clipPath id="clipPath1" clipPathUnits="userSpaceOnUse"><path d="M-7 -7 L71 -7 L71 826 L-7 826 L-7 -7 Z"/></clipPath><clipPath id="clipPath2" clipPathUnits="userSpaceOnUse"><path d="M-7 -7 L103 -7 L103 826 L-7 826 L-7 -7 Z"/></clipPath><clipPath id="clipPath3" clipPathUnits="userSpaceOnUse"><path d="M-7 -7 L160 -7 L160 826 L-7 826 L-7 -7 Z"/></clipPath><clipPath id="clipPath4" clipPathUnits="userSpaceOnUse"><path d="M-7 -7 L19 -7 L19 712 L-7 712 L-7 -7 Z"/></clipPath><clipPath id="clipPath5" clipPathUnits="userSpaceOnUse"><path d="M-7 -7 L113 -7 L113 826 L-7 826 L-7 -7 Z"/></clipPath><clipPath id="clipPath6" clipPathUnits="userSpaceOnUse"><path d="M-7 -7 L19 -7 L19 59 L-7 59 L-7 -7 Z"/></clipPath><clipPath id="clipPath7" clipPathUnits="userSpaceOnUse"><path d="M-7 -7 L19 -7 L19 725 L-7 725 L-7 -7 Z"/></clipPath><clipPath id="clipPath8" clipPathUnits="userSpaceOnUse"><path d="M-7 -7 L197 -7 L197 76 L-7 76 L-7 -7 Z"/></clipPath><clipPath id="clipPath9" clipPathUnits="userSpaceOnUse"><path d="M0 0 L0 65 L171 65 L171 0 Z"/></clipPath><clipPath id="clipPath10" clipPathUnits="userSpaceOnUse"><path d="M-7 -7 L19 -7 L19 52 L-7 52 L-7 -7 Z"/></clipPath><clipPath id="clipPath11" clipPathUnits="userSpaceOnUse"><path d="M-7 -7 L19 -7 L19 75 L-7 75 L-7 -7 Z"/></clipPath><clipPath id="clipPath12" clipPathUnits="userSpaceOnUse"><path d="M-7 -7 L81 -7 L81 826 L-7 826 L-7 -7 Z"/></clipPath><clipPath id="clipPath13" clipPathUnits="userSpaceOnUse"><path d="M-7 -7 L19 -7 L19 255 L-7 255 L-7 -7 Z"/></clipPath><clipPath id="clipPath14" clipPathUnits="userSpaceOnUse"><path d="M-7 -7 L81 -7 L81 808 L-7 808 L-7 -7 Z"/></clipPath><clipPath id="clipPath15" clipPathUnits="userSpaceOnUse"><path d="M-7 -7 L19 -7 L19 228 L-7 228 L-7 -7 Z"/></clipPath><clipPath id="clipPath16" clipPathUnits="userSpaceOnUse"><path d="M-97 -14 L194 -14 L194 28 L-97 28 L-97 -14 Z"/></clipPath><clipPath id="clipPath17" clipPathUnits="userSpaceOnUse"><path d="M-92 -14 L184 -14 L184 28 L-92 28 L-92 -14 Z"/></clipPath><clipPath id="clipPath18" clipPathUnits="userSpaceOnUse"><path d="M-149 -14 L298 -14 L298 28 L-149 28 L-149 -14 Z"/></clipPath><clipPath id="clipPath19" clipPathUnits="userSpaceOnUse"><path d="M-102 -14 L204 -14 L204 28 L-102 28 L-102 -14 Z"/></clipPath><clipPath id="clipPath20" clipPathUnits="userSpaceOnUse"><path d="M-70 -14 L140 -14 L140 28 L-70 28 L-70 -14 Z"/></clipPath><clipPath id="clipPath21" clipPathUnits="userSpaceOnUse"><path d="M0 0 L209 0 L209 62 L0 62 L0 0 Z"/></clipPath><clipPath id="clipPath22" clipPathUnits="userSpaceOnUse"><path d="M163 10 L163 25 L40 25 L40 10 ZM0 0 L0 62 L209 62 L209 47 L192 47 L192 33 L209 33 L209 0 Z"/></clipPath><clipPath id="clipPath23" clipPathUnits="userSpaceOnUse"><path d="M0 0 L252 0 L252 62 L0 62 L0 0 Z"/></clipPath><clipPath id="clipPath24" clipPathUnits="userSpaceOnUse"><path d="M206 11 L206 25 L37 25 L37 11 ZM8 0 L8 3 L0 3 L0 62 L81 62 L81 55 L197 55 L197 62 L252 62 L252 0 Z"/></clipPath><clipPath id="clipPath25" clipPathUnits="userSpaceOnUse"><path d="M0 0 L254 0 L254 62 L0 62 L0 0 Z"/></clipPath><clipPath id="clipPath26" clipPathUnits="userSpaceOnUse"><path d="M182 10 L182 25 L66 25 L66 10 ZM189 44 L189 59 L60 59 L60 44 ZM0 0 L0 62 L254 62 L254 0 Z"/></clipPath><clipPath id="clipPath27" clipPathUnits="userSpaceOnUse"><path d="M189 8 L189 23 L60 23 L60 8 ZM0 0 L0 62 L70 62 L70 49 L195 49 L195 62 L254 62 L254 0 Z"/></clipPath><clipPath id="clipPath28" clipPathUnits="userSpaceOnUse"><path d="M0 0 L84 0 L84 74 L0 74 L0 0 Z"/></clipPath><clipPath id="clipPath29" clipPathUnits="userSpaceOnUse"><path d="M0 0 L0 74 L84 74 L84 71 L69 71 L69 56 L84 56 L84 41 L65 41 L65 27 L84 27 L84 1 L55 1 L55 0 Z"/></clipPath><clipPath id="clipPath30" clipPathUnits="userSpaceOnUse"><path d="M176 10 L176 25 L74 25 L74 10 ZM191 38 L191 54 L58 54 L58 38 ZM0 0 L0 62 L254 62 L254 0 Z"/></clipPath><clipPath id="clipPath31" clipPathUnits="userSpaceOnUse"><path d="M191 10 L191 26 L58 26 L58 10 ZM0 0 L0 62 L254 62 L254 0 Z"/></clipPath><clipPath id="clipPath32" clipPathUnits="userSpaceOnUse"><path d="M0 0 L0 74 L45 74 L45 66 L84 66 L84 42 L61 42 L61 28 L84 28 L84 0 Z"/></clipPath><clipPath id="clipPath33" clipPathUnits="userSpaceOnUse"><path d="M200 10 L200 25 L50 25 L50 10 ZM0 0 L0 62 L44 62 L44 51 L207 51 L207 62 L254 62 L254 0 Z"/></clipPath><clipPath id="clipPath34" clipPathUnits="userSpaceOnUse"><path d="M207 10 L207 25 L44 25 L44 10 ZM0 0 L0 62 L254 62 L254 0 Z"/></clipPath><clipPath id="clipPath35" clipPathUnits="userSpaceOnUse"><path d="M0 0 L0 74 L84 74 L84 70 L58 70 L58 56 L84 56 L84 45 L63 45 L63 25 L84 25 L84 0 Z"/></clipPath><clipPath id="clipPath36" clipPathUnits="userSpaceOnUse"><path d="M0 0 L252 0 L252 92 L0 92 L0 0 Z"/></clipPath><clipPath id="clipPath37" clipPathUnits="userSpaceOnUse"><path d="M206 11 L206 25 L37 25 L37 11 ZM197 55 L197 70 L81 70 L81 55 ZM8 0 L8 3 L0 3 L0 92 L252 92 L252 0 Z"/></clipPath><clipPath id="clipPath38" clipPathUnits="userSpaceOnUse"><path d="M0 0 L392 0 L392 69 L0 69 L0 0 Z"/></clipPath><clipPath id="clipPath39" clipPathUnits="userSpaceOnUse"><path d="M0 0 L0 69 L392 69 L392 57 L302 57 L302 42 L392 42 L392 12 L258 12 L258 0 Z"/></clipPath><clipPath id="clipPath40" clipPathUnits="userSpaceOnUse"><path d="M0 0 L434 0 L434 54 L0 54 L0 0 Z"/></clipPath><clipPath id="clipPath41" clipPathUnits="userSpaceOnUse"><path d="M205 7 L205 21 L58 21 L58 7 ZM0 0 L0 54 L236 54 L236 45 L371 45 L371 54 L434 54 L434 0 Z"/></clipPath><clipPath id="clipPath42" clipPathUnits="userSpaceOnUse"><path d="M215 10 L215 25 L33 25 L33 10 ZM0 0 L0 62 L252 62 L252 58 L245 58 L245 43 L252 43 L252 0 Z"/></clipPath><clipPath id="clipPath43" clipPathUnits="userSpaceOnUse"><path d="M0 0 L640 0 L640 62 L0 62 L0 0 Z"/></clipPath><clipPath id="clipPath44" clipPathUnits="userSpaceOnUse"><path d="M390 9 L390 24 L245 24 L245 9 ZM0 0 L0 62 L640 62 L640 0 Z"/></clipPath><clipPath id="clipPath45" clipPathUnits="userSpaceOnUse"><path d="M405 9 L405 24 L230 24 L230 9 ZM0 0 L0 62 L74 62 L74 54 L190 54 L190 62 L628 62 L628 58 L640 58 L640 0 Z"/></clipPath><clipPath id="clipPath46" clipPathUnits="userSpaceOnUse"><path d="M0 0 L92 0 L92 82 L0 82 L0 0 Z"/></clipPath><clipPath id="clipPath47" clipPathUnits="userSpaceOnUse"><path d="M0 0 L0 82 L92 82 L92 47 L74 47 L74 33 L92 33 L92 0 Z"/></clipPath><clipPath id="clipPath48" clipPathUnits="userSpaceOnUse"><path d="M0 0 L610 0 L610 54 L0 54 L0 0 Z"/></clipPath><clipPath id="clipPath49" clipPathUnits="userSpaceOnUse"><path d="M371 6 L371 20 L236 20 L236 6 ZM0 0 L0 54 L610 54 L610 0 Z"/></clipPath><clipPath id="clipPath50" clipPathUnits="userSpaceOnUse"><path d="M0 0 L87 0 L87 182 L0 182 L0 0 Z"/></clipPath><clipPath id="clipPath51" clipPathUnits="userSpaceOnUse"><path d="M0 0 L0 182 L87 182 L87 100 L65 100 L65 86 L87 86 L87 0 Z"/></clipPath><clipPath id="clipPath52" clipPathUnits="userSpaceOnUse"><path d="M0 0 L222 0 L222 54 L0 54 L0 0 Z"/></clipPath><clipPath id="clipPath53" clipPathUnits="userSpaceOnUse"><path d="M175 6 L175 20 L38 20 L38 6 ZM0 0 L0 54 L222 54 L222 0 Z"/></clipPath><clipPath id="clipPath54" clipPathUnits="userSpaceOnUse"><path d="M-137 -14 L274 -14 L274 28 L-137 28 L-137 -14 Z"/></clipPath><clipPath id="clipPath55" clipPathUnits="userSpaceOnUse"><path d="M-135 -14 L270 -14 L270 28 L-135 28 L-135 -14 Z"/></clipPath><clipPath id="clipPath56" clipPathUnits="userSpaceOnUse"><path d="M-116 -14 L232 -14 L232 28 L-116 28 L-116 -14 Z"/></clipPath><clipPath id="clipPath57" clipPathUnits="userSpaceOnUse"><path d="M-175 -15 L350 -15 L350 30 L-175 30 L-175 -15 Z"/></clipPath><clipPath id="clipPath58" clipPathUnits="userSpaceOnUse"><path d="M-145 -15 L290 -15 L290 30 L-145 30 L-145 -15 Z"/></clipPath><clipPath id="clipPath59" clipPathUnits="userSpaceOnUse"><path d="M-182 -15 L364 -15 L364 30 L-182 30 L-182 -15 Z"/></clipPath><clipPath id="clipPath60" clipPathUnits="userSpaceOnUse"><path d="M-147 -14 L294 -14 L294 28 L-147 28 L-147 -14 Z"/></clipPath><clipPath id="clipPath61" clipPathUnits="userSpaceOnUse"><path d="M-116 -15 L232 -15 L232 30 L-116 30 L-116 -15 Z"/></clipPath><clipPath id="clipPath62" clipPathUnits="userSpaceOnUse"><path d="M-150 -20 L300 -20 L300 40 L-150 40 L-150 -20 Z"/></clipPath><clipPath id="clipPath63" clipPathUnits="userSpaceOnUse"><path d="M-163 -15 L326 -15 L326 30 L-163 30 L-163 -15 Z"/></clipPath><clipPath id="clipPath64" clipPathUnits="userSpaceOnUse"><path d="M-150 -15 L300 -15 L300 30 L-150 30 L-150 -15 Z"/></clipPath><clipPath id="clipPath65" clipPathUnits="userSpaceOnUse"><path d="M-154 -14 L308 -14 L308 28 L-154 28 L-154 -14 Z"/></clipPath><clipPath id="clipPath66" clipPathUnits="userSpaceOnUse"><path d="M-133 -16 L266 -16 L266 32 L-133 32 L-133 -16 Z"/></clipPath><clipPath id="clipPath67" clipPathUnits="userSpaceOnUse"><path d="M-102 -15 L204 -15 L204 30 L-102 30 L-102 -15 Z"/></clipPath><clipPath id="clipPath68" clipPathUnits="userSpaceOnUse"><path d="M-125 -14 L250 -14 L250 28 L-125 28 L-125 -14 Z"/></clipPath><clipPath id="clipPath69" clipPathUnits="userSpaceOnUse"><path d="M-129 -15 L258 -15 L258 30 L-129 30 L-129 -15 Z"/></clipPath><clipPath id="clipPath70" clipPathUnits="userSpaceOnUse"><path d="M-169 -14 L338 -14 L338 28 L-169 28 L-169 -14 Z"/></clipPath><clipPath id="clipPath71" clipPathUnits="userSpaceOnUse"><path d="M-123 -15 L246 -15 L246 30 L-123 30 L-123 -15 Z"/></clipPath></defs><g fill="#fff" fill-opacity="1" stroke="#fff" stroke-opacity="1" text-rendering="geometricPrecision"><rect width="1311" height="821" x="0" y="0" stroke="none"/></g><g fill="#7ACFF5" fill-opacity="1" stroke="#7ACFF5" stroke-opacity="1" font-family="sans-serif" font-size="11" image-rendering="optimizeQuality" text-rendering="geometricPrecision" transform="translate(220,2)"><circle cx="30" cy="5" r="5" stroke="none" clip-path="url(#clipPath1)"/><rect width="8" height="765" x="26" y="49" stroke="none" clip-path="url(#clipPath1)"/></g><g fill="#000" fill-opacity="1" stroke="#000" stroke-linecap="butt" stroke-linejoin="round" stroke-miterlimit="0" stroke-opacity="1" font-family="sans-serif" font-size="11" image-rendering="optimizeQuality" text-rendering="geometricPrecision" transform="translate(220,2)"><circle cx="30" cy="5" r="5" fill="none" clip-path="url(#clipPath1)"/><rect width="8" height="765" x="26" y="49" fill="none" clip-path="url(#clipPath1)"/><line x1="30" x2="30" y1="10" y2="25" fill="none" clip-path="url(#clipPath1)"/><line x1="30" x2="21" y1="25" y2="36" fill="none" clip-path="url(#clipPath1)"/><line x1="30" x2="39" y1="25" y2="36" fill="none" clip-path="url(#clipPath1)"/><line x1="21" x2="39" y1="16" y2="16" fill="none" clip-path="url(#clipPath1)"/></g><g fill="#7ACFF5" fill-opacity="1" stroke="#7ACFF5" stroke-opacity="1" font-family="sans-serif" font-size="11" image-rendering="optimizeQuality" text-rendering="geometricPrecision" transform="translate(358,2)"><rect width="91" height="35" x="0" y="0" stroke="none" clip-path="url(#clipPath2)"/></g><g fill="#000" fill-opacity="1" stroke="#000" stroke-linecap="butt" stroke-linejoin="round" stroke-miterlimit="0" stroke-opacity="1" font-family="sans-serif" font-size="11" image-rendering="optimizeQuality" text-rendering="geometricPrecision" transform="translate(358,2)"><rect width="91" height="35" x="0" y="0" fill="none" clip-path="url(#clipPath2)"/><line x1="45" x2="45" y1="35" y2="815" fill="none" stroke-dasharray="8 3" stroke-linejoin="bevel" clip-path="url(#clipPath2)"/></g><g fill="#7ACFF5" fill-opacity="1" stroke="#7ACFF5" stroke-opacity="1" font-family="sans-serif" font-size="11" image-rendering="optimizeQuality" text-rendering="geometricPrecision" transform="translate(528,2)"><rect width="148" height="35" x="0" y="0" stroke="none" clip-path="url(#clipPath3)"/></g><g fill="#000" fill-opacity="1" stroke="#000" stroke-linecap="butt" stroke-linejoin="round" stroke-miterlimit="0" stroke-opacity="1" font-family="sans-serif" font-size="11" image-rendering="optimizeQuality" text-rendering="geometricPrecision" transform="translate(528,2)"><rect width="148" height="35" x="0" y="0" fill="none" clip-path="url(#clipPath3)"/><line x1="74" x2="74" y1="35" y2="815" fill="none" stroke-dasharray="8 3" stroke-linejoin="bevel" clip-path="url(#clipPath3)"/></g><g fill="#7ACFF5" fill-opacity="1" stroke="#7ACFF5" stroke-opacity="1" font-family="sans-serif" font-size="11" image-rendering="optimizeQuality" text-rendering="geometricPrecision" transform="translate(598,78)"><rect width="8" height="701" x="0" y="0" stroke="none" clip-path="url(#clipPath4)"/></g><g fill="#000" fill-opacity="1" stroke="#000" stroke-linecap="butt" stroke-linejoin="round" stroke-miterlimit="0" stroke-opacity="1" font-family="sans-serif" font-size="11" image-rendering="optimizeQuality" text-rendering="geometricPrecision" transform="translate(598,78)"><rect width="8" height="701" x="0" y="0" fill="none" clip-path="url(#clipPath4)"/></g><g fill="#7ACFF5" fill-opacity="1" stroke="#7ACFF5" stroke-opacity="1" font-family="sans-serif" font-size="11" image-rendering="optimizeQuality" text-rendering="geometricPrecision" transform="translate(750,2)"><rect width="101" height="35" x="0" y="0" stroke="none" clip-path="url(#clipPath5)"/></g><g fill="#000" fill-opacity="1" stroke="#000" stroke-linecap="butt" stroke-linejoin="round" stroke-miterlimit="0" stroke-opacity="1" font-family="sans-serif" font-size="11" image-rendering="optimizeQuality" text-rendering="geometricPrecision" transform="translate(750,2)"><rect width="101" height="35" x="0" y="0" fill="none" clip-path="url(#clipPath5)"/><line x1="50" x2="50" y1="35" y2="815" fill="none" stroke-dasharray="8 3" stroke-linejoin="bevel" clip-path="url(#clipPath5)"/></g><g fill="#7ACFF5" fill-opacity="1" stroke="#7ACFF5" stroke-opacity="1" font-family="sans-serif" font-size="11" image-rendering="optimizeQuality" text-rendering="geometricPrecision" transform="translate(797,155)"><rect width="8" height="48" x="0" y="0" stroke="none" clip-path="url(#clipPath6)"/></g><g fill="#000" fill-opacity="1" stroke="#000" stroke-linecap="butt" stroke-linejoin="round" stroke-miterlimit="0" stroke-opacity="1" font-family="sans-serif" font-size="11" image-rendering="optimizeQuality" text-rendering="geometricPrecision" transform="translate(797,155)"><rect width="8" height="48" x="0" y="0" fill="none" clip-path="url(#clipPath6)"/></g><g fill="#7ACFF5" fill-opacity="1" stroke="#7ACFF5" stroke-opacity="1" font-family="sans-serif" font-size="11" image-rendering="optimizeQuality" text-rendering="geometricPrecision" transform="translate(400,83)"><rect width="8" height="714" x="0" y="0" stroke="none" clip-path="url(#clipPath7)"/></g><g fill="#000" fill-opacity="1" stroke="#000" stroke-linecap="butt" stroke-linejoin="round" stroke-miterlimit="0" stroke-opacity="1" font-family="sans-serif" font-size="11" image-rendering="optimizeQuality" text-rendering="geometricPrecision" transform="translate(400,83)"><rect width="8" height="714" x="0" y="0" fill="none" clip-path="url(#clipPath7)"/></g><g fill="#7ACFF5" fill-opacity="1" stroke="#7ACFF5" stroke-opacity="1" font-family="sans-serif" image-rendering="optimizeQuality" text-rendering="geometricPrecision" transform="translate(2,108)"><polygon stroke="none" points="0 0 170 0 185 15 170 15 170 0 185 15 185 64 0 64" clip-path="url(#clipPath8)"/></g><g fill="#000" fill-opacity="1" stroke="#000" stroke-linecap="butt" stroke-linejoin="round" stroke-miterlimit="0" stroke-opacity="1" font-family="sans-serif" image-rendering="optimizeQuality" text-rendering="geometricPrecision" transform="translate(2,108)"><polygon fill="none" points="0 0 170 0 185 15 170 15 170 0 185 15 185 64 0 64" clip-path="url(#clipPath8)"/></g><g fill="#000" fill-opacity="1" stroke="#000" stroke-opacity="1" font-family="'Lucida Grande'" font-size="13" image-rendering="optimizeQuality" text-rendering="geometricPrecision"><path stroke="none" d="M4.1191 14.6016 L4.1191 5.9297 L6.4805 5.9297 Q8.0508 5.9297 8.7363 6.46 Q9.4219 6.9902 9.4219 8.2031 Q9.4219 9.5859 8.4844 10.3711 Q7.5469 11.1562 5.8828 11.1562 L5.3379 11.1562 L5.3379 14.6016 ZM5.3379 10.2246 L5.8359 10.2246 Q6.9316 10.2246 7.5293 9.7207 Q8.127 9.2168 8.127 8.2969 Q8.127 7.5176 7.6582 7.1836 Q7.1895 6.8496 6.0938 6.8496 L5.3379 6.8496 ZM14.4355 13.793 Q13.3984 14.748 12.4375 14.748 Q11.6465 14.748 11.125 14.2529 Q10.6035 13.7578 10.6035 13.002 Q10.6035 11.959 11.4795 11.3994 Q12.3555 10.8398 13.9902 10.8398 L14.2656 10.8398 L14.2656 10.0723 Q14.2656 8.9648 13.1289 8.9648 Q12.2148 8.9648 11.1543 9.5273 L11.1543 8.5723 Q12.3203 8.0977 13.3398 8.0977 Q14.4062 8.0977 14.9131 8.5781 Q15.4199 9.0586 15.4199 10.0723 L15.4199 12.9551 Q15.4199 13.9453 16.0293 13.9453 Q16.1055 13.9453 16.252 13.9219 L16.334 14.5605 Q15.9414 14.748 15.4668 14.748 Q14.6582 14.748 14.4355 13.793 ZM14.2656 13.166 L14.2656 11.5195 L13.8789 11.5078 Q12.9297 11.5078 12.3438 11.8682 Q11.7578 12.2285 11.7578 12.8145 Q11.7578 13.2305 12.0508 13.5176 Q12.3438 13.8047 12.7656 13.8047 Q13.4863 13.8047 14.2656 13.166 ZM18.1543 14.6016 L18.1543 8.2383 L19.3086 8.2383 L19.3086 9.4336 Q20.2227 8.0977 21.5469 8.0977 Q22.373 8.0977 22.8652 8.6221 Q23.3574 9.1465 23.3574 10.0312 L23.3574 14.6016 L22.2031 14.6016 L22.2031 10.4062 Q22.2031 9.6973 21.9951 9.3955 Q21.7871 9.0938 21.3066 9.0938 Q20.2461 9.0938 19.3086 10.4824 L19.3086 14.6016 ZM27.0645 14.748 Q26.1855 14.748 25.6934 14.2441 Q25.2012 13.7402 25.2012 12.8438 L25.2012 9.1055 L24.4043 9.1055 L24.4043 8.2383 L25.2012 8.2383 L25.2012 7.084 L26.3555 6.9727 L26.3555 8.2383 L28.0195 8.2383 L28.0195 9.1055 L26.3555 9.1055 L26.3555 12.6328 Q26.3555 13.8809 27.4336 13.8809 Q27.6621 13.8809 27.9902 13.8047 L27.9902 14.6016 Q27.457 14.748 27.0645 14.748 ZM32.4355 13.793 Q31.3984 14.748 30.4375 14.748 Q29.6465 14.748 29.125 14.2529 Q28.6035 13.7578 28.6035 13.002 Q28.6035 11.959 29.4795 11.3994 Q30.3555 10.8398 31.9902 10.8398 L32.2656 10.8398 L32.2656 10.0723 Q32.2656 8.9648 31.1289 8.9648 Q30.2148 8.9648 29.1543 9.5273 L29.1543 8.5723 Q30.3203 8.0977 31.3398 8.0977 Q32.4062 8.0977 32.9131 8.5781 Q33.4199 9.0586 33.4199 10.0723 L33.4199 12.9551 Q33.4199 13.9453 34.0293 13.9453 Q34.1055 13.9453 34.252 13.9219 L34.334 14.5605 Q33.9414 14.748 33.4668 14.748 Q32.6582 14.748 32.4355 13.793 ZM32.2656 13.166 L32.2656 11.5195 L31.8789 11.5078 Q30.9297 11.5078 30.3438 11.8682 Q29.7578 12.2285 29.7578 12.8145 Q29.7578 13.2305 30.0508 13.5176 Q30.3438 13.8047 30.7656 13.8047 Q31.4863 13.8047 32.2656 13.166 ZM36.1543 14.6016 L36.1543 5.3496 L37.3086 5.3496 L37.3086 14.6016 ZM39.1543 14.6016 L39.1543 5.3496 L40.3086 5.3496 L40.3086 14.6016 ZM45.4355 13.793 Q44.3984 14.748 43.4375 14.748 Q42.6465 14.748 42.125 14.2529 Q41.6035 13.7578 41.6035 13.002 Q41.6035 11.959 42.4795 11.3994 Q43.3555 10.8398 44.9902 10.8398 L45.2656 10.8398 L45.2656 10.0723 Q45.2656 8.9648 44.1289 8.9648 Q43.2148 8.9648 42.1543 9.5273 L42.1543 8.5723 Q43.3203 8.0977 44.3398 8.0977 Q45.4062 8.0977 45.9131 8.5781 Q46.4199 9.0586 46.4199 10.0723 L46.4199 12.9551 Q46.4199 13.9453 47.0293 13.9453 Q47.1055 13.9453 47.252 13.9219 L47.334 14.5605 Q46.9414 14.748 46.4668 14.748 Q45.6582 14.748 45.4355 13.793 ZM45.2656 13.166 L45.2656 11.5195 L44.8789 11.5078 Q43.9297 11.5078 43.3438 11.8682 Q42.7578 12.2285 42.7578 12.8145 Q42.7578 13.2305 43.0508 13.5176 Q43.3438 13.8047 43.7656 13.8047 Q44.4863 13.8047 45.2656 13.166 ZM57.2383 14.6016 L57.2383 13.4062 Q56.5352 14.748 55.1172 14.748 Q53.9688 14.748 53.3096 13.9102 Q52.6504 13.0723 52.6504 11.6191 Q52.6504 10.0312 53.3975 9.0645 Q54.1445 8.0977 55.3633 8.0977 Q56.4941 8.0977 57.2383 8.9648 L57.2383 5.3496 L58.3984 5.3496 L58.3984 14.6016 ZM57.2383 9.7559 Q56.3418 8.9648 55.5391 8.9648 Q53.8809 8.9648 53.8809 11.502 Q53.8809 13.7344 55.3574 13.7344 Q56.3184 13.7344 57.2383 12.6855 ZM65.8184 14.3965 Q64.6582 14.748 63.832 14.748 Q62.4258 14.748 61.5381 13.8135 Q60.6504 12.8789 60.6504 11.3906 Q60.6504 9.9434 61.4326 9.0176 Q62.2148 8.0918 63.4336 8.0918 Q64.5879 8.0918 65.2178 8.9121 Q65.8477 9.7324 65.8477 11.2441 L65.8418 11.6016 L61.8281 11.6016 Q62.0801 13.8691 64.0488 13.8691 Q64.7695 13.8691 65.8184 13.4824 ZM61.8809 10.7344 L64.6875 10.7344 Q64.6875 8.959 63.3633 8.959 Q62.0332 8.959 61.8809 10.7344 ZM74.6387 14.748 Q73.3496 14.748 72.5 13.793 Q71.6504 12.8379 71.6504 11.3848 Q71.6504 9.832 72.4912 8.9648 Q73.332 8.0977 74.8379 8.0977 Q75.582 8.0977 76.502 8.3027 L76.502 9.2695 Q75.5234 8.9824 74.9082 8.9824 Q74.0234 8.9824 73.4873 9.6475 Q72.9512 10.3125 72.9512 11.4199 Q72.9512 12.4922 73.502 13.1543 Q74.0527 13.8164 74.9434 13.8164 Q75.7344 13.8164 76.5723 13.4121 L76.5723 14.4082 Q75.4531 14.748 74.6387 14.748 ZM81.4355 13.793 Q80.3984 14.748 79.4375 14.748 Q78.6465 14.748 78.125 14.2529 Q77.6035 13.7578 77.6035 13.002 Q77.6035 11.959 78.4795 11.3994 Q79.3555 10.8398 80.9902 10.8398 L81.2656 10.8398 L81.2656 10.0723 Q81.2656 8.9648 80.1289 8.9648 Q79.2148 8.9648 78.1543 9.5273 L78.1543 8.5723 Q79.3203 8.0977 80.3398 8.0977 Q81.4062 8.0977 81.9131 8.5781 Q82.4199 9.0586 82.4199 10.0723 L82.4199 12.9551 Q82.4199 13.9453 83.0293 13.9453 Q83.1055 13.9453 83.252 13.9219 L83.334 14.5605 Q82.9414 14.748 82.4668 14.748 Q81.6582 14.748 81.4355 13.793 ZM81.2656 13.166 L81.2656 11.5195 L80.8789 11.5078 Q79.9297 11.5078 79.3438 11.8682 Q78.7578 12.2285 78.7578 12.8145 Q78.7578 13.2305 79.0508 13.5176 Q79.3438 13.8047 79.7656 13.8047 Q80.4863 13.8047 81.2656 13.166 ZM85.1543 14.6016 L85.1543 8.2383 L86.3086 8.2383 L86.3086 9.4336 Q86.9941 8.0977 88.3008 8.0977 Q88.4766 8.0977 88.6699 8.127 L88.6699 9.2051 Q88.3711 9.1055 88.1426 9.1055 Q87.0469 9.1055 86.3086 10.4062 L86.3086 14.6016 ZM90.1777 16.7168 L90.3125 15.7148 Q91.3145 16.1895 92.2871 16.1895 Q94.2383 16.1895 94.2383 14.1211 L94.2383 13.1191 Q93.5996 14.4551 92.1406 14.4551 Q90.998 14.4551 90.3242 13.623 Q89.6504 12.791 89.6504 11.3789 Q89.6504 9.9258 90.418 9.0117 Q91.1855 8.0977 92.4043 8.0977 Q93.4707 8.0977 94.2383 8.9648 L94.2383 8.2383 L95.3984 8.2383 L95.3984 12.8672 Q95.3984 14.3613 95.2432 15.0791 Q95.0879 15.7969 94.6602 16.2539 Q93.9043 17.0566 92.3105 17.0566 Q91.1973 17.0566 90.1777 16.7168 ZM94.2383 12.3984 L94.2383 9.7559 Q93.4766 8.9648 92.5801 8.9648 Q91.7832 8.9648 91.332 9.6035 Q90.8809 10.2422 90.8809 11.3555 Q90.8809 13.4473 92.3516 13.4473 Q93.3535 13.4473 94.2383 12.3984 ZM100.4355 13.793 Q99.3984 14.748 98.4375 14.748 Q97.6465 14.748 97.125 14.2529 Q96.6035 13.7578 96.6035 13.002 Q96.6035 11.959 97.4795 11.3994 Q98.3555 10.8398 99.9902 10.8398 L100.2656 10.8398 L100.2656 10.0723 Q100.2656 8.9648 99.1289 8.9648 Q98.2148 8.9648 97.1543 9.5273 L97.1543 8.5723 Q98.3203 8.0977 99.3398 8.0977 Q100.4062 8.0977 100.9131 8.5781 Q101.4199 9.0586 101.4199 10.0723 L101.4199 12.9551 Q101.4199 13.9453 102.0293 13.9453 Q102.1055 13.9453 102.252 13.9219 L102.334 14.5605 Q101.9414 14.748 101.4668 14.748 Q100.6582 14.748 100.4355 13.793 ZM100.2656 13.166 L100.2656 11.5195 L99.8789 11.5078 Q98.9297 11.5078 98.3438 11.8682 Q97.7578 12.2285 97.7578 12.8145 Q97.7578 13.2305 98.0508 13.5176 Q98.3438 13.8047 98.7656 13.8047 Q99.4863 13.8047 100.2656 13.166 ZM112.8184 14.3965 Q111.6582 14.748 110.832 14.748 Q109.4258 14.748 108.5381 13.8135 Q107.6504 12.8789 107.6504 11.3906 Q107.6504 9.9434 108.4326 9.0176 Q109.2148 8.0918 110.4336 8.0918 Q111.5879 8.0918 112.2178 8.9121 Q112.8477 9.7324 112.8477 11.2441 L112.8418 11.6016 L108.8281 11.6016 Q109.0801 13.8691 111.0488 13.8691 Q111.7695 13.8691 112.8184 13.4824 ZM108.8809 10.7344 L111.6875 10.7344 Q111.6875 8.959 110.3633 8.959 Q109.0332 8.959 108.8809 10.7344 ZM115.1543 14.6016 L115.1543 8.2383 L116.3086 8.2383 L116.3086 9.4336 Q117.2227 8.0977 118.5469 8.0977 Q119.373 8.0977 119.8652 8.6221 Q120.3574 9.1465 120.3574 10.0312 L120.3574 14.6016 L119.2031 14.6016 L119.2031 10.4062 Q119.2031 9.6973 118.9951 9.3955 Q118.7871 9.0938 118.3066 9.0938 Q117.2461 9.0938 116.3086 10.4824 L116.3086 14.6016 ZM126.1543 14.6016 L126.1543 5.3496 L127.3086 5.3496 L127.3086 14.6016 ZM131.6445 14.748 Q130.2793 14.748 129.4648 13.8428 Q128.6504 12.9375 128.6504 11.4199 Q128.6504 9.8848 129.4678 8.9912 Q130.2852 8.0977 131.6855 8.0977 Q133.0859 8.0977 133.9033 8.9912 Q134.7207 9.8848 134.7207 11.4082 Q134.7207 12.9668 133.9004 13.8574 Q133.0801 14.748 131.6445 14.748 ZM131.6621 13.8809 Q133.4961 13.8809 133.4961 11.4082 Q133.4961 8.9648 131.6855 8.9648 Q129.8809 8.9648 129.8809 11.4199 Q129.8809 13.8809 131.6621 13.8809 ZM144.2383 16.916 L144.2383 13.4062 Q143.5352 14.748 142.1172 14.748 Q140.9688 14.748 140.3096 13.9102 Q139.6504 13.0723 139.6504 11.6191 Q139.6504 10.0312 140.3975 9.0645 Q141.1445 8.0977 142.3633 8.0977 Q143.4941 8.0977 144.2383 8.9648 L144.2383 8.2383 L145.3984 8.2383 L145.3984 16.916 ZM144.2383 9.7559 Q143.3418 8.9648 142.5391 8.9648 Q140.8809 8.9648 140.8809 11.502 Q140.8809 13.7344 142.3574 13.7344 Q143.3184 13.7344 144.2383 12.6855 ZM152.1328 14.6016 L152.1328 13.4062 Q151.2129 14.748 149.9004 14.748 Q149.0684 14.748 148.5762 14.2236 Q148.084 13.6992 148.084 12.8086 L148.084 8.2383 L149.2383 8.2383 L149.2383 12.4336 Q149.2383 13.1484 149.4463 13.4502 Q149.6543 13.752 150.1406 13.752 Q151.1953 13.752 152.1328 12.3633 L152.1328 8.2383 L153.2871 8.2383 L153.2871 14.6016 ZM159.8184 14.3965 Q158.6582 14.748 157.832 14.748 Q156.4258 14.748 155.5381 13.8135 Q154.6504 12.8789 154.6504 11.3906 Q154.6504 9.9434 155.4326 9.0176 Q156.2148 8.0918 157.4336 8.0918 Q158.5879 8.0918 159.2178 8.9121 Q159.8477 9.7324 159.8477 11.2441 L159.8418 11.6016 L155.8281 11.6016 Q156.0801 13.8691 158.0488 13.8691 Q158.7695 13.8691 159.8184 13.4824 ZM155.8809 10.7344 L158.6875 10.7344 Q158.6875 8.959 157.3633 8.959 Q156.0332 8.959 155.8809 10.7344 Z" clip-path="url(#clipPath9)" transform="translate(2,108)"/><text x="3" y="29" stroke="none" clip-path="url(#clipPath9)" font-family="sans-serif" font-size="12" text-rendering="optimizeLegibility" transform="translate(2,108)" xml:space="preserve">se procesan todos los</text><path stroke="none" d="M8.2383 43.6016 L8.2383 42.4062 Q7.5352 43.748 6.1172 43.748 Q4.9688 43.748 4.3096 42.9102 Q3.6504 42.0723 3.6504 40.6191 Q3.6504 39.0312 4.3975 38.0645 Q5.1445 37.0977 6.3633 37.0977 Q7.4941 37.0977 8.2383 37.9648 L8.2383 34.3496 L9.3984 34.3496 L9.3984 43.6016 ZM8.2383 38.7559 Q7.3418 37.9648 6.5391 37.9648 Q4.8809 37.9648 4.8809 40.502 Q4.8809 42.7344 6.3574 42.7344 Q7.3184 42.7344 8.2383 41.6855 ZM15.4355 42.793 Q14.3984 43.748 13.4375 43.748 Q12.6465 43.748 12.125 43.2529 Q11.6035 42.7578 11.6035 42.002 Q11.6035 40.959 12.4795 40.3994 Q13.3555 39.8398 14.9902 39.8398 L15.2656 39.8398 L15.2656 39.0723 Q15.2656 37.9648 14.1289 37.9648 Q13.2148 37.9648 12.1543 38.5273 L12.1543 37.5723 Q13.3203 37.0977 14.3398 37.0977 Q15.4062 37.0977 15.9131 37.5781 Q16.4199 38.0586 16.4199 39.0723 L16.4199 41.9551 Q16.4199 42.9453 17.0293 42.9453 Q17.1055 42.9453 17.252 42.9219 L17.334 43.5605 Q16.9414 43.748 16.4668 43.748 Q15.6582 43.748 15.4355 42.793 ZM15.2656 42.166 L15.2656 40.5195 L14.8789 40.5078 Q13.9297 40.5078 13.3438 40.8682 Q12.7578 41.2285 12.7578 41.8145 Q12.7578 42.2305 13.0508 42.5176 Q13.3438 42.8047 13.7656 42.8047 Q14.4863 42.8047 15.2656 42.166 ZM21.0645 43.748 Q20.1855 43.748 19.6934 43.2441 Q19.2012 42.7402 19.2012 41.8438 L19.2012 38.1055 L18.4043 38.1055 L18.4043 37.2383 L19.2012 37.2383 L19.2012 36.084 L20.3555 35.9727 L20.3555 37.2383 L22.0195 37.2383 L22.0195 38.1055 L20.3555 38.1055 L20.3555 41.6328 Q20.3555 42.8809 21.4336 42.8809 Q21.6621 42.8809 21.9902 42.8047 L21.9902 43.6016 Q21.457 43.748 21.0645 43.748 ZM25.6445 43.748 Q24.2793 43.748 23.4648 42.8428 Q22.6504 41.9375 22.6504 40.4199 Q22.6504 38.8848 23.4678 37.9912 Q24.2852 37.0977 25.6855 37.0977 Q27.0859 37.0977 27.9033 37.9912 Q28.7207 38.8848 28.7207 40.4082 Q28.7207 41.9668 27.9004 42.8574 Q27.0801 43.748 25.6445 43.748 ZM25.6621 42.8809 Q27.4961 42.8809 27.4961 40.4082 Q27.4961 37.9648 25.6855 37.9648 Q23.8809 37.9648 23.8809 40.4199 Q23.8809 42.8809 25.6621 42.8809 ZM31.8418 43.748 Q31.0508 43.748 29.9199 43.3789 L29.9199 42.3184 Q31.0508 42.8809 31.8887 42.8809 Q32.3867 42.8809 32.7148 42.6113 Q33.043 42.3418 33.043 41.9375 Q33.043 41.3457 32.123 40.959 L31.4492 40.6719 Q29.9551 40.0508 29.9551 38.8848 Q29.9551 38.0527 30.5439 37.5752 Q31.1328 37.0977 32.1582 37.0977 Q32.6914 37.0977 33.4766 37.2441 L33.7168 37.291 L33.7168 38.252 Q32.75 37.9648 32.1816 37.9648 Q31.0684 37.9648 31.0684 38.7734 Q31.0684 39.2949 31.9121 39.6523 L32.4688 39.8867 Q33.4121 40.2852 33.8047 40.7275 Q34.1973 41.1699 34.1973 41.832 Q34.1973 42.6699 33.5352 43.209 Q32.873 43.748 31.8418 43.748 ZM40.1543 45.916 L40.1543 37.2383 L41.3086 37.2383 L41.3086 38.4336 Q42.0176 37.0977 43.4355 37.0977 Q44.584 37.0977 45.2432 37.9355 Q45.9023 38.7734 45.9023 40.2266 Q45.9023 41.8086 45.1553 42.7783 Q44.4082 43.748 43.1895 43.748 Q42.0586 43.748 41.3086 42.8809 L41.3086 45.916 ZM41.3086 42.084 Q42.1992 42.8809 43.0078 42.8809 Q44.6719 42.8809 44.6719 40.3438 Q44.6719 38.1055 43.1953 38.1055 Q42.2285 38.1055 41.3086 39.1543 ZM51.4355 42.793 Q50.3984 43.748 49.4375 43.748 Q48.6465 43.748 48.125 43.2529 Q47.6035 42.7578 47.6035 42.002 Q47.6035 40.959 48.4795 40.3994 Q49.3555 39.8398 50.9902 39.8398 L51.2656 39.8398 L51.2656 39.0723 Q51.2656 37.9648 50.1289 37.9648 Q49.2148 37.9648 48.1543 38.5273 L48.1543 37.5723 Q49.3203 37.0977 50.3398 37.0977 Q51.4062 37.0977 51.9131 37.5781 Q52.4199 38.0586 52.4199 39.0723 L52.4199 41.9551 Q52.4199 42.9453 53.0293 42.9453 Q53.1055 42.9453 53.252 42.9219 L53.334 43.5605 Q52.9414 43.748 52.4668 43.748 Q51.6582 43.748 51.4355 42.793 ZM51.2656 42.166 L51.2656 40.5195 L50.8789 40.5078 Q49.9297 40.5078 49.3438 40.8682 Q48.7578 41.2285 48.7578 41.8145 Q48.7578 42.2305 49.0508 42.5176 Q49.3438 42.8047 49.7656 42.8047 Q50.4863 42.8047 51.2656 42.166 ZM55.1543 43.6016 L55.1543 37.2383 L56.3086 37.2383 L56.3086 38.4336 Q56.9941 37.0977 58.3008 37.0977 Q58.4766 37.0977 58.6699 37.127 L58.6699 38.2051 Q58.3711 38.1055 58.1426 38.1055 Q57.0469 38.1055 56.3086 39.4062 L56.3086 43.6016 ZM63.4355 42.793 Q62.3984 43.748 61.4375 43.748 Q60.6465 43.748 60.125 43.2529 Q59.6035 42.7578 59.6035 42.002 Q59.6035 40.959 60.4795 40.3994 Q61.3555 39.8398 62.9902 39.8398 L63.2656 39.8398 L63.2656 39.0723 Q63.2656 37.9648 62.1289 37.9648 Q61.2148 37.9648 60.1543 38.5273 L60.1543 37.5723 Q61.3203 37.0977 62.3398 37.0977 Q63.4062 37.0977 63.9131 37.5781 Q64.4199 38.0586 64.4199 39.0723 L64.4199 41.9551 Q64.4199 42.9453 65.0293 42.9453 Q65.1055 42.9453 65.252 42.9219 L65.334 43.5605 Q64.9414 43.748 64.4668 43.748 Q63.6582 43.748 63.4355 42.793 ZM63.2656 42.166 L63.2656 40.5195 L62.8789 40.5078 Q61.9297 40.5078 61.3438 40.8682 Q60.7578 41.2285 60.7578 41.8145 Q60.7578 42.2305 61.0508 42.5176 Q61.3438 42.8047 61.7656 42.8047 Q62.4863 42.8047 63.2656 42.166 ZM72.8418 43.748 Q72.0508 43.748 70.9199 43.3789 L70.9199 42.3184 Q72.0508 42.8809 72.8887 42.8809 Q73.3867 42.8809 73.7148 42.6113 Q74.043 42.3418 74.043 41.9375 Q74.043 41.3457 73.123 40.959 L72.4492 40.6719 Q70.9551 40.0508 70.9551 38.8848 Q70.9551 38.0527 71.5439 37.5752 Q72.1328 37.0977 73.1582 37.0977 Q73.6914 37.0977 74.4766 37.2441 L74.7168 37.291 L74.7168 38.252 Q73.75 37.9648 73.1816 37.9648 Q72.0684 37.9648 72.0684 38.7734 Q72.0684 39.2949 72.9121 39.6523 L73.4688 39.8867 Q74.4121 40.2852 74.8047 40.7275 Q75.1973 41.1699 75.1973 41.832 Q75.1973 42.6699 74.5352 43.209 Q73.873 43.748 72.8418 43.748 ZM81.1328 43.6016 L81.1328 42.4062 Q80.2129 43.748 78.9004 43.748 Q78.0684 43.748 77.5762 43.2236 Q77.084 42.6992 77.084 41.8086 L77.084 37.2383 L78.2383 37.2383 L78.2383 41.4336 Q78.2383 42.1484 78.4463 42.4502 Q78.6543 42.752 79.1406 42.752 Q80.1953 42.752 81.1328 41.3633 L81.1328 37.2383 L82.2871 37.2383 L82.2871 43.6016 ZM89.4727 43.6016 L87.1055 37.2383 L88.2598 37.2383 L90.1113 42.1895 L92.0625 37.2383 L93.1406 37.2383 L90.627 43.6016 ZM94.1543 43.6016 L94.1543 37.2383 L95.3086 37.2383 L95.3086 43.6016 ZM94.1543 36.084 L94.1543 34.9297 L95.3086 34.9297 L95.3086 36.084 ZM98.8418 43.748 Q98.0508 43.748 96.9199 43.3789 L96.9199 42.3184 Q98.0508 42.8809 98.8887 42.8809 Q99.3867 42.8809 99.7148 42.6113 Q100.043 42.3418 100.043 41.9375 Q100.043 41.3457 99.123 40.959 L98.4492 40.6719 Q96.9551 40.0508 96.9551 38.8848 Q96.9551 38.0527 97.5439 37.5752 Q98.1328 37.0977 99.1582 37.0977 Q99.6914 37.0977 100.4766 37.2441 L100.7168 37.291 L100.7168 38.252 Q99.75 37.9648 99.1816 37.9648 Q98.0684 37.9648 98.0684 38.7734 Q98.0684 39.2949 98.9121 39.6523 L99.4688 39.8867 Q100.4121 40.2852 100.8047 40.7275 Q101.1973 41.1699 101.1973 41.832 Q101.1973 42.6699 100.5352 43.209 Q99.873 43.748 98.8418 43.748 ZM107.1328 43.6016 L107.1328 42.4062 Q106.2129 43.748 104.9004 43.748 Q104.0684 43.748 103.5762 43.2236 Q103.084 42.6992 103.084 41.8086 L103.084 37.2383 L104.2383 37.2383 L104.2383 41.4336 Q104.2383 42.1484 104.4463 42.4502 Q104.6543 42.752 105.1406 42.752 Q106.1953 42.752 107.1328 41.3633 L107.1328 37.2383 L108.2871 37.2383 L108.2871 43.6016 ZM113.4355 42.793 Q112.3984 43.748 111.4375 43.748 Q110.6465 43.748 110.125 43.2529 Q109.6035 42.7578 109.6035 42.002 Q109.6035 40.959 110.4795 40.3994 Q111.3555 39.8398 112.9902 39.8398 L113.2656 39.8398 L113.2656 39.0723 Q113.2656 37.9648 112.1289 37.9648 Q111.2148 37.9648 110.1543 38.5273 L110.1543 37.5723 Q111.3203 37.0977 112.3398 37.0977 Q113.4062 37.0977 113.9131 37.5781 Q114.4199 38.0586 114.4199 39.0723 L114.4199 41.9551 Q114.4199 42.9453 115.0293 42.9453 Q115.1055 42.9453 115.252 42.9219 L115.334 43.5605 Q114.9414 43.748 114.4668 43.748 Q113.6582 43.748 113.4355 42.793 ZM113.2656 42.166 L113.2656 40.5195 L112.8789 40.5078 Q111.9297 40.5078 111.3438 40.8682 Q110.7578 41.2285 110.7578 41.8145 Q110.7578 42.2305 111.0508 42.5176 Q111.3438 42.8047 111.7656 42.8047 Q112.4863 42.8047 113.2656 42.166 ZM117.1543 43.6016 L117.1543 34.3496 L118.3086 34.3496 L118.3086 43.6016 ZM120.1543 43.6016 L120.1543 37.2383 L121.3086 37.2383 L121.3086 43.6016 ZM120.1543 36.084 L120.1543 34.9297 L121.3086 34.9297 L121.3086 36.084 ZM122.7207 43.6016 L122.7207 42.7344 L126.6582 38.1055 L122.9023 38.1055 L122.9023 37.2383 L128.082 37.2383 L128.082 38.1055 L124.1445 42.7344 L128.1582 42.7344 L128.1582 43.6016 ZM133.4355 42.793 Q132.3984 43.748 131.4375 43.748 Q130.6465 43.748 130.125 43.2529 Q129.6035 42.7578 129.6035 42.002 Q129.6035 40.959 130.4795 40.3994 Q131.3555 39.8398 132.9902 39.8398 L133.2656 39.8398 L133.2656 39.0723 Q133.2656 37.9648 132.1289 37.9648 Q131.2148 37.9648 130.1543 38.5273 L130.1543 37.5723 Q131.3203 37.0977 132.3398 37.0977 Q133.4062 37.0977 133.9131 37.5781 Q134.4199 38.0586 134.4199 39.0723 L134.4199 41.9551 Q134.4199 42.9453 135.0293 42.9453 Q135.1055 42.9453 135.252 42.9219 L135.334 43.5605 Q134.9414 43.748 134.4668 43.748 Q133.6582 43.748 133.4355 42.793 ZM133.2656 42.166 L133.2656 40.5195 L132.8789 40.5078 Q131.9297 40.5078 131.3438 40.8682 Q130.7578 41.2285 130.7578 41.8145 Q130.7578 42.2305 131.0508 42.5176 Q131.3438 42.8047 131.7656 42.8047 Q132.4863 42.8047 133.2656 42.166 ZM139.6387 43.748 Q138.3496 43.748 137.5 42.793 Q136.6504 41.8379 136.6504 40.3848 Q136.6504 38.832 137.4912 37.9648 Q138.332 37.0977 139.8379 37.0977 Q140.582 37.0977 141.502 37.3027 L141.502 38.2695 Q140.5234 37.9824 139.9082 37.9824 Q139.0234 37.9824 138.4873 38.6475 Q137.9512 39.3125 137.9512 40.4199 Q137.9512 41.4922 138.502 42.1543 Q139.0527 42.8164 139.9434 42.8164 Q140.7344 42.8164 141.5723 42.4121 L141.5723 43.4082 Q140.4531 43.748 139.6387 43.748 ZM143.1543 43.6016 L143.1543 37.2383 L144.3086 37.2383 L144.3086 43.6016 ZM143.1543 36.084 L143.1543 34.9297 L144.3086 34.9297 L144.3086 36.084 ZM148.6445 43.748 Q147.2793 43.748 146.4648 42.8428 Q145.6504 41.9375 145.6504 40.4199 Q145.6504 38.8848 146.4678 37.9912 Q147.2852 37.0977 148.6855 37.0977 Q150.0859 37.0977 150.9033 37.9912 Q151.7207 38.8848 151.7207 40.4082 Q151.7207 41.9668 150.9004 42.8574 Q150.0801 43.748 148.6445 43.748 ZM148.6621 42.8809 Q150.4961 42.8809 150.4961 40.4082 Q150.4961 37.9648 148.6855 37.9648 Q146.8809 37.9648 146.8809 40.4199 Q146.8809 42.8809 148.6621 42.8809 ZM147.8184 36.084 L149.2305 34.2031 L150.5664 34.2031 L148.6855 36.084 ZM153.1543 43.6016 L153.1543 37.2383 L154.3086 37.2383 L154.3086 38.4336 Q155.2227 37.0977 156.5469 37.0977 Q157.373 37.0977 157.8652 37.6221 Q158.3574 38.1465 158.3574 39.0312 L158.3574 43.6016 L157.2031 43.6016 L157.2031 39.4062 Q157.2031 38.6973 156.9951 38.3955 Q156.7871 38.0938 156.3066 38.0938 Q155.2461 38.0938 154.3086 39.4824 L154.3086 43.6016 Z" clip-path="url(#clipPath9)" transform="translate(2,108)"/></g><g fill="#7ACFF5" fill-opacity="1" stroke="#7ACFF5" stroke-opacity="1" font-family="sans-serif" font-size="11" image-rendering="optimizeQuality" text-rendering="geometricPrecision" transform="translate(797,259)"><rect width="8" height="41" x="0" y="0" stroke="none" clip-path="url(#clipPath10)"/></g><g fill="#000" fill-opacity="1" stroke="#000" stroke-linecap="butt" stroke-linejoin="round" stroke-miterlimit="0" stroke-opacity="1" font-family="sans-serif" font-size="11" image-rendering="optimizeQuality" text-rendering="geometricPrecision" transform="translate(797,259)"><rect width="8" height="41" x="0" y="0" fill="none" clip-path="url(#clipPath10)"/></g><g fill="#7ACFF5" fill-opacity="1" stroke="#7ACFF5" stroke-opacity="1" font-family="sans-serif" font-size="11" image-rendering="optimizeQuality" text-rendering="geometricPrecision" transform="translate(797,383)"><rect width="8" height="64" x="0" y="0" stroke="none" clip-path="url(#clipPath11)"/></g><g fill="#000" fill-opacity="1" stroke="#000" stroke-linecap="butt" stroke-linejoin="round" stroke-miterlimit="0" stroke-opacity="1" font-family="sans-serif" font-size="11" image-rendering="optimizeQuality" text-rendering="geometricPrecision" transform="translate(797,383)"><rect width="8" height="64" x="0" y="0" fill="none" clip-path="url(#clipPath11)"/></g><g fill="#7ACFF5" fill-opacity="1" stroke="#7ACFF5" stroke-opacity="1" font-family="sans-serif" font-size="11" image-rendering="optimizeQuality" text-rendering="geometricPrecision" transform="translate(955,2)"><rect width="69" height="35" x="0" y="0" stroke="none" clip-path="url(#clipPath12)"/></g><g fill="#000" fill-opacity="1" stroke="#000" stroke-linecap="butt" stroke-linejoin="round" stroke-miterlimit="0" stroke-opacity="1" font-family="sans-serif" font-size="11" image-rendering="optimizeQuality" text-rendering="geometricPrecision" transform="translate(955,2)"><rect width="69" height="35" x="0" y="0" fill="none" clip-path="url(#clipPath12)"/><line x1="34" x2="34" y1="35" y2="815" fill="none" stroke-dasharray="8 3" stroke-linejoin="bevel" clip-path="url(#clipPath12)"/></g><g fill="#7ACFF5" fill-opacity="1" stroke="#7ACFF5" stroke-opacity="1" font-family="sans-serif" font-size="11" image-rendering="optimizeQuality" text-rendering="geometricPrecision" transform="translate(986,507)"><rect width="8" height="244" x="0" y="0" stroke="none" clip-path="url(#clipPath13)"/></g><g fill="#000" fill-opacity="1" stroke="#000" stroke-linecap="butt" stroke-linejoin="round" stroke-miterlimit="0" stroke-opacity="1" font-family="sans-serif" font-size="11" image-rendering="optimizeQuality" text-rendering="geometricPrecision" transform="translate(986,507)"><rect width="8" height="244" x="0" y="0" fill="none" clip-path="url(#clipPath13)"/></g><g fill="#7ACFF5" fill-opacity="1" stroke="#7ACFF5" stroke-opacity="1" font-family="sans-serif" font-size="11" image-rendering="optimizeQuality" text-rendering="geometricPrecision" transform="translate(1131,2)"><rect width="69" height="35" x="0" y="0" stroke="none" clip-path="url(#clipPath14)"/></g><g fill="#000" fill-opacity="1" stroke="#000" stroke-linecap="butt" stroke-linejoin="round" stroke-miterlimit="0" stroke-opacity="1" font-family="sans-serif" font-size="11" image-rendering="optimizeQuality" text-rendering="geometricPrecision" transform="translate(1131,2)"><line x1="25" x2="43" y1="779" y2="797" fill="none" clip-path="url(#clipPath14)"/><line x1="25" x2="43" y1="797" y2="779" fill="none" clip-path="url(#clipPath14)"/><rect width="69" height="35" x="0" y="0" fill="none" clip-path="url(#clipPath14)"/><line x1="34" x2="34" y1="35" y2="788" fill="none" stroke-dasharray="8 3" stroke-linejoin="bevel" clip-path="url(#clipPath14)"/></g><g fill="#7ACFF5" fill-opacity="1" stroke="#7ACFF5" stroke-opacity="1" font-family="sans-serif" font-size="11" image-rendering="optimizeQuality" text-rendering="geometricPrecision" transform="translate(1162,546)"><rect width="8" height="217" x="0" y="0" stroke="none" clip-path="url(#clipPath15)"/></g><g fill="#000" fill-opacity="1" stroke="#000" stroke-linecap="butt" stroke-linejoin="round" stroke-miterlimit="0" stroke-opacity="1" font-family="sans-serif" font-size="11" image-rendering="optimizeQuality" text-rendering="geometricPrecision" transform="translate(1162,546)"><rect width="8" height="217" x="0" y="0" fill="none" clip-path="url(#clipPath15)"/></g><g fill="#000" fill-opacity="1" stroke="#000" stroke-opacity="1" font-family="sans-serif" font-size="11" image-rendering="optimizeQuality" text-rendering="geometricPrecision"><text x="10" y="11" stroke="none" clip-path="url(#clipPath16)" transform="translate(202,37)" xml:space="preserve">Administrador</text></g><g fill="#000" fill-opacity="1" stroke="#000" stroke-opacity="1" font-family="sans-serif" font-size="11" image-rendering="optimizeQuality" text-rendering="geometricPrecision"><text x="14" y="11" stroke="none" clip-path="url(#clipPath17)" transform="translate(358,2)" xml:space="preserve">Window : UI</text></g><g fill="#000" fill-opacity="1" stroke="#000" stroke-opacity="1" font-family="sans-serif" font-size="11" image-rendering="optimizeQuality" text-rendering="geometricPrecision"><text x="9" y="11" stroke="none" clip-path="url(#clipPath18)" transform="translate(528,2)" xml:space="preserve">Controlador del sistema</text></g><g fill="#000" fill-opacity="1" stroke="#000" stroke-opacity="1" font-family="sans-serif" font-size="11" image-rendering="optimizeQuality" text-rendering="geometricPrecision"><text x="13" y="11" stroke="none" clip-path="url(#clipPath19)" transform="translate(750,2)" xml:space="preserve">Base de Datos</text></g><g fill="#000" fill-opacity="1" stroke="#000" stroke-opacity="1" font-family="sans-serif" font-size="11" image-rendering="optimizeQuality" text-rendering="geometricPrecision"><text x="14" y="11" stroke="none" clip-path="url(#clipPath20)" transform="translate(955,2)" xml:space="preserve">File I/O</text></g><g fill="#000" fill-opacity="1" stroke="#000" stroke-opacity="1" font-family="sans-serif" font-size="11" image-rendering="optimizeQuality" text-rendering="geometricPrecision"><text x="14" y="11" stroke="none" clip-path="url(#clipPath20)" transform="translate(1131,2)" xml:space="preserve">Cleaner</text></g><g fill="#000" fill-opacity="1" stroke="#000" stroke-linecap="butt" stroke-linejoin="round" stroke-opacity="1" font-family="sans-serif" font-size="11" image-rendering="optimizeQuality" text-rendering="geometricPrecision" transform="translate(224,54)"><line x1="29" x2="176" y1="30" y2="30" fill="none" clip-path="url(#clipPath22)"/><polygon stroke="none" points="176 30 164 24 164 36" clip-path="url(#clipPath22)"/><polygon fill="none" points="176 30 164 24 164 36" clip-path="url(#clipPath22)"/></g><g fill="#000" fill-opacity="1" stroke="#000" stroke-linecap="butt" stroke-linejoin="round" stroke-opacity="1" font-family="sans-serif" font-size="11" image-rendering="optimizeQuality" text-rendering="geometricPrecision" transform="translate(379,76)"><line x1="29" x2="218" y1="30" y2="30" fill="none" clip-path="url(#clipPath24)"/><polygon stroke="none" points="218 30 206 24 206 36" clip-path="url(#clipPath24)"/><polygon fill="none" points="218 30 206 24 206 36" clip-path="url(#clipPath24)"/></g><g fill="#000" fill-opacity="1" stroke="#000" stroke-linecap="butt" stroke-linejoin="round" stroke-opacity="1" font-family="sans-serif" font-size="11" image-rendering="optimizeQuality" text-rendering="geometricPrecision" transform="translate(576,125)"><line x1="30" x2="221" y1="29" y2="29" fill="none" clip-path="url(#clipPath26)"/><polygon stroke="none" points="221 29 209 23 209 35" clip-path="url(#clipPath26)"/><polygon fill="none" points="221 29 209 23 209 35" clip-path="url(#clipPath26)"/></g><g fill="#000" fill-opacity="1" stroke="#000" stroke-linecap="butt" stroke-linejoin="round" stroke-opacity="1" font-family="sans-serif" font-size="11" image-rendering="optimizeQuality" text-rendering="geometricPrecision" transform="translate(576,161)"><line x1="221" x2="30" y1="29" y2="29" fill="none" clip-path="url(#clipPath27)"/><polygon stroke="none" points="30 29 42 35 42 23" clip-path="url(#clipPath27)"/><polygon fill="none" points="30 29 42 35 42 23" clip-path="url(#clipPath27)"/></g><g fill="#000" fill-opacity="1" stroke="#000" stroke-linecap="butt" stroke-linejoin="round" stroke-opacity="1" font-family="sans-serif" font-size="11" image-rendering="optimizeQuality" text-rendering="geometricPrecision" transform="translate(581,183)"><line x1="25" x2="55" y1="25" y2="25" fill="none" clip-path="url(#clipPath29)"/><line x1="55" x2="55" y1="25" y2="45" fill="none" clip-path="url(#clipPath29)"/><line x1="55" x2="25" y1="45" y2="45" fill="none" clip-path="url(#clipPath29)"/><polygon stroke="none" points="25 45 37 51 37 39" clip-path="url(#clipPath29)"/><polygon fill="none" points="25 45 37 51 37 39" clip-path="url(#clipPath29)"/></g><g fill="#000" fill-opacity="1" stroke="#000" stroke-linecap="butt" stroke-linejoin="round" stroke-opacity="1" font-family="sans-serif" font-size="11" image-rendering="optimizeQuality" text-rendering="geometricPrecision" transform="translate(576,229)"><line x1="30" x2="221" y1="29" y2="29" fill="none" clip-path="url(#clipPath30)"/><polygon stroke="none" points="221 29 209 23 209 35" clip-path="url(#clipPath30)"/><polygon fill="none" points="221 29 209 23 209 35" clip-path="url(#clipPath30)"/></g><g fill="#000" fill-opacity="1" stroke="#000" stroke-linecap="butt" stroke-linejoin="round" stroke-opacity="1" font-family="sans-serif" font-size="11" image-rendering="optimizeQuality" text-rendering="geometricPrecision" transform="translate(576,257)"><line x1="221" x2="30" y1="30" y2="30" fill="none" clip-path="url(#clipPath31)"/><polygon stroke="none" points="30 30 42 36 42 24" clip-path="url(#clipPath31)"/><polygon fill="none" points="30 30 42 36 42 24" clip-path="url(#clipPath31)"/></g><g fill="#000" fill-opacity="1" stroke="#000" stroke-linecap="butt" stroke-linejoin="round" stroke-opacity="1" font-family="sans-serif" font-size="11" image-rendering="optimizeQuality" text-rendering="geometricPrecision" transform="translate(581,296)"><line x1="25" x2="55" y1="25" y2="25" fill="none" clip-path="url(#clipPath32)"/><line x1="55" x2="55" y1="25" y2="45" fill="none" clip-path="url(#clipPath32)"/><line x1="55" x2="25" y1="45" y2="45" fill="none" clip-path="url(#clipPath32)"/><polygon stroke="none" points="25 45 37 51 37 39" clip-path="url(#clipPath32)"/><polygon fill="none" points="25 45 37 51 37 39" clip-path="url(#clipPath32)"/></g><g fill="#000" fill-opacity="1" stroke="#000" stroke-linecap="butt" stroke-linejoin="round" stroke-opacity="1" font-family="sans-serif" font-size="11" image-rendering="optimizeQuality" text-rendering="geometricPrecision" transform="translate(576,352)"><line x1="30" x2="221" y1="29" y2="29" fill="none" clip-path="url(#clipPath33)"/><polygon stroke="none" points="221 29 209 23 209 35" clip-path="url(#clipPath33)"/><polygon fill="none" points="221 29 209 23 209 35" clip-path="url(#clipPath33)"/></g><g fill="#000" fill-opacity="1" stroke="#000" stroke-linecap="butt" stroke-linejoin="round" stroke-opacity="1" font-family="sans-serif" font-size="11" image-rendering="optimizeQuality" text-rendering="geometricPrecision" transform="translate(576,393)"><line x1="221" x2="30" y1="30" y2="30" fill="none" clip-path="url(#clipPath34)"/><polygon stroke="none" points="30 30 42 36 42 24" clip-path="url(#clipPath34)"/><polygon fill="none" points="30 30 42 36 42 24" clip-path="url(#clipPath34)"/></g><g fill="#000" fill-opacity="1" stroke="#000" stroke-linecap="butt" stroke-linejoin="round" stroke-opacity="1" font-family="sans-serif" font-size="11" image-rendering="optimizeQuality" text-rendering="geometricPrecision" transform="translate(581,433)"><line x1="25" x2="55" y1="25" y2="25" fill="none" clip-path="url(#clipPath35)"/><line x1="55" x2="55" y1="25" y2="45" fill="none" clip-path="url(#clipPath35)"/><line x1="55" x2="25" y1="45" y2="45" fill="none" clip-path="url(#clipPath35)"/><polygon stroke="none" points="25 45 37 51 37 39" clip-path="url(#clipPath35)"/><polygon fill="none" points="25 45 37 51 37 39" clip-path="url(#clipPath35)"/></g><g fill="#000" fill-opacity="1" stroke="#000" stroke-linecap="butt" stroke-linejoin="round" stroke-opacity="1" font-family="sans-serif" font-size="11" image-rendering="optimizeQuality" text-rendering="geometricPrecision" transform="translate(379,76)"><line x1="218" x2="29" y1="30" y2="60" fill="none" clip-path="url(#clipPath37)"/><line x1="29" x2="40" y1="60" y2="64" fill="none" clip-path="url(#clipPath37)"/><line x1="29" x2="39" y1="60" y2="52" fill="none" clip-path="url(#clipPath37)"/></g><g fill="#000" fill-opacity="1" stroke="#000" stroke-dasharray="4" stroke-linecap="butt" stroke-linejoin="round" stroke-opacity="1" font-family="sans-serif" font-size="11" image-rendering="optimizeQuality" text-rendering="geometricPrecision" transform="translate(158,89)"><line x1="29" x2="125" y1="36" y2="36" fill="none" clip-path="url(#clipPath39)"/><line x1="125" x2="359" y1="36" y2="29" fill="none" clip-path="url(#clipPath39)"/></g><g fill="#000" fill-opacity="1" stroke="#000" stroke-linecap="butt" stroke-linejoin="round" stroke-opacity="1" font-family="sans-serif" font-size="11" image-rendering="optimizeQuality" text-rendering="geometricPrecision" transform="translate(581,482)"><line x1="25" x2="405" y1="25" y2="25" fill="none" clip-path="url(#clipPath41)"/><polygon stroke="none" points="405 25 393 19 393 31" clip-path="url(#clipPath41)"/><polygon fill="none" points="405 25 393 19 393 31" clip-path="url(#clipPath41)"/></g><g fill="#000" fill-opacity="1" stroke="#000" stroke-linecap="butt" stroke-linejoin="round" stroke-opacity="1" font-family="sans-serif" font-size="11" image-rendering="optimizeQuality" text-rendering="geometricPrecision" transform="translate(379,573)"><line x1="218" x2="29" y1="30" y2="30" fill="none" clip-path="url(#clipPath42)"/><polygon stroke="none" points="29 30 41 36 41 24" clip-path="url(#clipPath42)"/><polygon fill="none" points="29 30 41 36 41 24" clip-path="url(#clipPath42)"/></g><g fill="#000" fill-opacity="1" stroke="#000" stroke-linecap="butt" stroke-linejoin="round" stroke-opacity="1" font-family="sans-serif" font-size="11" image-rendering="optimizeQuality" text-rendering="geometricPrecision" transform="translate(379,607)"><line x1="29" x2="607" y1="30" y2="30" fill="none" clip-path="url(#clipPath44)"/><polygon stroke="none" points="607 30 595 24 595 36" clip-path="url(#clipPath44)"/><polygon fill="none" points="607 30 595 24 595 36" clip-path="url(#clipPath44)"/></g><g fill="#000" fill-opacity="1" stroke="#000" stroke-linecap="butt" stroke-linejoin="round" stroke-opacity="1" font-family="sans-serif" font-size="11" image-rendering="optimizeQuality" text-rendering="geometricPrecision" transform="translate(379,662)"><line x1="607" x2="29" y1="30" y2="30" fill="none" clip-path="url(#clipPath45)"/><polygon stroke="none" points="29 30 41 36 41 24" clip-path="url(#clipPath45)"/><polygon fill="none" points="29 30 41 36 41 24" clip-path="url(#clipPath45)"/></g><g fill="#000" fill-opacity="1" stroke="#000" stroke-linecap="butt" stroke-linejoin="round" stroke-opacity="1" font-family="sans-serif" font-size="11" image-rendering="optimizeQuality" text-rendering="geometricPrecision" transform="translate(379,683)"><line x1="29" x2="59" y1="30" y2="30" fill="none" clip-path="url(#clipPath47)"/><line x1="59" x2="59" y1="30" y2="50" fill="none" clip-path="url(#clipPath47)"/><line x1="59" x2="29" y1="50" y2="50" fill="none" clip-path="url(#clipPath47)"/><polygon stroke="none" points="29 50 41 56 41 44" clip-path="url(#clipPath47)"/><polygon fill="none" points="29 50 41 56 41 44" clip-path="url(#clipPath47)"/></g><g fill="#000" fill-opacity="1" stroke="#000" stroke-linecap="butt" stroke-linejoin="round" stroke-opacity="1" font-family="sans-serif" font-size="11" image-rendering="optimizeQuality" text-rendering="geometricPrecision" transform="translate(581,521)"><line x1="25" x2="581" y1="25" y2="25" fill="none" clip-path="url(#clipPath49)"/><polygon stroke="none" points="581 25 569 19 569 31" clip-path="url(#clipPath49)"/><polygon fill="none" points="581 25 569 19 569 31" clip-path="url(#clipPath49)"/></g><g fill="#000" fill-opacity="1" stroke="#000" stroke-linecap="butt" stroke-linejoin="round" stroke-opacity="1" font-family="sans-serif" font-size="11" image-rendering="optimizeQuality" text-rendering="geometricPrecision" transform="translate(1145,554)"><line x1="25" x2="59" y1="25" y2="25" fill="none" clip-path="url(#clipPath51)"/><line x1="59" x2="59" y1="25" y2="153" fill="none" clip-path="url(#clipPath51)"/><line x1="59" x2="25" y1="153" y2="153" fill="none" clip-path="url(#clipPath51)"/><polygon stroke="none" points="25 153 37 159 37 147" clip-path="url(#clipPath51)"/><polygon fill="none" points="25 153 37 159 37 147" clip-path="url(#clipPath51)"/></g><g fill="#000" fill-opacity="1" stroke="#000" stroke-linecap="butt" stroke-linejoin="round" stroke-opacity="1" font-family="sans-serif" font-size="11" image-rendering="optimizeQuality" text-rendering="geometricPrecision" transform="translate(969,714)"><line x1="193" x2="25" y1="25" y2="25" fill="none" clip-path="url(#clipPath53)"/><polygon stroke="none" points="25 25 37 31 37 19" clip-path="url(#clipPath53)"/><polygon fill="none" points="25 25 37 31 37 19" clip-path="url(#clipPath53)"/></g><g fill="#fff" fill-opacity="1" stroke="#fff" stroke-opacity="1" font-family="sans-serif" font-size="11" image-rendering="optimizeQuality" text-rendering="geometricPrecision" transform="translate(1007,720)"><rect width="137" height="14" x="0" y="0" stroke="none" clip-path="url(#clipPath54)"/><text x="10" y="11" fill="#000" stroke="none" clip-path="url(#clipPath54)" xml:space="preserve">20: Borrar temporales</text></g><g fill="#fff" fill-opacity="1" stroke="#fff" stroke-opacity="1" font-family="sans-serif" font-size="11" image-rendering="optimizeQuality" text-rendering="geometricPrecision" transform="translate(1210,640)"><rect width="97" height="14" x="0" y="0" stroke="none" clip-path="url(#clipPath16)"/><text x="10" y="11" fill="#000" stroke="none" clip-path="url(#clipPath16)" xml:space="preserve">18: Esperando</text></g><g fill="#fff" fill-opacity="1" stroke="#fff" stroke-opacity="1" font-family="sans-serif" font-size="11" image-rendering="optimizeQuality" text-rendering="geometricPrecision" transform="translate(817,527)"><rect width="135" height="14" x="0" y="0" stroke="none" clip-path="url(#clipPath55)"/><text x="9" y="11" fill="#000" stroke="none" clip-path="url(#clipPath55)" xml:space="preserve">14: Inicializar cleaner</text></g><g fill="#fff" fill-opacity="1" stroke="#fff" stroke-opacity="1" font-family="sans-serif" font-size="11" image-rendering="optimizeQuality" text-rendering="geometricPrecision" transform="translate(453,716)"><rect width="116" height="14" x="0" y="0" stroke="none" clip-path="url(#clipPath56)"/><text x="10" y="11" fill="#000" stroke="none" clip-path="url(#clipPath56)" xml:space="preserve">19: Crear grficos</text></g><g fill="#fff" fill-opacity="1" stroke="#fff" stroke-opacity="1" font-family="sans-serif" font-size="11" image-rendering="optimizeQuality" text-rendering="geometricPrecision" transform="translate(609,671)"><rect width="175" height="15" x="0" y="0" stroke="none" clip-path="url(#clipPath57)"/><text x="10" y="11" fill="#000" stroke="none" clip-path="url(#clipPath57)" xml:space="preserve">17: CSVs y JSONs temporales</text></g><g fill="#fff" fill-opacity="1" stroke="#fff" stroke-opacity="1" font-family="sans-serif" font-size="11" image-rendering="optimizeQuality" text-rendering="geometricPrecision" transform="translate(624,616)"><rect width="145" height="15" x="0" y="0" stroke="none" clip-path="url(#clipPath58)"/><text x="10" y="11" fill="#000" stroke="none" clip-path="url(#clipPath58)" xml:space="preserve">16: Parsear temporales</text></g><g fill="#fff" fill-opacity="1" stroke="#fff" stroke-opacity="1" font-family="sans-serif" font-size="11" image-rendering="optimizeQuality" text-rendering="geometricPrecision" transform="translate(412,583)"><rect width="182" height="15" x="0" y="0" stroke="none" clip-path="url(#clipPath59)"/><text x="10" y="11" fill="#000" stroke="none" clip-path="url(#clipPath59)" xml:space="preserve">15: Pgina HTML + cards data</text></g><g fill="#fff" fill-opacity="1" stroke="#fff" stroke-opacity="1" font-family="sans-serif" font-size="11" image-rendering="optimizeQuality" text-rendering="geometricPrecision" transform="translate(639,489)"><rect width="147" height="14" x="0" y="0" stroke="none" clip-path="url(#clipPath60)"/><text x="10" y="11" fill="#000" stroke="none" clip-path="url(#clipPath60)" xml:space="preserve">13: Guardar temporales</text></g><g fill="#fff" fill-opacity="1" stroke="#fff" stroke-opacity="1" font-family="sans-serif" font-size="11" image-rendering="optimizeQuality" text-rendering="geometricPrecision" transform="translate(460,131)"><rect width="116" height="15" x="0" y="0" stroke="none" clip-path="url(#clipPath61)"/><text x="9" y="11" fill="#000" stroke="none" clip-path="url(#clipPath61)" xml:space="preserve">3: Loading Screen</text></g><g fill="#fff" fill-opacity="1" stroke="#fff" stroke-opacity="1" font-family="sans-serif" font-size="11" image-rendering="optimizeQuality" text-rendering="geometricPrecision" transform="translate(644,458)"><rect width="150" height="20" x="0" y="0" stroke="none" clip-path="url(#clipPath62)"/><text x="5" y="14" fill="#000" stroke="none" clip-path="url(#clipPath62)" xml:space="preserve">12: Anlisis Experimentos</text></g><g fill="#fff" fill-opacity="1" stroke="#fff" stroke-opacity="1" font-family="sans-serif" font-size="11" image-rendering="optimizeQuality" text-rendering="geometricPrecision" transform="translate(620,403)"><rect width="163" height="15" x="0" y="0" stroke="none" clip-path="url(#clipPath63)"/><text x="10" y="11" fill="#000" stroke="none" clip-path="url(#clipPath63)" xml:space="preserve">11: Experimentos en la BD</text></g><g fill="#fff" fill-opacity="1" stroke="#fff" stroke-opacity="1" font-family="sans-serif" font-size="11" image-rendering="optimizeQuality" text-rendering="geometricPrecision" transform="translate(626,362)"><rect width="150" height="15" x="0" y="0" stroke="none" clip-path="url(#clipPath64)"/><text x="9" y="11" fill="#000" stroke="none" clip-path="url(#clipPath64)" xml:space="preserve">10: Query Experimentos</text></g><g fill="#fff" fill-opacity="1" stroke="#fff" stroke-opacity="1" font-family="sans-serif" font-size="11" image-rendering="optimizeQuality" text-rendering="geometricPrecision" transform="translate(642,324)"><rect width="154" height="14" x="0" y="0" stroke="none" clip-path="url(#clipPath65)"/><text x="9" y="11" fill="#000" stroke="none" clip-path="url(#clipPath65)" xml:space="preserve">9: Anlisis Usuario - Pas</text></g><g fill="#fff" fill-opacity="1" stroke="#fff" stroke-opacity="1" font-family="sans-serif" font-size="11" image-rendering="optimizeQuality" text-rendering="geometricPrecision" transform="translate(634,267)"><rect width="133" height="16" x="0" y="0" stroke="none" clip-path="url(#clipPath66)"/><text x="10" y="12" fill="#000" stroke="none" clip-path="url(#clipPath66)" xml:space="preserve">8: Pases de Usuarios</text></g><g fill="#fff" fill-opacity="1" stroke="#fff" stroke-opacity="1" font-family="sans-serif" font-size="11" image-rendering="optimizeQuality" text-rendering="geometricPrecision" transform="translate(650,239)"><rect width="102" height="15" x="0" y="0" stroke="none" clip-path="url(#clipPath67)"/><text x="10" y="11" fill="#000" stroke="none" clip-path="url(#clipPath67)" xml:space="preserve">7: Query Pases</text></g><g fill="#fff" fill-opacity="1" stroke="#fff" stroke-opacity="1" font-family="sans-serif" font-size="11" image-rendering="optimizeQuality" text-rendering="geometricPrecision" transform="translate(646,210)"><rect width="125" height="14" x="0" y="0" stroke="none" clip-path="url(#clipPath68)"/><text x="10" y="11" fill="#000" stroke="none" clip-path="url(#clipPath68)" xml:space="preserve">6: Anlisis Usuarios</text></g><g fill="#fff" fill-opacity="1" stroke="#fff" stroke-opacity="1" font-family="sans-serif" font-size="11" image-rendering="optimizeQuality" text-rendering="geometricPrecision" transform="translate(636,169)"><rect width="129" height="15" x="0" y="0" stroke="none" clip-path="url(#clipPath69)"/><text x="10" y="11" fill="#000" stroke="none" clip-path="url(#clipPath69)" xml:space="preserve">5: Usuarios en la BD</text></g><g fill="#fff" fill-opacity="1" stroke="#fff" stroke-opacity="1" font-family="sans-serif" font-size="11" image-rendering="optimizeQuality" text-rendering="geometricPrecision" transform="translate(642,135)"><rect width="116" height="15" x="0" y="0" stroke="none" clip-path="url(#clipPath61)"/><text x="9" y="11" fill="#000" stroke="none" clip-path="url(#clipPath61)" xml:space="preserve">4: Query Usuarios</text></g><g fill="#fff" fill-opacity="1" stroke="#fff" stroke-opacity="1" font-family="sans-serif" font-size="11" image-rendering="optimizeQuality" text-rendering="geometricPrecision" transform="translate(416,87)"><rect width="169" height="14" x="0" y="0" stroke="none" clip-path="url(#clipPath70)"/><text x="9" y="11" fill="#000" stroke="none" clip-path="url(#clipPath70)" xml:space="preserve">2: Solicitud de visualizacin</text></g><g fill="#fff" fill-opacity="1" stroke="#fff" stroke-opacity="1" font-family="sans-serif" font-size="11" image-rendering="optimizeQuality" text-rendering="geometricPrecision" transform="translate(264,64)"><rect width="123" height="15" x="0" y="0" stroke="none" clip-path="url(#clipPath71)"/><text x="10" y="11" fill="#000" stroke="none" clip-path="url(#clipPath71)" xml:space="preserve">1: Click Dashboard</text></g></g></svg>