<svg xmlns="http://www.w3.org/2000/svg" xmlns:xlink="http://www.w3.org/1999/xlink" width="1467" height="627" fill="#000" fill-opacity="0" stroke="#000" stroke-dasharray="none" stroke-dashoffset="0" stroke-linecap="square" stroke-linejoin="miter" stroke-miterlimit="10" stroke-opacity="0" stroke-width="1" color-interpolation="auto" color-rendering="auto" font-family="'Dialog'" font-size="12" font-style="normal" font-weight="normal" image-rendering="auto" shape-rendering="auto" text-rendering="auto"><g><defs id="defs1"><clipPath id="clipPath1" clipPathUnits="userSpaceOnUse"><path d="M-7 -7 L71 -7 L71 632 L-7 632 L-7 -7 Z"/></clipPath><clipPath id="clipPath2" clipPathUnits="userSpaceOnUse"><path d="M-7 -7 L94 -7 L94 632 L-7 632 L-7 -7 Z"/></clipPath><clipPath id="clipPath3" clipPathUnits="userSpaceOnUse"><path d="M-7 -7 L19 -7 L19 480 L-7 480 L-7 -7 Z"/></clipPath><clipPath id="clipPath4" clipPathUnits="userSpaceOnUse"><path d="M-7 -7 L160 -7 L160 632 L-7 632 L-7 -7 Z"/></clipPath><clipPath id="clipPath5" clipPathUnits="userSpaceOnUse"><path d="M-7 -7 L19 -7 L19 440 L-7 440 L-7 -7 Z"/></clipPath><clipPath id="clipPath6" clipPathUnits="userSpaceOnUse"><path d="M-7 -7 L134 -7 L134 411 L-7 411 L-7 -7 Z"/></clipPath><clipPath id="clipPath7" clipPathUnits="userSpaceOnUse"><path d="M-7 -7 L19 -7 L19 114 L-7 114 L-7 -7 Z"/></clipPath><clipPath id="clipPath8" clipPathUnits="userSpaceOnUse"><path d="M-7 -7 L81 -7 L81 632 L-7 632 L-7 -7 Z"/></clipPath><clipPath id="clipPath9" clipPathUnits="userSpaceOnUse"><path d="M-7 -7 L19 -7 L19 23 L-7 23 L-7 -7 Z"/></clipPath><clipPath id="clipPath10" clipPathUnits="userSpaceOnUse"><path d="M-7 -7 L106 -7 L106 632 L-7 632 L-7 -7 Z"/></clipPath><clipPath id="clipPath11" clipPathUnits="userSpaceOnUse"><path d="M-7 -7 L97 -7 L97 632 L-7 632 L-7 -7 Z"/></clipPath><clipPath id="clipPath12" clipPathUnits="userSpaceOnUse"><path d="M-61 -14 L122 -14 L122 28 L-61 28 L-61 -14 Z"/></clipPath><clipPath id="clipPath13" clipPathUnits="userSpaceOnUse"><path d="M-83 -14 L166 -14 L166 28 L-83 28 L-83 -14 Z"/></clipPath><clipPath id="clipPath14" clipPathUnits="userSpaceOnUse"><path d="M-149 -14 L298 -14 L298 28 L-149 28 L-149 -14 Z"/></clipPath><clipPath id="clipPath15" clipPathUnits="userSpaceOnUse"><path d="M-123 -14 L246 -14 L246 28 L-123 28 L-123 -14 Z"/></clipPath><clipPath id="clipPath16" clipPathUnits="userSpaceOnUse"><path d="M-70 -14 L140 -14 L140 28 L-70 28 L-70 -14 Z"/></clipPath><clipPath id="clipPath17" clipPathUnits="userSpaceOnUse"><path d="M-95 -14 L190 -14 L190 28 L-95 28 L-95 -14 Z"/></clipPath><clipPath id="clipPath18" clipPathUnits="userSpaceOnUse"><path d="M-86 -14 L172 -14 L172 28 L-86 28 L-86 -14 Z"/></clipPath><clipPath id="clipPath19" clipPathUnits="userSpaceOnUse"><path d="M0 0 L271 0 L271 80 L0 80 L0 0 Z"/></clipPath><clipPath id="clipPath20" clipPathUnits="userSpaceOnUse"><path d="M181 17 L181 31 L83 31 L83 17 ZM0 0 L0 80 L56 80 L56 69 L223 69 L223 80 L257 80 L257 73 L271 73 L271 0 Z"/></clipPath><clipPath id="clipPath21" clipPathUnits="userSpaceOnUse"><path d="M0 0 L317 0 L317 80 L0 80 L0 0 Z"/></clipPath><clipPath id="clipPath22" clipPathUnits="userSpaceOnUse"><path d="M252 17 L252 31 L58 31 L58 17 ZM0 0 L0 13 L24 13 L24 27 L0 27 L0 80 L317 80 L317 0 Z"/></clipPath><clipPath id="clipPath23" clipPathUnits="userSpaceOnUse"><path d="M0 0 L110 0 L110 100 L0 100 L0 0 Z"/></clipPath><clipPath id="clipPath24" clipPathUnits="userSpaceOnUse"><path d="M0 0 L0 15 L8 15 L8 29 L0 29 L0 100 L110 100 L110 56 L83 56 L83 42 L110 42 L110 0 Z"/></clipPath><clipPath id="clipPath25" clipPathUnits="userSpaceOnUse"><path d="M0 0 L389 0 L389 80 L0 80 L0 0 Z"/></clipPath><clipPath id="clipPath26" clipPathUnits="userSpaceOnUse"><path d="M280 18 L280 32 L100 32 L100 18 ZM275 58 L275 72 L107 72 L107 58 ZM0 0 L0 80 L389 80 L389 0 Z"/></clipPath><clipPath id="clipPath27" clipPathUnits="userSpaceOnUse"><path d="M0 0 L294 0 L294 134 L0 134 L0 0 Z"/></clipPath><clipPath id="clipPath28" clipPathUnits="userSpaceOnUse"><path d="M192 28 L192 42 L94 42 L94 28 ZM234 80 L234 94 L67 94 L67 80 ZM0 0 L0 134 L294 134 L294 98 L268 98 L268 84 L294 84 L294 0 Z"/></clipPath><clipPath id="clipPath29" clipPathUnits="userSpaceOnUse"><path d="M275 16 L275 30 L107 30 L107 16 ZM0 0 L0 80 L389 80 L389 0 Z"/></clipPath><clipPath id="clipPath30" clipPathUnits="userSpaceOnUse"><path d="M0 0 L820 0 L820 80 L0 80 L0 0 Z"/></clipPath><clipPath id="clipPath31" clipPathUnits="userSpaceOnUse"><path d="M546 17 L546 31 L381 31 L381 17 ZM0 0 L0 80 L820 80 L820 0 Z"/></clipPath><clipPath id="clipPath32" clipPathUnits="userSpaceOnUse"><path d="M0 0 L617 0 L617 80 L0 80 L0 0 Z"/></clipPath><clipPath id="clipPath33" clipPathUnits="userSpaceOnUse"><path d="M333 17 L333 31 L159 31 L159 17 ZM0 0 L0 80 L100 80 L100 70 L280 70 L280 80 L617 80 L617 0 Z"/></clipPath><clipPath id="clipPath34" clipPathUnits="userSpaceOnUse"><path d="M430 20 L430 34 L186 34 L186 20 ZM0 0 L0 80 L381 80 L381 70 L546 70 L546 80 L617 80 L617 0 Z"/></clipPath><clipPath id="clipPath35" clipPathUnits="userSpaceOnUse"><path d="M0 0 L1018 0 L1018 80 L0 80 L0 0 Z"/></clipPath><clipPath id="clipPath36" clipPathUnits="userSpaceOnUse"><path d="M657 18 L657 32 L356 32 L356 18 ZM0 0 L0 80 L1018 80 L1018 0 Z"/></clipPath><clipPath id="clipPath37" clipPathUnits="userSpaceOnUse"><path d="M-301 -14 L602 -14 L602 28 L-301 28 L-301 -14 Z"/></clipPath><clipPath id="clipPath38" clipPathUnits="userSpaceOnUse"><path d="M-244 -14 L488 -14 L488 28 L-244 28 L-244 -14 Z"/></clipPath><clipPath id="clipPath39" clipPathUnits="userSpaceOnUse"><path d="M-174 -14 L348 -14 L348 28 L-174 28 L-174 -14 Z"/></clipPath><clipPath id="clipPath40" clipPathUnits="userSpaceOnUse"><path d="M-165 -14 L330 -14 L330 28 L-165 28 L-165 -14 Z"/></clipPath><clipPath id="clipPath41" clipPathUnits="userSpaceOnUse"><path d="M-168 -14 L336 -14 L336 28 L-168 28 L-168 -14 Z"/></clipPath><clipPath id="clipPath42" clipPathUnits="userSpaceOnUse"><path d="M-167 -14 L334 -14 L334 28 L-167 28 L-167 -14 Z"/></clipPath><clipPath id="clipPath43" clipPathUnits="userSpaceOnUse"><path d="M-180 -14 L360 -14 L360 28 L-180 28 L-180 -14 Z"/></clipPath><clipPath id="clipPath44" clipPathUnits="userSpaceOnUse"><path d="M-200 -14 L400 -14 L400 28 L-200 28 L-200 -14 Z"/></clipPath><clipPath id="clipPath45" clipPathUnits="userSpaceOnUse"><path d="M-194 -14 L388 -14 L388 28 L-194 28 L-194 -14 Z"/></clipPath><clipPath id="clipPath46" clipPathUnits="userSpaceOnUse"><path d="M-98 -14 L196 -14 L196 28 L-98 28 L-98 -14 Z"/></clipPath></defs><g fill="#fff" fill-opacity="1" stroke="#fff" stroke-opacity="1" text-rendering="geometricPrecision"><rect width="1467" height="627" x="0" y="0" stroke="none"/></g><g fill="#7ACFF5" fill-opacity="1" stroke="#7ACFF5" stroke-opacity="1" font-family="sans-serif" font-size="11" image-rendering="optimizeQuality" text-rendering="geometricPrecision" transform="translate(2,2)"><circle cx="30" cy="5" r="5" stroke="none" clip-path="url(#clipPath1)"/><rect width="8" height="571" x="26" y="49" stroke="none" clip-path="url(#clipPath1)"/></g><g fill="#000" fill-opacity="1" stroke="#000" stroke-linecap="butt" stroke-linejoin="round" stroke-miterlimit="0" stroke-opacity="1" font-family="sans-serif" font-size="11" image-rendering="optimizeQuality" text-rendering="geometricPrecision" transform="translate(2,2)"><circle cx="30" cy="5" r="5" fill="none" clip-path="url(#clipPath1)"/><rect width="8" height="571" x="26" y="49" fill="none" clip-path="url(#clipPath1)"/><line x1="30" x2="30" y1="10" y2="25" fill="none" clip-path="url(#clipPath1)"/><line x1="30" x2="21" y1="25" y2="36" fill="none" clip-path="url(#clipPath1)"/><line x1="30" x2="39" y1="25" y2="36" fill="none" clip-path="url(#clipPath1)"/><line x1="21" x2="39" y1="16" y2="16" fill="none" clip-path="url(#clipPath1)"/></g><g fill="#7ACFF5" fill-opacity="1" stroke="#7ACFF5" stroke-opacity="1" font-family="sans-serif" font-size="11" image-rendering="optimizeQuality" text-rendering="geometricPrecision" transform="translate(189,2)"><rect width="82" height="35" x="0" y="0" stroke="none" clip-path="url(#clipPath2)"/></g><g fill="#000" fill-opacity="1" stroke="#000" stroke-linecap="butt" stroke-linejoin="round" stroke-miterlimit="0" stroke-opacity="1" font-family="sans-serif" font-size="11" image-rendering="optimizeQuality" text-rendering="geometricPrecision" transform="translate(189,2)"><rect width="82" height="35" x="0" y="0" fill="none" clip-path="url(#clipPath2)"/><line x1="41" x2="41" y1="35" y2="621" fill="none" stroke-dasharray="8 3" stroke-linejoin="bevel" clip-path="url(#clipPath2)"/></g><g fill="#7ACFF5" fill-opacity="1" stroke="#7ACFF5" stroke-opacity="1" font-family="sans-serif" font-size="11" image-rendering="optimizeQuality" text-rendering="geometricPrecision" transform="translate(226,134)"><rect width="8" height="469" x="0" y="0" stroke="none" clip-path="url(#clipPath3)"/></g><g fill="#000" fill-opacity="1" stroke="#000" stroke-linecap="butt" stroke-linejoin="round" stroke-miterlimit="0" stroke-opacity="1" font-family="sans-serif" font-size="11" image-rendering="optimizeQuality" text-rendering="geometricPrecision" transform="translate(226,134)"><rect width="8" height="469" x="0" y="0" fill="none" clip-path="url(#clipPath3)"/></g><g fill="#7ACFF5" fill-opacity="1" stroke="#7ACFF5" stroke-opacity="1" font-family="sans-serif" font-size="11" image-rendering="optimizeQuality" text-rendering="geometricPrecision" transform="translate(400,2)"><rect width="148" height="35" x="0" y="0" stroke="none" clip-path="url(#clipPath4)"/></g><g fill="#000" fill-opacity="1" stroke="#000" stroke-linecap="butt" stroke-linejoin="round" stroke-miterlimit="0" stroke-opacity="1" font-family="sans-serif" font-size="11" image-rendering="optimizeQuality" text-rendering="geometricPrecision" transform="translate(400,2)"><rect width="148" height="35" x="0" y="0" fill="none" clip-path="url(#clipPath4)"/><line x1="74" x2="74" y1="35" y2="621" fill="none" stroke-dasharray="8 3" stroke-linejoin="bevel" clip-path="url(#clipPath4)"/></g><g fill="#7ACFF5" fill-opacity="1" stroke="#7ACFF5" stroke-opacity="1" font-family="sans-serif" font-size="11" image-rendering="optimizeQuality" text-rendering="geometricPrecision" transform="translate(470,173)"><rect width="8" height="429" x="0" y="0" stroke="none" clip-path="url(#clipPath5)"/></g><g fill="#000" fill-opacity="1" stroke="#000" stroke-linecap="butt" stroke-linejoin="round" stroke-miterlimit="0" stroke-opacity="1" font-family="sans-serif" font-size="11" image-rendering="optimizeQuality" text-rendering="geometricPrecision" transform="translate(470,173)"><rect width="8" height="429" x="0" y="0" fill="none" clip-path="url(#clipPath5)"/></g><g fill="#7ACFF5" fill-opacity="1" stroke="#7ACFF5" stroke-opacity="1" font-family="sans-serif" font-size="11" image-rendering="optimizeQuality" text-rendering="geometricPrecision" transform="translate(729,2)"><rect width="122" height="35" x="0" y="0" stroke="none" clip-path="url(#clipPath6)"/></g><g fill="#000" fill-opacity="1" stroke="#000" stroke-linecap="butt" stroke-linejoin="round" stroke-miterlimit="0" stroke-opacity="1" font-family="sans-serif" font-size="11" image-rendering="optimizeQuality" text-rendering="geometricPrecision" transform="translate(729,2)"><line x1="52" x2="70" y1="382" y2="400" fill="none" clip-path="url(#clipPath6)"/><line x1="52" x2="70" y1="400" y2="382" fill="none" clip-path="url(#clipPath6)"/><rect width="122" height="35" x="0" y="0" fill="none" clip-path="url(#clipPath6)"/><line x1="61" x2="61" y1="35" y2="391" fill="none" stroke-dasharray="8 3" stroke-linejoin="bevel" clip-path="url(#clipPath6)"/></g><g fill="#7ACFF5" fill-opacity="1" stroke="#7ACFF5" stroke-opacity="1" font-family="sans-serif" font-size="11" image-rendering="optimizeQuality" text-rendering="geometricPrecision" transform="translate(787,258)"><rect width="8" height="103" x="0" y="0" stroke="none" clip-path="url(#clipPath7)"/></g><g fill="#000" fill-opacity="1" stroke="#000" stroke-linecap="butt" stroke-linejoin="round" stroke-miterlimit="0" stroke-opacity="1" font-family="sans-serif" font-size="11" image-rendering="optimizeQuality" text-rendering="geometricPrecision" transform="translate(787,258)"><rect width="8" height="103" x="0" y="0" fill="none" clip-path="url(#clipPath7)"/></g><g fill="#7ACFF5" fill-opacity="1" stroke="#7ACFF5" stroke-opacity="1" font-family="sans-serif" font-size="11" image-rendering="optimizeQuality" text-rendering="geometricPrecision" transform="translate(1187,2)"><rect width="69" height="35" x="0" y="0" stroke="none" clip-path="url(#clipPath8)"/></g><g fill="#000" fill-opacity="1" stroke="#000" stroke-linecap="butt" stroke-linejoin="round" stroke-miterlimit="0" stroke-opacity="1" font-family="sans-serif" font-size="11" image-rendering="optimizeQuality" text-rendering="geometricPrecision" transform="translate(1187,2)"><rect width="69" height="35" x="0" y="0" fill="none" clip-path="url(#clipPath8)"/><line x1="34" x2="34" y1="35" y2="621" fill="none" stroke-dasharray="8 3" stroke-linejoin="bevel" clip-path="url(#clipPath8)"/></g><g fill="#7ACFF5" fill-opacity="1" stroke="#7ACFF5" stroke-opacity="1" font-family="sans-serif" font-size="11" image-rendering="optimizeQuality" text-rendering="geometricPrecision" transform="translate(1218,498)"><rect width="8" height="12" x="0" y="0" stroke="none" clip-path="url(#clipPath9)"/></g><g fill="#000" fill-opacity="1" stroke="#000" stroke-linecap="butt" stroke-linejoin="round" stroke-miterlimit="0" stroke-opacity="1" font-family="sans-serif" font-size="11" image-rendering="optimizeQuality" text-rendering="geometricPrecision" transform="translate(1218,498)"><rect width="8" height="12" x="0" y="0" fill="none" clip-path="url(#clipPath9)"/></g><g fill="#7ACFF5" fill-opacity="1" stroke="#7ACFF5" stroke-opacity="1" font-family="sans-serif" font-size="11" image-rendering="optimizeQuality" text-rendering="geometricPrecision" transform="translate(971,2)"><rect width="94" height="35" x="0" y="0" stroke="none" clip-path="url(#clipPath10)"/></g><g fill="#000" fill-opacity="1" stroke="#000" stroke-linecap="butt" stroke-linejoin="round" stroke-miterlimit="0" stroke-opacity="1" font-family="sans-serif" font-size="11" image-rendering="optimizeQuality" text-rendering="geometricPrecision" transform="translate(971,2)"><rect width="94" height="35" x="0" y="0" fill="none" clip-path="url(#clipPath10)"/><line x1="47" x2="47" y1="35" y2="621" fill="none" stroke-dasharray="8 3" stroke-linejoin="bevel" clip-path="url(#clipPath10)"/></g><g fill="#7ACFF5" fill-opacity="1" stroke="#7ACFF5" stroke-opacity="1" font-family="sans-serif" font-size="11" image-rendering="optimizeQuality" text-rendering="geometricPrecision" transform="translate(1015,248)"><rect width="8" height="12" x="0" y="0" stroke="none" clip-path="url(#clipPath9)"/></g><g fill="#000" fill-opacity="1" stroke="#000" stroke-linecap="butt" stroke-linejoin="round" stroke-miterlimit="0" stroke-opacity="1" font-family="sans-serif" font-size="11" image-rendering="optimizeQuality" text-rendering="geometricPrecision" transform="translate(1015,248)"><rect width="8" height="12" x="0" y="0" fill="none" clip-path="url(#clipPath9)"/></g><g fill="#7ACFF5" fill-opacity="1" stroke="#7ACFF5" stroke-opacity="1" font-family="sans-serif" font-size="11" image-rendering="optimizeQuality" text-rendering="geometricPrecision" transform="translate(1015,445)"><rect width="8" height="12" x="0" y="0" stroke="none" clip-path="url(#clipPath9)"/></g><g fill="#000" fill-opacity="1" stroke="#000" stroke-linecap="butt" stroke-linejoin="round" stroke-miterlimit="0" stroke-opacity="1" font-family="sans-serif" font-size="11" image-rendering="optimizeQuality" text-rendering="geometricPrecision" transform="translate(1015,445)"><rect width="8" height="12" x="0" y="0" fill="none" clip-path="url(#clipPath9)"/></g><g fill="#7ACFF5" fill-opacity="1" stroke="#7ACFF5" stroke-opacity="1" font-family="sans-serif" font-size="11" image-rendering="optimizeQuality" text-rendering="geometricPrecision" transform="translate(1377,2)"><rect width="85" height="35" x="0" y="0" stroke="none" clip-path="url(#clipPath11)"/></g><g fill="#000" fill-opacity="1" stroke="#000" stroke-linecap="butt" stroke-linejoin="round" stroke-miterlimit="0" stroke-opacity="1" font-family="sans-serif" font-size="11" image-rendering="optimizeQuality" text-rendering="geometricPrecision" transform="translate(1377,2)"><rect width="85" height="35" x="0" y="0" fill="none" clip-path="url(#clipPath11)"/><line x1="42" x2="42" y1="35" y2="621" fill="none" stroke-dasharray="8 3" stroke-linejoin="bevel" clip-path="url(#clipPath11)"/></g><g fill="#7ACFF5" fill-opacity="1" stroke="#7ACFF5" stroke-opacity="1" font-family="sans-serif" font-size="11" image-rendering="optimizeQuality" text-rendering="geometricPrecision" transform="translate(1416,589)"><rect width="8" height="12" x="0" y="0" stroke="none" clip-path="url(#clipPath9)"/></g><g fill="#000" fill-opacity="1" stroke="#000" stroke-linecap="butt" stroke-linejoin="round" stroke-miterlimit="0" stroke-opacity="1" font-family="sans-serif" font-size="11" image-rendering="optimizeQuality" text-rendering="geometricPrecision" transform="translate(1416,589)"><rect width="8" height="12" x="0" y="0" fill="none" clip-path="url(#clipPath9)"/></g><g fill="#000" fill-opacity="1" stroke="#000" stroke-opacity="1" font-family="sans-serif" font-size="11" image-rendering="optimizeQuality" text-rendering="geometricPrecision"><text x="10" y="11" stroke="none" clip-path="url(#clipPath12)" transform="translate(2,37)" xml:space="preserve">Usuario</text></g><g fill="#000" fill-opacity="1" stroke="#000" stroke-opacity="1" font-family="sans-serif" font-size="11" image-rendering="optimizeQuality" text-rendering="geometricPrecision"><text x="10" y="11" stroke="none" clip-path="url(#clipPath13)" transform="translate(189,2)" xml:space="preserve">Window : UI</text></g><g fill="#000" fill-opacity="1" stroke="#000" stroke-opacity="1" font-family="sans-serif" font-size="11" image-rendering="optimizeQuality" text-rendering="geometricPrecision"><text x="9" y="11" stroke="none" clip-path="url(#clipPath14)" transform="translate(400,2)" xml:space="preserve">Controlador del sistema</text></g><g fill="#000" fill-opacity="1" stroke="#000" stroke-opacity="1" font-family="sans-serif" font-size="11" image-rendering="optimizeQuality" text-rendering="geometricPrecision"><text x="11" y="11" stroke="none" clip-path="url(#clipPath15)" transform="translate(729,2)" xml:space="preserve">Colas de ejecución</text></g><g fill="#000" fill-opacity="1" stroke="#000" stroke-opacity="1" font-family="sans-serif" font-size="11" image-rendering="optimizeQuality" text-rendering="geometricPrecision"><text x="14" y="11" stroke="none" clip-path="url(#clipPath16)" transform="translate(1187,2)" xml:space="preserve">File I/O</text></g><g fill="#000" fill-opacity="1" stroke="#000" stroke-opacity="1" font-family="sans-serif" font-size="11" image-rendering="optimizeQuality" text-rendering="geometricPrecision"><text x="10" y="11" stroke="none" clip-path="url(#clipPath17)" transform="translate(971,2)" xml:space="preserve">Base de Datos</text></g><g fill="#000" fill-opacity="1" stroke="#000" stroke-opacity="1" font-family="sans-serif" font-size="11" image-rendering="optimizeQuality" text-rendering="geometricPrecision"><text x="9" y="11" stroke="none" clip-path="url(#clipPath18)" transform="translate(1377,2)" xml:space="preserve">IMAP Service</text></g><g fill="#000" fill-opacity="1" stroke="#000" stroke-linecap="butt" stroke-linejoin="round" stroke-opacity="1" font-family="sans-serif" font-size="11" image-rendering="optimizeQuality" text-rendering="geometricPrecision" transform="translate(-3,95)"><line x1="39" x2="230" y1="39" y2="39" fill="none" clip-path="url(#clipPath20)"/><polygon stroke="none" points="230 39 218 33 218 45" clip-path="url(#clipPath20)"/><polygon fill="none" points="230 39 218 33 218 45" clip-path="url(#clipPath20)"/></g><g fill="#000" fill-opacity="1" stroke="#000" stroke-linecap="butt" stroke-linejoin="round" stroke-opacity="1" font-family="sans-serif" font-size="11" image-rendering="optimizeQuality" text-rendering="geometricPrecision" transform="translate(196,151)"><line x1="38" x2="274" y1="38" y2="38" fill="none" clip-path="url(#clipPath22)"/><polygon stroke="none" points="274 38 262 32 262 44" clip-path="url(#clipPath22)"/><polygon fill="none" points="274 38 262 32 262 44" clip-path="url(#clipPath22)"/></g><g fill="#000" fill-opacity="1" stroke="#000" stroke-linecap="butt" stroke-linejoin="round" stroke-opacity="1" font-family="sans-serif" font-size="11" image-rendering="optimizeQuality" text-rendering="geometricPrecision" transform="translate(440,153)"><line x1="38" x2="68" y1="39" y2="39" fill="none" clip-path="url(#clipPath24)"/><line x1="68" x2="68" y1="39" y2="59" fill="none" clip-path="url(#clipPath24)"/><line x1="68" x2="38" y1="59" y2="59" fill="none" clip-path="url(#clipPath24)"/><polygon stroke="none" points="38 59 50 65 50 53" clip-path="url(#clipPath24)"/><polygon fill="none" points="38 59 50 65 50 53" clip-path="url(#clipPath24)"/></g><g fill="#000" fill-opacity="1" stroke="#000" stroke-linecap="butt" stroke-linejoin="round" stroke-opacity="1" font-family="sans-serif" font-size="11" image-rendering="optimizeQuality" text-rendering="geometricPrecision" transform="translate(440,262)"><line x1="38" x2="347" y1="38" y2="38" fill="none" clip-path="url(#clipPath26)"/><polygon stroke="none" points="347 38 335 32 335 44" clip-path="url(#clipPath26)"/><polygon fill="none" points="347 38 335 32 335 44" clip-path="url(#clipPath26)"/></g><g fill="#000" fill-opacity="1" stroke="#000" stroke-linecap="butt" stroke-linejoin="round" stroke-opacity="1" font-family="sans-serif" font-size="11" image-rendering="optimizeQuality" text-rendering="geometricPrecision" transform="translate(-14,84)"><line x1="240" x2="50" y1="50" y2="80" fill="none" clip-path="url(#clipPath28)"/><line x1="50" x2="61" y1="80" y2="84" fill="none" clip-path="url(#clipPath28)"/><line x1="50" x2="60" y1="80" y2="72" fill="none" clip-path="url(#clipPath28)"/></g><g fill="#000" fill-opacity="1" stroke="#000" stroke-linecap="butt" stroke-linejoin="round" stroke-opacity="1" font-family="sans-serif" font-size="11" image-rendering="optimizeQuality" text-rendering="geometricPrecision" transform="translate(440,304)"><line x1="347" x2="38" y1="38" y2="38" fill="none" clip-path="url(#clipPath29)"/><polygon stroke="none" points="38 38 50 44 50 32" clip-path="url(#clipPath29)"/><polygon fill="none" points="38 38 50 44 50 32" clip-path="url(#clipPath29)"/></g><g fill="#000" fill-opacity="1" stroke="#000" stroke-linecap="butt" stroke-linejoin="round" stroke-opacity="1" font-family="sans-serif" font-size="11" image-rendering="optimizeQuality" text-rendering="geometricPrecision" transform="translate(440,459)"><line x1="38" x2="778" y1="39" y2="39" fill="none" clip-path="url(#clipPath31)"/><polygon stroke="none" points="778 39 766 33 766 45" clip-path="url(#clipPath31)"/><polygon fill="none" points="778 39 766 33 766 45" clip-path="url(#clipPath31)"/></g><g fill="#000" fill-opacity="1" stroke="#000" stroke-linecap="butt" stroke-linejoin="round" stroke-opacity="1" font-family="sans-serif" font-size="11" image-rendering="optimizeQuality" text-rendering="geometricPrecision" transform="translate(440,210)"><line x1="38" x2="575" y1="38" y2="38" fill="none" clip-path="url(#clipPath33)"/><polygon stroke="none" points="575 38 563 32 563 44" clip-path="url(#clipPath33)"/><polygon fill="none" points="575 38 563 32 563 44" clip-path="url(#clipPath33)"/></g><g fill="#000" fill-opacity="1" stroke="#000" stroke-linecap="butt" stroke-linejoin="round" stroke-opacity="1" font-family="sans-serif" font-size="11" image-rendering="optimizeQuality" text-rendering="geometricPrecision" transform="translate(440,406)"><line x1="38" x2="575" y1="39" y2="39" fill="none" clip-path="url(#clipPath34)"/><polygon stroke="none" points="575 39 563 33 563 45" clip-path="url(#clipPath34)"/><polygon fill="none" points="575 39 563 33 563 45" clip-path="url(#clipPath34)"/></g><g fill="#000" fill-opacity="1" stroke="#000" stroke-linecap="butt" stroke-linejoin="round" stroke-opacity="1" font-family="sans-serif" font-size="11" image-rendering="optimizeQuality" text-rendering="geometricPrecision" transform="translate(440,551)"><line x1="38" x2="976" y1="38" y2="38" fill="none" clip-path="url(#clipPath36)"/><polygon stroke="none" points="976 38 964 32 964 44" clip-path="url(#clipPath36)"/><polygon fill="none" points="976 38 964 32 964 44" clip-path="url(#clipPath36)"/></g><g fill="#fff" fill-opacity="1" stroke="#fff" stroke-opacity="1" font-family="sans-serif" font-size="11" image-rendering="optimizeQuality" text-rendering="geometricPrecision" transform="translate(796,569)"><rect width="301" height="14" x="0" y="0" stroke="none" clip-path="url(#clipPath37)"/><text x="10" y="11" fill="#000" stroke="none" clip-path="url(#clipPath37)" xml:space="preserve">10: Envío de email con la notificación de finalización</text></g><g fill="#fff" fill-opacity="1" stroke="#fff" stroke-opacity="1" font-family="sans-serif" font-size="11" image-rendering="optimizeQuality" text-rendering="geometricPrecision" transform="translate(626,426)"><rect width="244" height="14" x="0" y="0" stroke="none" clip-path="url(#clipPath38)"/><text x="10" y="11" fill="#000" stroke="none" clip-path="url(#clipPath38)" xml:space="preserve">8: Actualizar Experimento con Resultados</text></g><g fill="#fff" fill-opacity="1" stroke="#fff" stroke-opacity="1" font-family="sans-serif" font-size="11" image-rendering="optimizeQuality" text-rendering="geometricPrecision" transform="translate(599,227)"><rect width="174" height="14" x="0" y="0" stroke="none" clip-path="url(#clipPath39)"/><text x="10" y="11" fill="#000" stroke="none" clip-path="url(#clipPath39)" xml:space="preserve">5: Query Nuevo Experimento</text></g><g fill="#fff" fill-opacity="1" stroke="#fff" stroke-opacity="1" font-family="sans-serif" font-size="11" image-rendering="optimizeQuality" text-rendering="geometricPrecision" transform="translate(821,476)"><rect width="165" height="14" x="0" y="0" stroke="none" clip-path="url(#clipPath40)"/><text x="9" y="11" fill="#000" stroke="none" clip-path="url(#clipPath40)" xml:space="preserve">9: Serialización del modelo</text></g><g fill="#fff" fill-opacity="1" stroke="#fff" stroke-opacity="1" font-family="sans-serif" font-size="11" image-rendering="optimizeQuality" text-rendering="geometricPrecision" transform="translate(547,320)"><rect width="168" height="14" x="0" y="0" stroke="none" clip-path="url(#clipPath41)"/><text x="10" y="11" fill="#000" stroke="none" clip-path="url(#clipPath41)" xml:space="preserve">7: Entrenamiento finalizado</text></g><g fill="#fff" fill-opacity="1" stroke="#fff" stroke-opacity="1" font-family="sans-serif" font-size="11" image-rendering="optimizeQuality" text-rendering="geometricPrecision" transform="translate(53,164)"><rect width="167" height="14" x="0" y="0" stroke="none" clip-path="url(#clipPath42)"/><text x="9" y="11" fill="#000" stroke="none" clip-path="url(#clipPath42)" xml:space="preserve">2: Pantalla del experimento</text></g><g fill="#fff" fill-opacity="1" stroke="#fff" stroke-opacity="1" font-family="sans-serif" font-size="11" image-rendering="optimizeQuality" text-rendering="geometricPrecision" transform="translate(540,280)"><rect width="180" height="14" x="0" y="0" stroke="none" clip-path="url(#clipPath43)"/><text x="10" y="11" fill="#000" stroke="none" clip-path="url(#clipPath43)" xml:space="preserve">6: Encolamiento del problema</text></g><g fill="#fff" fill-opacity="1" stroke="#fff" stroke-opacity="1" font-family="sans-serif" font-size="11" image-rendering="optimizeQuality" text-rendering="geometricPrecision" transform="translate(523,195)"><rect width="200" height="14" x="0" y="0" stroke="none" clip-path="url(#clipPath44)"/><text x="10" y="11" fill="#000" stroke="none" clip-path="url(#clipPath44)" xml:space="preserve">4: Configuración del experimento</text></g><g fill="#fff" fill-opacity="1" stroke="#fff" stroke-opacity="1" font-family="sans-serif" font-size="11" image-rendering="optimizeQuality" text-rendering="geometricPrecision" transform="translate(254,168)"><rect width="194" height="14" x="0" y="0" stroke="none" clip-path="url(#clipPath45)"/><text x="10" y="11" fill="#000" stroke="none" clip-path="url(#clipPath45)" xml:space="preserve">3: Parametrización del problema</text></g><g fill="#fff" fill-opacity="1" stroke="#fff" stroke-opacity="1" font-family="sans-serif" font-size="11" image-rendering="optimizeQuality" text-rendering="geometricPrecision" transform="translate(80,112)"><rect width="98" height="14" x="0" y="0" stroke="none" clip-path="url(#clipPath46)"/><text x="10" y="11" fill="#000" stroke="none" clip-path="url(#clipPath46)" xml:space="preserve">1: Click Create</text></g></g></svg>