<svg xmlns="http://www.w3.org/2000/svg" xmlns:xlink="http://www.w3.org/1999/xlink" width="1160" height="748" fill="#000" fill-opacity="0" stroke="#000" stroke-dasharray="none" stroke-dashoffset="0" stroke-linecap="square" stroke-linejoin="miter" stroke-miterlimit="10" stroke-opacity="0" stroke-width="1" color-interpolation="auto" color-rendering="auto" font-family="'Dialog'" font-size="12" font-style="normal" font-weight="normal" image-rendering="auto" shape-rendering="auto" text-rendering="auto"><g><defs id="defs1"><clipPath id="clipPath1" clipPathUnits="userSpaceOnUse"><path d="M-7 -7 L93 -7 L93 753 L-7 753 L-7 -7 Z"/></clipPath><clipPath id="clipPath2" clipPathUnits="userSpaceOnUse"><path d="M-7 -7 L159 -7 L159 753 L-7 753 L-7 -7 Z"/></clipPath><clipPath id="clipPath3" clipPathUnits="userSpaceOnUse"><path d="M-7 -7 L71 -7 L71 753 L-7 753 L-7 -7 Z"/></clipPath><clipPath id="clipPath4" clipPathUnits="userSpaceOnUse"><path d="M-7 -7 L19 -7 L19 649 L-7 649 L-7 -7 Z"/></clipPath><clipPath id="clipPath5" clipPathUnits="userSpaceOnUse"><path d="M-7 -7 L19 -7 L19 648 L-7 648 L-7 -7 Z"/></clipPath><clipPath id="clipPath6" clipPathUnits="userSpaceOnUse"><path d="M-7 -7 L799 -7 L799 563 L-7 563 L-7 -7 Z"/></clipPath><clipPath id="clipPath7" clipPathUnits="userSpaceOnUse"><path d="M0 0 L0 14 L120 14 L120 0 Z"/></clipPath><clipPath id="clipPath8" clipPathUnits="userSpaceOnUse"><path d="M0 0 L0 4 L788 4 L788 0 Z"/></clipPath><clipPath id="clipPath9" clipPathUnits="userSpaceOnUse"><path d="M-7 -7 L115 -7 L115 753 L-7 753 L-7 -7 Z"/></clipPath><clipPath id="clipPath10" clipPathUnits="userSpaceOnUse"><path d="M-7 -7 L19 -7 L19 65 L-7 65 L-7 -7 Z"/></clipPath><clipPath id="clipPath11" clipPathUnits="userSpaceOnUse"><path d="M-7 -7 L129 -7 L129 753 L-7 753 L-7 -7 Z"/></clipPath><clipPath id="clipPath12" clipPathUnits="userSpaceOnUse"><path d="M-7 -7 L799 -7 L799 696 L-7 696 L-7 -7 Z"/></clipPath><clipPath id="clipPath13" clipPathUnits="userSpaceOnUse"><path d="M138 22 L138 36 L38 36 L38 22 ZM-7 -7 L-7 696 L800 696 L800 -7 Z"/></clipPath><clipPath id="clipPath14" clipPathUnits="userSpaceOnUse"><path d="M-7 -7 L800 -7 L800 696 L-7 696 L-7 -7 Z"/></clipPath><clipPath id="clipPath15" clipPathUnits="userSpaceOnUse"><path d="M0 0 L0 17 L29 17 L29 0 Z"/></clipPath><clipPath id="clipPath16" clipPathUnits="userSpaceOnUse"><path d="M-7 -7 L606 -7 L606 191 L-7 191 L-7 -7 Z"/></clipPath><clipPath id="clipPath17" clipPathUnits="userSpaceOnUse"><path d="M0 0 L0 14 L130 14 L130 0 Z"/></clipPath><clipPath id="clipPath18" clipPathUnits="userSpaceOnUse"><path d="M0 0 L0 4 L595 4 L595 0 Z"/></clipPath><clipPath id="clipPath19" clipPathUnits="userSpaceOnUse"><path d="M-7 -7 L799 -7 L799 126 L-7 126 L-7 -7 Z"/></clipPath><clipPath id="clipPath20" clipPathUnits="userSpaceOnUse"><path d="M0 0 L0 14 L49 14 L49 0 Z"/></clipPath><clipPath id="clipPath21" clipPathUnits="userSpaceOnUse"><path d="M-7 -7 L606 -7 L606 207 L-7 207 L-7 -7 Z"/></clipPath><clipPath id="clipPath22" clipPathUnits="userSpaceOnUse"><path d="M148 22 L148 36 L38 36 L38 22 ZM-7 -7 L-7 207 L607 207 L607 -7 Z"/></clipPath><clipPath id="clipPath23" clipPathUnits="userSpaceOnUse"><path d="M-7 -7 L607 -7 L607 207 L-7 207 L-7 -7 Z"/></clipPath><clipPath id="clipPath24" clipPathUnits="userSpaceOnUse"><path d="M-7 -7 L19 -7 L19 59 L-7 59 L-7 -7 Z"/></clipPath><clipPath id="clipPath25" clipPathUnits="userSpaceOnUse"><path d="M-82 -14 L164 -14 L164 28 L-82 28 L-82 -14 Z"/></clipPath><clipPath id="clipPath26" clipPathUnits="userSpaceOnUse"><path d="M-148 -14 L296 -14 L296 28 L-148 28 L-148 -14 Z"/></clipPath><clipPath id="clipPath27" clipPathUnits="userSpaceOnUse"><path d="M-61 -14 L122 -14 L122 28 L-61 28 L-61 -14 Z"/></clipPath><clipPath id="clipPath28" clipPathUnits="userSpaceOnUse"><path d="M-104 -28 L208 -28 L208 56 L-104 56 L-104 -28 Z"/></clipPath><clipPath id="clipPath29" clipPathUnits="userSpaceOnUse"><path d="M-118 -14 L236 -14 L236 28 L-118 28 L-118 -14 Z"/></clipPath><clipPath id="clipPath30" clipPathUnits="userSpaceOnUse"><path d="M0 0 L304 0 L304 104 L0 104 L0 0 Z"/></clipPath><clipPath id="clipPath31" clipPathUnits="userSpaceOnUse"><path d="M77 1 L77 14 L16 14 L16 1 ZM233 31 L233 45 L62 45 L62 31 ZM0 0 L0 104 L304 104 L304 0 Z"/></clipPath><clipPath id="clipPath32" clipPathUnits="userSpaceOnUse"><path d="M0 0 L396 0 L396 104 L0 104 L0 0 Z"/></clipPath><clipPath id="clipPath33" clipPathUnits="userSpaceOnUse"><path d="M277 30 L277 44 L108 44 L108 30 ZM25 0 L25 11 L0 11 L0 104 L389 104 L389 102 L396 102 L396 0 Z"/></clipPath><clipPath id="clipPath34" clipPathUnits="userSpaceOnUse"><path d="M262 30 L262 44 L127 44 L127 30 ZM0 0 L0 104 L396 104 L396 0 Z"/></clipPath><clipPath id="clipPath35" clipPathUnits="userSpaceOnUse"><path d="M251 31 L251 45 L141 45 L141 31 ZM0 0 L0 104 L396 104 L396 9 L392 9 L392 0 Z"/></clipPath><clipPath id="clipPath36" clipPathUnits="userSpaceOnUse"><path d="M0 0 L347 0 L347 94 L0 94 L0 0 Z"/></clipPath><clipPath id="clipPath37" clipPathUnits="userSpaceOnUse"><path d="M233 27 L233 41 L110 41 L110 27 ZM257 70 L257 84 L85 84 L85 70 ZM0 0 L0 94 L347 94 L347 0 Z"/></clipPath><clipPath id="clipPath38" clipPathUnits="userSpaceOnUse"><path d="M257 27 L257 41 L85 41 L85 27 ZM0 0 L0 94 L347 94 L347 0 Z"/></clipPath><clipPath id="clipPath39" clipPathUnits="userSpaceOnUse"><path d="M0 0 L134 0 L134 124 L0 124 L0 0 Z"/></clipPath><clipPath id="clipPath40" clipPathUnits="userSpaceOnUse"><path d="M0 0 L0 124 L134 124 L134 68 L92 68 L92 54 L134 54 L134 17 L94 17 L94 3 L134 3 L134 0 Z"/></clipPath><clipPath id="clipPath41" clipPathUnits="userSpaceOnUse"><path d="M0 0 L565 0 L565 94 L0 94 L0 0 Z"/></clipPath><clipPath id="clipPath42" clipPathUnits="userSpaceOnUse"><path d="M246 26 L246 40 L123 40 L123 26 ZM370 60 L370 74 L238 74 L238 60 ZM0 0 L0 94 L565 94 L565 0 Z"/></clipPath><clipPath id="clipPath43" clipPathUnits="userSpaceOnUse"><path d="M370 28 L370 42 L238 42 L238 28 ZM206 66 L206 80 L91 80 L91 66 ZM0 0 L0 94 L565 94 L565 0 L246 0 L246 8 L123 8 L123 0 Z"/></clipPath><clipPath id="clipPath44" clipPathUnits="userSpaceOnUse"><path d="M0 0 L0 124 L134 124 L134 68 L95 68 L95 54 L134 54 L134 0 Z"/></clipPath><clipPath id="clipPath45" clipPathUnits="userSpaceOnUse"><path d="M0 0 L0 124 L134 124 L134 116 L92 116 L92 102 L134 102 L134 65 L94 65 L94 51 L134 51 L134 0 Z"/></clipPath><clipPath id="clipPath46" clipPathUnits="userSpaceOnUse"><path d="M-126 -14 L252 -14 L252 28 L-126 28 L-126 -14 Z"/></clipPath><clipPath id="clipPath47" clipPathUnits="userSpaceOnUse"><path d="M-115 -14 L230 -14 L230 28 L-115 28 L-115 -14 Z"/></clipPath><clipPath id="clipPath48" clipPathUnits="userSpaceOnUse"><path d="M-132 -14 L264 -14 L264 28 L-132 28 L-132 -14 Z"/></clipPath><clipPath id="clipPath49" clipPathUnits="userSpaceOnUse"><path d="M-123 -14 L246 -14 L246 28 L-123 28 L-123 -14 Z"/></clipPath><clipPath id="clipPath50" clipPathUnits="userSpaceOnUse"><path d="M-142 -14 L284 -14 L284 28 L-142 28 L-142 -14 Z"/></clipPath><clipPath id="clipPath51" clipPathUnits="userSpaceOnUse"><path d="M-172 -14 L344 -14 L344 28 L-172 28 L-172 -14 Z"/></clipPath><clipPath id="clipPath52" clipPathUnits="userSpaceOnUse"><path d="M-110 -14 L220 -14 L220 28 L-110 28 L-110 -14 Z"/></clipPath><clipPath id="clipPath53" clipPathUnits="userSpaceOnUse"><path d="M-135 -14 L270 -14 L270 28 L-135 28 L-135 -14 Z"/></clipPath><clipPath id="clipPath54" clipPathUnits="userSpaceOnUse"><path d="M-169 -14 L338 -14 L338 28 L-169 28 L-169 -14 Z"/></clipPath><clipPath id="clipPath55" clipPathUnits="userSpaceOnUse"><path d="M-171 -14 L342 -14 L342 28 L-171 28 L-171 -14 Z"/></clipPath></defs><g fill="#fff" fill-opacity="1" stroke="#fff" stroke-opacity="1" text-rendering="geometricPrecision"><rect width="1160" height="748" x="0" y="0" stroke="none"/></g><g fill="#7ACFF5" fill-opacity="1" stroke="#7ACFF5" stroke-opacity="1" font-family="sans-serif" font-size="11" image-rendering="optimizeQuality" text-rendering="geometricPrecision" transform="translate(199.3636,2)"><rect width="81" height="35" x="0" y="0" stroke="none" clip-path="url(#clipPath1)"/></g><g fill="#000" fill-opacity="1" stroke="#000" stroke-linecap="butt" stroke-linejoin="round" stroke-miterlimit="0" stroke-opacity="1" font-family="sans-serif" font-size="11" image-rendering="optimizeQuality" text-rendering="geometricPrecision" transform="translate(199.3636,2)"><rect width="81" height="35" x="0" y="0" fill="none" clip-path="url(#clipPath1)"/><line x1="40" x2="40" y1="35" y2="742" fill="none" stroke-dasharray="8 3" stroke-linejoin="bevel" clip-path="url(#clipPath1)"/></g><g fill="#7ACFF5" fill-opacity="1" stroke="#7ACFF5" stroke-opacity="1" font-family="sans-serif" font-size="11" image-rendering="optimizeQuality" text-rendering="geometricPrecision" transform="translate(466.3636,2)"><rect width="147" height="35" x="0" y="0" stroke="none" clip-path="url(#clipPath2)"/></g><g fill="#000" fill-opacity="1" stroke="#000" stroke-linecap="butt" stroke-linejoin="round" stroke-miterlimit="0" stroke-opacity="1" font-family="sans-serif" font-size="11" image-rendering="optimizeQuality" text-rendering="geometricPrecision" transform="translate(466.3636,2)"><rect width="147" height="35" x="0" y="0" fill="none" clip-path="url(#clipPath2)"/><line x1="73" x2="73" y1="35" y2="742" fill="none" stroke-dasharray="8 3" stroke-linejoin="bevel" clip-path="url(#clipPath2)"/></g><g fill="#7ACFF5" fill-opacity="1" stroke="#7ACFF5" stroke-opacity="1" font-family="sans-serif" font-size="11" image-rendering="optimizeQuality" text-rendering="geometricPrecision" transform="translate(2.3636,2)"><circle cx="30" cy="5" r="5" stroke="none" clip-path="url(#clipPath3)"/><rect width="8" height="692" x="26" y="49" stroke="none" clip-path="url(#clipPath3)"/></g><g fill="#000" fill-opacity="1" stroke="#000" stroke-linecap="butt" stroke-linejoin="round" stroke-miterlimit="0" stroke-opacity="1" font-family="sans-serif" font-size="11" image-rendering="optimizeQuality" text-rendering="geometricPrecision" transform="translate(2.3636,2)"><circle cx="30" cy="5" r="5" fill="none" clip-path="url(#clipPath3)"/><rect width="8" height="692" x="26" y="49" fill="none" clip-path="url(#clipPath3)"/><line x1="30" x2="30" y1="10" y2="25" fill="none" clip-path="url(#clipPath3)"/><line x1="30" x2="21" y1="25" y2="36" fill="none" clip-path="url(#clipPath3)"/><line x1="30" x2="39" y1="25" y2="36" fill="none" clip-path="url(#clipPath3)"/><line x1="21" x2="39" y1="16" y2="16" fill="none" clip-path="url(#clipPath3)"/></g><g fill="#7ACFF5" fill-opacity="1" stroke="#7ACFF5" stroke-opacity="1" font-family="sans-serif" font-size="11" image-rendering="optimizeQuality" text-rendering="geometricPrecision" transform="translate(236.3636,86)"><rect width="8" height="638" x="0" y="0" stroke="none" clip-path="url(#clipPath4)"/></g><g fill="#000" fill-opacity="1" stroke="#000" stroke-linecap="butt" stroke-linejoin="round" stroke-miterlimit="0" stroke-opacity="1" font-family="sans-serif" font-size="11" image-rendering="optimizeQuality" text-rendering="geometricPrecision" transform="translate(236.3636,86)"><rect width="8" height="638" x="0" y="0" fill="none" clip-path="url(#clipPath4)"/></g><g fill="#7ACFF5" fill-opacity="1" stroke="#7ACFF5" stroke-opacity="1" font-family="sans-serif" font-size="11" image-rendering="optimizeQuality" text-rendering="geometricPrecision" transform="translate(536.3636,82)"><rect width="8" height="637" x="0" y="0" stroke="none" clip-path="url(#clipPath5)"/></g><g fill="#000" fill-opacity="1" stroke="#000" stroke-linecap="butt" stroke-linejoin="round" stroke-miterlimit="0" stroke-opacity="1" font-family="sans-serif" font-size="11" image-rendering="optimizeQuality" text-rendering="geometricPrecision" transform="translate(536.3636,82)"><rect width="8" height="637" x="0" y="0" fill="none" clip-path="url(#clipPath5)"/></g><g fill="#000" fill-opacity="1" stroke="#000" stroke-dasharray="5 2" stroke-linecap="butt" stroke-linejoin="bevel" stroke-miterlimit="0" stroke-opacity="1" font-family="sans-serif" font-size="11" image-rendering="optimizeQuality" text-rendering="geometricPrecision" transform="translate(368.3636,77)"><line x1="0" x2="787" y1="551" y2="551" fill="none" clip-path="url(#clipPath6)"/></g><g fill="#fff" fill-opacity="1" stroke="#fff" stroke-opacity="1" font-family="sans-serif" font-size="11" image-rendering="optimizeQuality" text-rendering="geometricPrecision" transform="translate(396.3636,82)"><rect width="102" height="16" x="9" y="-1" stroke="none" clip-path="url(#clipPath7)"/><text x="10" y="11" fill="#000" stroke="none" clip-path="url(#clipPath7)" xml:space="preserve">[isAdmin == True]</text></g><g fill="#7ACFF5" fill-opacity="1" stroke="#7ACFF5" stroke-opacity="1" font-family="sans-serif" font-size="11" image-rendering="optimizeQuality" text-rendering="geometricPrecision" transform="translate(750.3636,2)"><rect width="103" height="35" x="0" y="0" stroke="none" clip-path="url(#clipPath9)"/></g><g fill="#000" fill-opacity="1" stroke="#000" stroke-linecap="butt" stroke-linejoin="round" stroke-miterlimit="0" stroke-opacity="1" font-family="sans-serif" font-size="11" image-rendering="optimizeQuality" text-rendering="geometricPrecision" transform="translate(750.3636,2)"><rect width="103" height="35" x="0" y="0" fill="none" clip-path="url(#clipPath9)"/><line x1="51" x2="51" y1="35" y2="742" fill="none" stroke-dasharray="8 3" stroke-linejoin="bevel" clip-path="url(#clipPath9)"/></g><g fill="#7ACFF5" fill-opacity="1" stroke="#7ACFF5" stroke-opacity="1" font-family="sans-serif" font-size="11" image-rendering="optimizeQuality" text-rendering="geometricPrecision" transform="translate(797.3636,148)"><rect width="8" height="54" x="0" y="0" stroke="none" clip-path="url(#clipPath10)"/></g><g fill="#000" fill-opacity="1" stroke="#000" stroke-linecap="butt" stroke-linejoin="round" stroke-miterlimit="0" stroke-opacity="1" font-family="sans-serif" font-size="11" image-rendering="optimizeQuality" text-rendering="geometricPrecision" transform="translate(797.3636,148)"><rect width="8" height="54" x="0" y="0" fill="none" clip-path="url(#clipPath10)"/></g><g fill="#7ACFF5" fill-opacity="1" stroke="#7ACFF5" stroke-opacity="1" font-family="sans-serif" font-size="11" image-rendering="optimizeQuality" text-rendering="geometricPrecision" transform="translate(960.3636,2)"><rect width="117" height="35" x="0" y="0" stroke="none" clip-path="url(#clipPath11)"/></g><g fill="#000" fill-opacity="1" stroke="#000" stroke-linecap="butt" stroke-linejoin="round" stroke-miterlimit="0" stroke-opacity="1" font-family="sans-serif" font-size="11" image-rendering="optimizeQuality" text-rendering="geometricPrecision" transform="translate(960.3636,2)"><rect width="117" height="35" x="0" y="0" fill="none" clip-path="url(#clipPath11)"/><line x1="58" x2="58" y1="35" y2="742" fill="none" stroke-dasharray="8 3" stroke-linejoin="bevel" clip-path="url(#clipPath11)"/></g><g fill="#000" fill-opacity="1" stroke="#000" stroke-linecap="butt" stroke-linejoin="round" stroke-miterlimit="0" stroke-opacity="1" font-family="sans-serif" font-size="11" font-weight="bold" image-rendering="optimizeQuality" text-rendering="geometricPrecision" transform="translate(368.3636,60)"><rect width="788" height="685" x="0" y="0" fill="none" clip-path="url(#clipPath13)"/></g><g fill="#fff" fill-opacity="1" stroke="#fff" stroke-opacity="1" font-family="sans-serif" font-size="11" font-weight="bold" image-rendering="optimizeQuality" text-rendering="geometricPrecision"><path stroke="none" d="M28 0 L28 8 L22 16 L0 16 L0 0 Z" clip-path="url(#clipPath13)" transform="translate(368.3636,60)"/></g><g fill="#000" fill-opacity="1" stroke="#000" stroke-linecap="butt" stroke-linejoin="round" stroke-miterlimit="0" stroke-opacity="1" font-family="sans-serif" font-size="11" font-weight="bold" image-rendering="optimizeQuality" text-rendering="geometricPrecision"><path fill="none" d="M28 0 L28 8 L22 16 L0 16 L0 0 Z" clip-path="url(#clipPath13)" transform="translate(368.3636,60)"/></g><g fill="#000" fill-opacity="1" stroke="#000" stroke-opacity="1" font-family="sans-serif" font-size="11" font-weight="bold" image-rendering="optimizeQuality" text-rendering="geometricPrecision"><text x="5" y="11" stroke="none" clip-path="url(#clipPath15)" transform="translate(368.3636,60)" xml:space="preserve">opt</text></g><g fill="#fff" fill-opacity="1" stroke="#fff" stroke-opacity="1" font-family="sans-serif" font-size="11" image-rendering="optimizeQuality" text-rendering="geometricPrecision" transform="translate(535.3636,242)"><rect width="112" height="16" x="9" y="-1" stroke="none" clip-path="url(#clipPath17)"/><text x="10" y="11" fill="#000" stroke="none" clip-path="url(#clipPath17)" xml:space="preserve">[menos de 10 datos]</text></g><g fill="#fff" fill-opacity="1" stroke="#fff" stroke-opacity="1" font-family="sans-serif" font-size="11" image-rendering="optimizeQuality" text-rendering="geometricPrecision" transform="translate(396.3636,634)"><rect width="30" height="16" x="9" y="-1" stroke="none" clip-path="url(#clipPath20)"/><text x="10" y="11" fill="#000" stroke="none" clip-path="url(#clipPath20)" xml:space="preserve">[else]</text></g><g fill="#000" fill-opacity="1" stroke="#000" stroke-linecap="butt" stroke-linejoin="round" stroke-miterlimit="0" stroke-opacity="1" font-family="sans-serif" font-size="11" font-weight="bold" image-rendering="optimizeQuality" text-rendering="geometricPrecision" transform="translate(507.3636,220)"><rect width="595" height="196" x="0" y="0" fill="none" clip-path="url(#clipPath22)"/></g><g fill="#fff" fill-opacity="1" stroke="#fff" stroke-opacity="1" font-family="sans-serif" font-size="11" font-weight="bold" image-rendering="optimizeQuality" text-rendering="geometricPrecision"><path stroke="none" d="M28 0 L28 8 L22 16 L0 16 L0 0 Z" clip-path="url(#clipPath22)" transform="translate(507.3636,220)"/></g><g fill="#000" fill-opacity="1" stroke="#000" stroke-linecap="butt" stroke-linejoin="round" stroke-miterlimit="0" stroke-opacity="1" font-family="sans-serif" font-size="11" font-weight="bold" image-rendering="optimizeQuality" text-rendering="geometricPrecision"><path fill="none" d="M28 0 L28 8 L22 16 L0 16 L0 0 Z" clip-path="url(#clipPath22)" transform="translate(507.3636,220)"/></g><g fill="#000" fill-opacity="1" stroke="#000" stroke-opacity="1" font-family="sans-serif" font-size="11" font-weight="bold" image-rendering="optimizeQuality" text-rendering="geometricPrecision"><text x="5" y="11" stroke="none" clip-path="url(#clipPath15)" transform="translate(507.3636,220)" xml:space="preserve">opt</text></g><g fill="#7ACFF5" fill-opacity="1" stroke="#7ACFF5" stroke-opacity="1" font-family="sans-serif" font-size="11" image-rendering="optimizeQuality" text-rendering="geometricPrecision" transform="translate(1015.3636,288)"><rect width="8" height="48" x="0" y="0" stroke="none" clip-path="url(#clipPath24)"/></g><g fill="#000" fill-opacity="1" stroke="#000" stroke-linecap="butt" stroke-linejoin="round" stroke-miterlimit="0" stroke-opacity="1" font-family="sans-serif" font-size="11" image-rendering="optimizeQuality" text-rendering="geometricPrecision" transform="translate(1015.3636,288)"><rect width="8" height="48" x="0" y="0" fill="none" clip-path="url(#clipPath24)"/></g><g fill="#000" fill-opacity="1" stroke="#000" stroke-opacity="1" font-family="sans-serif" font-size="11" image-rendering="optimizeQuality" text-rendering="geometricPrecision"><text x="10" y="11" stroke="none" clip-path="url(#clipPath25)" transform="translate(199.3636,2)" xml:space="preserve">window : UI</text></g><g fill="#000" fill-opacity="1" stroke="#000" stroke-opacity="1" font-family="sans-serif" font-size="11" image-rendering="optimizeQuality" text-rendering="geometricPrecision"><text x="9" y="11" stroke="none" clip-path="url(#clipPath26)" transform="translate(466.3636,2)" xml:space="preserve">Controlador del sistema</text></g><g fill="#000" fill-opacity="1" stroke="#000" stroke-opacity="1" font-family="sans-serif" font-size="11" image-rendering="optimizeQuality" text-rendering="geometricPrecision"><text x="10" y="11" stroke="none" clip-path="url(#clipPath27)" transform="translate(2.3636,37)" xml:space="preserve">Usuario</text></g><g fill="#000" fill-opacity="1" stroke="#000" stroke-opacity="1" font-family="sans-serif" font-size="11" image-rendering="optimizeQuality" text-rendering="geometricPrecision"><text x="32" y="11" stroke="none" clip-path="url(#clipPath28)" transform="translate(750.3636,2)" xml:space="preserve">Fichero</text><text x="9" y="25" stroke="none" clip-path="url(#clipPath28)" transform="translate(750.3636,2)" xml:space="preserve">ejecución actual</text></g><g fill="#000" fill-opacity="1" stroke="#000" stroke-opacity="1" font-family="sans-serif" font-size="11" image-rendering="optimizeQuality" text-rendering="geometricPrecision"><text x="14" y="11" stroke="none" clip-path="url(#clipPath29)" transform="translate(960.3636,2)" xml:space="preserve">Fichero histórico</text></g><g fill="#000" fill-opacity="1" stroke="#000" stroke-linecap="butt" stroke-linejoin="round" stroke-opacity="1" font-family="sans-serif" font-size="11" image-rendering="optimizeQuality" text-rendering="geometricPrecision" transform="translate(-13.6364,36)"><line x1="50" x2="250" y1="50" y2="50" fill="none" clip-path="url(#clipPath31)"/><polygon stroke="none" points="250 50 238 44 238 56" clip-path="url(#clipPath31)"/><polygon fill="none" points="250 50 238 44 238 56" clip-path="url(#clipPath31)"/></g><g fill="#000" fill-opacity="1" stroke="#000" stroke-linecap="butt" stroke-linejoin="round" stroke-opacity="1" font-family="sans-serif" font-size="11" image-rendering="optimizeQuality" text-rendering="geometricPrecision" transform="translate(194.3636,70)"><line x1="50" x2="342" y1="50" y2="50" fill="none" clip-path="url(#clipPath33)"/><polygon stroke="none" points="342 50 330 44 330 56" clip-path="url(#clipPath33)"/><polygon fill="none" points="342 50 330 44 330 56" clip-path="url(#clipPath33)"/></g><g fill="#000" fill-opacity="1" stroke="#000" stroke-linecap="butt" stroke-linejoin="round" stroke-opacity="1" font-family="sans-serif" font-size="11" image-rendering="optimizeQuality" text-rendering="geometricPrecision" transform="translate(194.3636,626)"><line x1="342" x2="50" y1="50" y2="50" fill="none" clip-path="url(#clipPath34)"/><polygon stroke="none" points="50 50 62 56 62 44" clip-path="url(#clipPath34)"/><polygon fill="none" points="50 50 62 56 62 44" clip-path="url(#clipPath34)"/></g><g fill="#000" fill-opacity="1" stroke="#000" stroke-linecap="butt" stroke-linejoin="round" stroke-opacity="1" font-family="sans-serif" font-size="11" image-rendering="optimizeQuality" text-rendering="geometricPrecision" transform="translate(194.3636,538)"><line x1="342" x2="50" y1="50" y2="50" fill="none" clip-path="url(#clipPath35)"/><polygon stroke="none" points="50 50 62 56 62 44" clip-path="url(#clipPath35)"/><polygon fill="none" points="50 50 62 56 62 44" clip-path="url(#clipPath35)"/></g><g fill="#000" fill-opacity="1" stroke="#000" stroke-linecap="butt" stroke-linejoin="round" stroke-opacity="1" font-family="sans-serif" font-size="11" image-rendering="optimizeQuality" text-rendering="geometricPrecision" transform="translate(498.3636,102)"><line x1="46" x2="299" y1="46" y2="46" fill="none" clip-path="url(#clipPath37)"/><polygon stroke="none" points="299 46 287 40 287 52" clip-path="url(#clipPath37)"/><polygon fill="none" points="299 46 287 40 287 52" clip-path="url(#clipPath37)"/></g><g fill="#000" fill-opacity="1" stroke="#000" stroke-linecap="butt" stroke-linejoin="round" stroke-opacity="1" font-family="sans-serif" font-size="11" image-rendering="optimizeQuality" text-rendering="geometricPrecision" transform="translate(498.3636,145)"><line x1="299" x2="46" y1="46" y2="46" fill="none" clip-path="url(#clipPath38)"/><polygon stroke="none" points="46 46 58 52 58 40" clip-path="url(#clipPath38)"/><polygon fill="none" points="46 46 58 52 58 40" clip-path="url(#clipPath38)"/></g><g fill="#000" fill-opacity="1" stroke="#000" stroke-linecap="butt" stroke-linejoin="round" stroke-opacity="1" font-family="sans-serif" font-size="11" image-rendering="optimizeQuality" text-rendering="geometricPrecision" transform="translate(494.3636,479)"><line x1="50" x2="80" y1="50" y2="50" fill="none" clip-path="url(#clipPath40)"/><line x1="80" x2="80" y1="50" y2="70" fill="none" clip-path="url(#clipPath40)"/><line x1="80" x2="50" y1="70" y2="70" fill="none" clip-path="url(#clipPath40)"/><polygon stroke="none" points="50 70 62 76 62 64" clip-path="url(#clipPath40)"/><polygon fill="none" points="50 70 62 76 62 64" clip-path="url(#clipPath40)"/></g><g fill="#000" fill-opacity="1" stroke="#000" stroke-linecap="butt" stroke-linejoin="round" stroke-opacity="1" font-family="sans-serif" font-size="11" image-rendering="optimizeQuality" text-rendering="geometricPrecision" transform="translate(498.3636,242)"><line x1="46" x2="517" y1="46" y2="46" fill="none" clip-path="url(#clipPath42)"/><polygon stroke="none" points="517 46 505 40 505 52" clip-path="url(#clipPath42)"/><polygon fill="none" points="517 46 505 40 505 52" clip-path="url(#clipPath42)"/></g><g fill="#000" fill-opacity="1" stroke="#000" stroke-linecap="butt" stroke-linejoin="round" stroke-opacity="1" font-family="sans-serif" font-size="11" image-rendering="optimizeQuality" text-rendering="geometricPrecision" transform="translate(498.3636,274)"><line x1="517" x2="46" y1="46" y2="46" fill="none" clip-path="url(#clipPath43)"/><polygon stroke="none" points="46 46 58 52 58 40" clip-path="url(#clipPath43)"/><polygon fill="none" points="46 46 58 52 58 40" clip-path="url(#clipPath43)"/></g><g fill="#000" fill-opacity="1" stroke="#000" stroke-linecap="butt" stroke-linejoin="round" stroke-opacity="1" font-family="sans-serif" font-size="11" image-rendering="optimizeQuality" text-rendering="geometricPrecision" transform="translate(494.3636,286)"><line x1="50" x2="80" y1="50" y2="50" fill="none" clip-path="url(#clipPath44)"/><line x1="80" x2="80" y1="50" y2="70" fill="none" clip-path="url(#clipPath44)"/><line x1="80" x2="50" y1="70" y2="70" fill="none" clip-path="url(#clipPath44)"/><polygon stroke="none" points="50 70 62 76 62 64" clip-path="url(#clipPath44)"/><polygon fill="none" points="50 70 62 76 62 64" clip-path="url(#clipPath44)"/></g><g fill="#000" fill-opacity="1" stroke="#000" stroke-linecap="butt" stroke-linejoin="round" stroke-opacity="1" font-family="sans-serif" font-size="11" image-rendering="optimizeQuality" text-rendering="geometricPrecision" transform="translate(494.3636,431)"><line x1="50" x2="80" y1="50" y2="50" fill="none" clip-path="url(#clipPath45)"/><line x1="80" x2="80" y1="50" y2="70" fill="none" clip-path="url(#clipPath45)"/><line x1="80" x2="50" y1="70" y2="70" fill="none" clip-path="url(#clipPath45)"/><polygon stroke="none" points="50 70 62 76 62 64" clip-path="url(#clipPath45)"/><polygon fill="none" points="50 70 62 76 62 64" clip-path="url(#clipPath45)"/></g><g fill="#fff" fill-opacity="1" stroke="#fff" stroke-opacity="1" font-family="sans-serif" font-size="11" image-rendering="optimizeQuality" text-rendering="geometricPrecision" transform="translate(588.3636,482)"><rect width="126" height="14" x="0" y="0" stroke="none" clip-path="url(#clipPath46)"/><text x="10" y="11" fill="#000" stroke="none" clip-path="url(#clipPath46)" xml:space="preserve">8: Filtrado de datos</text></g><g fill="#fff" fill-opacity="1" stroke="#fff" stroke-opacity="1" font-family="sans-serif" font-size="11" image-rendering="optimizeQuality" text-rendering="geometricPrecision" transform="translate(589.3636,340)"><rect width="115" height="14" x="0" y="0" stroke="none" clip-path="url(#clipPath47)"/><text x="10" y="11" fill="#000" stroke="none" clip-path="url(#clipPath47)" xml:space="preserve">7: Unión de datos</text></g><g fill="#fff" fill-opacity="1" stroke="#fff" stroke-opacity="1" font-family="sans-serif" font-size="11" image-rendering="optimizeQuality" text-rendering="geometricPrecision" transform="translate(736.3636,302)"><rect width="132" height="14" x="0" y="0" stroke="none" clip-path="url(#clipPath48)"/><text x="9" y="11" fill="#000" stroke="none" clip-path="url(#clipPath48)" xml:space="preserve">6: Histórico de datos</text></g><g fill="#fff" fill-opacity="1" stroke="#fff" stroke-opacity="1" font-family="sans-serif" font-size="11" image-rendering="optimizeQuality" text-rendering="geometricPrecision" transform="translate(621.3636,268)"><rect width="123" height="14" x="0" y="0" stroke="none" clip-path="url(#clipPath49)"/><text x="10" y="11" fill="#000" stroke="none" clip-path="url(#clipPath49)" xml:space="preserve">5: Lecutra de datos</text></g><g fill="#fff" fill-opacity="1" stroke="#fff" stroke-opacity="1" font-family="sans-serif" font-size="11" image-rendering="optimizeQuality" text-rendering="geometricPrecision" transform="translate(586.3636,533)"><rect width="142" height="14" x="0" y="0" stroke="none" clip-path="url(#clipPath50)"/><text x="10" y="11" fill="#000" stroke="none" clip-path="url(#clipPath50)" xml:space="preserve">9: Cálculo de unidades</text></g><g fill="#fff" fill-opacity="1" stroke="#fff" stroke-opacity="1" font-family="sans-serif" font-size="11" image-rendering="optimizeQuality" text-rendering="geometricPrecision" transform="translate(583.3636,172)"><rect width="172" height="14" x="0" y="0" stroke="none" clip-path="url(#clipPath51)"/><text x="10" y="11" fill="#000" stroke="none" clip-path="url(#clipPath51)" xml:space="preserve">4: Últimos datos del sistema</text></g><g fill="#fff" fill-opacity="1" stroke="#fff" stroke-opacity="1" font-family="sans-serif" font-size="11" image-rendering="optimizeQuality" text-rendering="geometricPrecision" transform="translate(608.3636,129)"><rect width="123" height="14" x="0" y="0" stroke="none" clip-path="url(#clipPath49)"/><text x="10" y="11" fill="#000" stroke="none" clip-path="url(#clipPath49)" xml:space="preserve">3: Lecutra de datos</text></g><g fill="#fff" fill-opacity="1" stroke="#fff" stroke-opacity="1" font-family="sans-serif" font-size="11" image-rendering="optimizeQuality" text-rendering="geometricPrecision" transform="translate(335.3636,569)"><rect width="110" height="14" x="0" y="0" stroke="none" clip-path="url(#clipPath52)"/><text x="10" y="11" fill="#000" stroke="none" clip-path="url(#clipPath52)" xml:space="preserve">10: Página HTML</text></g><g fill="#fff" fill-opacity="1" stroke="#fff" stroke-opacity="1" font-family="sans-serif" font-size="11" image-rendering="optimizeQuality" text-rendering="geometricPrecision" transform="translate(321.3636,656)"><rect width="135" height="14" x="0" y="0" stroke="none" clip-path="url(#clipPath53)"/><text x="9" y="11" fill="#000" stroke="none" clip-path="url(#clipPath53)" xml:space="preserve">11: Acceso denegado</text></g><g fill="#fff" fill-opacity="1" stroke="#fff" stroke-opacity="1" font-family="sans-serif" font-size="11" image-rendering="optimizeQuality" text-rendering="geometricPrecision" transform="translate(302.3636,100)"><rect width="169" height="14" x="0" y="0" stroke="none" clip-path="url(#clipPath54)"/><text x="9" y="11" fill="#000" stroke="none" clip-path="url(#clipPath54)" xml:space="preserve">2: Solicitud de visualización</text></g><g fill="#fff" fill-opacity="1" stroke="#fff" stroke-opacity="1" font-family="sans-serif" font-size="11" image-rendering="optimizeQuality" text-rendering="geometricPrecision" transform="translate(48.3636,67)"><rect width="171" height="14" x="0" y="0" stroke="none" clip-path="url(#clipPath55)"/><text x="10" y="11" fill="#000" stroke="none" clip-path="url(#clipPath55)" xml:space="preserve">1: Click Live System Monitor</text></g></g></svg>