<?xml version="1.0" encoding="UTF-8" standalone="no"?><svg xmlns="http://www.w3.org/2000/svg" xmlns:xlink= "http://www.w3.org/1999/xlink" width="600" height="390" style="overflow: hidden;" aria-label="A chart."><defs id="_ABSTRACT_RENDERER_ID_116"><clipPath id="_ABSTRACT_RENDERER_ID_117"><rect x="115" y="75" width="371" height="241"></rect></clipPath></defs><rect x="0" y="0" width="600" height="390" stroke="none" stroke-width="0" fill="#ffffff"></rect><g><rect x="115" y="75" width="371" height="241" stroke="none" stroke-width="0" fill-opacity="0" fill="#ffffff"></rect><g clip-path="url(https://www.rapidtables.com/tools/bar-graph.html#_ABSTRACT_RENDERER_ID_117)"><g><rect x="115" y="315" width="371" height="1" stroke="none" stroke-width="0" fill="#cccccc"></rect><rect x="115" y="255" width="371" height="1" stroke="none" stroke-width="0" fill="#cccccc"></rect><rect x="115" y="195" width="371" height="1" stroke="none" stroke-width="0" fill="#cccccc"></rect><rect x="115" y="135" width="371" height="1" stroke="none" stroke-width="0" fill="#cccccc"></rect><rect x="115" y="75" width="371" height="1" stroke="none" stroke-width="0" fill="#cccccc"></rect><rect x="115" y="285" width="371" height="1" stroke="none" stroke-width="0" fill="#ebebeb"></rect><rect x="115" y="225" width="371" height="1" stroke="none" stroke-width="0" fill="#ebebeb"></rect><rect x="115" y="165" width="371" height="1" stroke="none" stroke-width="0" fill="#ebebeb"></rect><rect x="115" y="105" width="371" height="1" stroke="none" stroke-width="0" fill="#ebebeb"></rect></g><g><rect x="123" y="273" width="26" height="42" stroke="none" stroke-width="0" fill="#3366cc"></rect><rect x="164" y="180" width="26" height="135" stroke="none" stroke-width="0" fill="#3366cc"></rect><rect x="206" y="284" width="25" height="31" stroke="none" stroke-width="0" fill="#3366cc"></rect><rect x="247" y="100" width="25" height="215" stroke="none" stroke-width="0" fill="#3366cc"></rect><rect x="288" y="303" width="25" height="12" stroke="none" stroke-width="0" fill="#3366cc"></rect><rect x="329" y="307" width="25" height="8" stroke="none" stroke-width="0" fill="#3366cc"></rect><rect x="370" y="300" width="25" height="15" stroke="none" stroke-width="0" fill="#3366cc"></rect><rect x="411" y="292" width="26" height="23" stroke="none" stroke-width="0" fill="#3366cc"></rect><rect x="452" y="308" width="26" height="7" stroke="none" stroke-width="0" fill="#3366cc"></rect></g><g><rect x="115" y="315" width="371" height="1" stroke="none" stroke-width="0" fill="#333333"></rect></g></g><g></g><g><g><text text-anchor="end" x="138.33055555555555" y="328.4404155872192" font-family="Arial" font-size="13" transform="rotate(-30 138.33055555555555 328.4404155872192)" stroke="none" stroke-width="0" fill="#222222">Bug</text></g><g><text text-anchor="end" x="179.4416666666667" y="328.4404155872192" font-family="Arial" font-size="13" transform="rotate(-30 179.4416666666667 328.4404155872192)" stroke="none" stroke-width="0" fill="#222222">Documentation</text></g><g><text text-anchor="end" x="220.55277777777778" y="328.4404155872192" font-family="Arial" font-size="13" transform="rotate(-30 220.55277777777778 328.4404155872192)" stroke="none" stroke-width="0" fill="#222222">Experimenta…</text><path d="M139.6835676485316,362.3708348754011L215.02777777777777,318.8708348754011L221.52777777777777,330.12916512459884L146.1835676485316,373.62916512459884Z" stroke="none" stroke-width="0" fill-opacity="0" fill="#ffffff"></path></g><g><text text-anchor="end" x="261.6638888888889" y="328.4404155872192" font-family="Arial" font-size="13" transform="rotate(-30 261.6638888888889 328.4404155872192)" stroke="none" stroke-width="0" fill="#222222">Feature</text></g><g><text text-anchor="end" x="302.775" y="328.4404155872192" font-family="Arial" font-size="13" transform="rotate(-30 302.775 328.4404155872192)" stroke="none" stroke-width="0" fill="#222222">Research</text></g><g><text text-anchor="end" x="343.8861111111111" y="328.4404155872192" font-family="Arial" font-size="13" transform="rotate(-30 343.8861111111111 328.4404155872192)" stroke="none" stroke-width="0" fill="#222222">Validation</text></g><g><text text-anchor="end" x="384.9972222222222" y="328.4404155872192" font-family="Arial" font-size="13" transform="rotate(-30 384.9972222222222 328.4404155872192)" stroke="none" stroke-width="0" fill="#222222">Training</text></g><g><text text-anchor="end" x="426.10833333333335" y="328.4404155872192" font-family="Arial" font-size="13" transform="rotate(-30 426.10833333333335 328.4404155872192)" stroke="none" stroke-width="0" fill="#222222">Code</text></g><g><text text-anchor="end" x="467.21944444444443" y="328.4404155872192" font-family="Arial" font-size="13" transform="rotate(-30 467.21944444444443 328.4404155872192)" stroke="none" stroke-width="0" fill="#222222">Quality</text></g><g><text text-anchor="end" x="102" y="320.05" font-family="Arial" font-size="13" stroke="none" stroke-width="0" fill="#444444">0</text></g><g><text text-anchor="end" x="102" y="260.05" font-family="Arial" font-size="13" stroke="none" stroke-width="0" fill="#444444">100</text></g><g><text text-anchor="end" x="102" y="200.05" font-family="Arial" font-size="13" stroke="none" stroke-width="0" fill="#444444">200</text></g><g><text text-anchor="end" x="102" y="140.05" font-family="Arial" font-size="13" stroke="none" stroke-width="0" fill="#444444">300</text></g><g><text text-anchor="end" x="102" y="80.05" font-family="Arial" font-size="13" stroke="none" stroke-width="0" fill="#444444">400</text></g></g></g><g><g><text text-anchor="middle" x="300.5" y="386.05" font-family="Arial" font-size="13" font-style="italic" stroke="none" stroke-width="0" fill="#222222">Tipo de tarea</text><rect x="115" y="375" width="371" height="13" stroke="none" stroke-width="0" fill-opacity="0" fill="#ffffff"></rect></g><g><text text-anchor="middle" x="44.55" y="195.5" font-family="Arial" font-size="13" font-style="italic" transform="rotate(-90 44.55 195.5)" stroke="none" stroke-width="0" fill="#222222">Número de horas</text><path d="M33.49999999999999,316L33.50000000000001,75L46.50000000000001,75L46.49999999999999,316Z" stroke="none" stroke-width="0" fill-opacity="0" fill="#ffffff"></path></g></g><g></g></svg>