<svg xmlns="http://www.w3.org/2000/svg" xmlns:xlink="http://www.w3.org/1999/xlink" width="600" height="390" style="overflow:hidden" aria-label="A chart."><defs id="_ABSTRACT_RENDERER_ID_116"><clipPath id="_ABSTRACT_RENDERER_ID_117"><rect width="371" height="241" x="115" y="75"/></clipPath></defs><rect width="600" height="390" x="0" y="0" fill="#fff" stroke="none" stroke-width="0"/><g><rect width="371" height="241" x="115" y="75" fill="#fff" fill-opacity="0" stroke="none" stroke-width="0"/><g clip-path="url(https://www.rapidtables.com/tools/bar-graph.html#_ABSTRACT_RENDERER_ID_117)"><g><rect width="371" height="1" x="115" y="315" fill="#ccc" stroke="none" stroke-width="0"/><rect width="371" height="1" x="115" y="255" fill="#ccc" stroke="none" stroke-width="0"/><rect width="371" height="1" x="115" y="195" fill="#ccc" stroke="none" stroke-width="0"/><rect width="371" height="1" x="115" y="135" fill="#ccc" stroke="none" stroke-width="0"/><rect width="371" height="1" x="115" y="75" fill="#ccc" stroke="none" stroke-width="0"/><rect width="371" height="1" x="115" y="285" fill="#ebebeb" stroke="none" stroke-width="0"/><rect width="371" height="1" x="115" y="225" fill="#ebebeb" stroke="none" stroke-width="0"/><rect width="371" height="1" x="115" y="165" fill="#ebebeb" stroke="none" stroke-width="0"/><rect width="371" height="1" x="115" y="105" fill="#ebebeb" stroke="none" stroke-width="0"/></g><g><rect width="26" height="42" x="123" y="273" fill="#36c" stroke="none" stroke-width="0"/><rect width="26" height="135" x="164" y="180" fill="#36c" stroke="none" stroke-width="0"/><rect width="25" height="31" x="206" y="284" fill="#36c" stroke="none" stroke-width="0"/><rect width="25" height="215" x="247" y="100" fill="#36c" stroke="none" stroke-width="0"/><rect width="25" height="12" x="288" y="303" fill="#36c" stroke="none" stroke-width="0"/><rect width="25" height="8" x="329" y="307" fill="#36c" stroke="none" stroke-width="0"/><rect width="25" height="15" x="370" y="300" fill="#36c" stroke="none" stroke-width="0"/><rect width="26" height="23" x="411" y="292" fill="#36c" stroke="none" stroke-width="0"/><rect width="26" height="7" x="452" y="308" fill="#36c" stroke="none" stroke-width="0"/></g><g><rect width="371" height="1" x="115" y="315" fill="#333" stroke="none" stroke-width="0"/></g></g><g><g><text x="138.331" y="328.44" fill="#222" stroke="none" stroke-width="0" font-family="Arial" font-size="13" text-anchor="end" transform="rotate(-30 138.33055555555555 328.4404155872192)">Bug</text></g><g><text x="179.442" y="328.44" fill="#222" stroke="none" stroke-width="0" font-family="Arial" font-size="13" text-anchor="end" transform="rotate(-30 179.4416666666667 328.4404155872192)">Documentation</text></g><g><text x="220.553" y="328.44" fill="#222" stroke="none" stroke-width="0" font-family="Arial" font-size="13" text-anchor="end" transform="rotate(-30 220.55277777777778 328.4404155872192)">Experimenta…</text><path fill="#fff" fill-opacity="0" stroke="none" stroke-width="0" d="M139.6835676485316,362.3708348754011L215.02777777777777,318.8708348754011L221.52777777777777,330.12916512459884L146.1835676485316,373.62916512459884Z"/></g><g><text x="261.664" y="328.44" fill="#222" stroke="none" stroke-width="0" font-family="Arial" font-size="13" text-anchor="end" transform="rotate(-30 261.6638888888889 328.4404155872192)">Feature</text></g><g><text x="302.775" y="328.44" fill="#222" stroke="none" stroke-width="0" font-family="Arial" font-size="13" text-anchor="end" transform="rotate(-30 302.775 328.4404155872192)">Research</text></g><g><text x="343.886" y="328.44" fill="#222" stroke="none" stroke-width="0" font-family="Arial" font-size="13" text-anchor="end" transform="rotate(-30 343.8861111111111 328.4404155872192)">Validation</text></g><g><text x="384.997" y="328.44" fill="#222" stroke="none" stroke-width="0" font-family="Arial" font-size="13" text-anchor="end" transform="rotate(-30 384.9972222222222 328.4404155872192)">Training</text></g><g><text x="426.108" y="328.44" fill="#222" stroke="none" stroke-width="0" font-family="Arial" font-size="13" text-anchor="end" transform="rotate(-30 426.10833333333335 328.4404155872192)">Code</text></g><g><text x="467.219" y="328.44" fill="#222" stroke="none" stroke-width="0" font-family="Arial" font-size="13" text-anchor="end" transform="rotate(-30 467.21944444444443 328.4404155872192)">Quality</text></g><g><text x="102" y="320.05" fill="#444" stroke="none" stroke-width="0" font-family="Arial" font-size="13" text-anchor="end">0</text></g><g><text x="102" y="260.05" fill="#444" stroke="none" stroke-width="0" font-family="Arial" font-size="13" text-anchor="end">100</text></g><g><text x="102" y="200.05" fill="#444" stroke="none" stroke-width="0" font-family="Arial" font-size="13" text-anchor="end">200</text></g><g><text x="102" y="140.05" fill="#444" stroke="none" stroke-width="0" font-family="Arial" font-size="13" text-anchor="end">300</text></g><g><text x="102" y="80.05" fill="#444" stroke="none" stroke-width="0" font-family="Arial" font-size="13" text-anchor="end">400</text></g></g></g><g><g><text x="300.5" y="386.05" fill="#222" stroke="none" stroke-width="0" font-family="Arial" font-size="13" font-style="italic" text-anchor="middle">Tipo de tarea</text><rect width="371" height="13" x="115" y="375" fill="#fff" fill-opacity="0" stroke="none" stroke-width="0"/></g><g><text x="44.55" y="195.5" fill="#222" stroke="none" stroke-width="0" font-family="Arial" font-size="13" font-style="italic" text-anchor="middle" transform="rotate(-90 44.55 195.5)">Número de horas</text><path fill="#fff" fill-opacity="0" stroke="none" stroke-width="0" d="M33.49999999999999,316L33.50000000000001,75L46.50000000000001,75L46.49999999999999,316Z"/></g></g></svg>