<?xml version="1.0" encoding="UTF-8" standalone="no"?><svg xmlns="http://www.w3.org/2000/svg" xmlns:xlink= "http://www.w3.org/1999/xlink" width="600" height="390" style="overflow: hidden;" aria-label="A chart."><defs id="_ABSTRACT_RENDERER_ID_3"><filter id="_ABSTRACT_RENDERER_ID_4"><feGaussianBlur in="SourceAlpha" stdDeviation="2"></feGaussianBlur><feOffset dx="1" dy="1"></feOffset><feComponentTransfer><feFuncA type="linear" slope="0.1"></feFuncA></feComponentTransfer><feMerge><feMergeNode></feMergeNode><feMergeNode in="SourceGraphic"></feMergeNode></feMerge></filter></defs><rect x="0" y="0" width="600" height="390" stroke="none" stroke-width="0" fill="#ffffff"></rect><g><rect x="365" y="75" width="121" height="181" stroke="none" stroke-width="0" fill-opacity="0" fill="#ffffff"></rect><g column-id="Bug"><rect x="365" y="75" width="121" height="13" stroke="none" stroke-width="0" fill-opacity="0" fill="#ffffff"></rect><g><text text-anchor="start" x="383" y="86.05" font-family="Arial" font-size="13" stroke="none" stroke-width="0" fill="#222222">Bug</text></g><circle cx="371.5" cy="81.5" r="6.5" stroke="none" stroke-width="0" fill="#3366cc"></circle></g><g column-id="Documentation"><rect x="365" y="96" width="121" height="13" stroke="none" stroke-width="0" fill-opacity="0" fill="#ffffff"></rect><g><text text-anchor="start" x="383" y="107.05" font-family="Arial" font-size="13" stroke="none" stroke-width="0" fill="#222222">Documentation</text></g><circle cx="371.5" cy="102.5" r="6.5" stroke="none" stroke-width="0" fill="#dc3912"></circle></g><g column-id="Experimentation"><rect x="365" y="117" width="121" height="13" stroke="none" stroke-width="0" fill-opacity="0" fill="#ffffff"></rect><g><text text-anchor="start" x="383" y="128.05" font-family="Arial" font-size="13" stroke="none" stroke-width="0" fill="#222222">Experimentation</text></g><circle cx="371.5" cy="123.5" r="6.5" stroke="none" stroke-width="0" fill="#ff9900"></circle></g><g column-id="Feature"><rect x="365" y="138" width="121" height="13" stroke="none" stroke-width="0" fill-opacity="0" fill="#ffffff"></rect><g><text text-anchor="start" x="383" y="149.05" font-family="Arial" font-size="13" stroke="none" stroke-width="0" fill="#222222">Feature</text></g><circle cx="371.5" cy="144.5" r="6.5" stroke="none" stroke-width="0" fill="#109618"></circle></g><g column-id="Research"><rect x="365" y="159" width="121" height="13" stroke="none" stroke-width="0" fill-opacity="0" fill="#ffffff"></rect><g><text text-anchor="start" x="383" y="170.05" font-family="Arial" font-size="13" stroke="none" stroke-width="0" fill="#222222">Research</text></g><circle cx="371.5" cy="165.5" r="6.5" stroke="none" stroke-width="0" fill="#990099"></circle></g><g column-id="Validation"><rect x="365" y="180" width="121" height="13" stroke="none" stroke-width="0" fill-opacity="0" fill="#ffffff"></rect><g><text text-anchor="start" x="383" y="191.05" font-family="Arial" font-size="13" stroke="none" stroke-width="0" fill="#222222">Validation</text></g><circle cx="371.5" cy="186.5" r="6.5" stroke="none" stroke-width="0" fill="#0099c6"></circle></g><g column-id="Training"><rect x="365" y="201" width="121" height="13" stroke="none" stroke-width="0" fill-opacity="0" fill="#ffffff"></rect><g><text text-anchor="start" x="383" y="212.05" font-family="Arial" font-size="13" stroke="none" stroke-width="0" fill="#222222">Training</text></g><circle cx="371.5" cy="207.5" r="6.5" stroke="none" stroke-width="0" fill="#dd4477"></circle></g><g column-id="Code"><rect x="365" y="222" width="121" height="13" stroke="none" stroke-width="0" fill-opacity="0" fill="#ffffff"></rect><g><text text-anchor="start" x="383" y="233.05" font-family="Arial" font-size="13" stroke="none" stroke-width="0" fill="#222222">Code</text></g><circle cx="371.5" cy="228.5" r="6.5" stroke="none" stroke-width="0" fill="#66aa00"></circle></g><g column-id="Quality"><rect x="365" y="243" width="121" height="13" stroke="none" stroke-width="0" fill-opacity="0" fill="#ffffff"></rect><g><text text-anchor="start" x="383" y="254.05" font-family="Arial" font-size="13" stroke="none" stroke-width="0" fill="#222222">Quality</text></g><circle cx="371.5" cy="249.5" r="6.5" stroke="none" stroke-width="0" fill="#b82e2e"></circle></g></g><g><path d="M230,184.6L230,207.4L289.16836211203287,129.44573679402268L289.16836211203287,106.64573679402268" stroke="#264d99" stroke-width="1" fill="#264d99"></path><path d="M230,184.6L230,93.39999999999999A114,91.2,0,0,1,289.16836211203287,106.64573679402268L230,184.6A0,0,0,0,0,230,184.6" stroke="#3366cc" stroke-width="1" fill="#3366cc"></path><text text-anchor="start" x="247.5036907398904" y="121.35146723809224" font-family="Arial" font-size="13" stroke="none" stroke-width="0" fill="#ffffff">72</text></g><g><path d="M344,184.6L344,207.4A114,91.2,0,0,1,317.5292965090984,265.83079874242947L317.5292965090984,243.03079874242943A114,91.2,0,0,0,344,184.6" stroke="#a52b0e" stroke-width="1" fill="#a52b0e"></path><path d="M230,184.6L230,207.4L317.5292965090984,265.8307987424294L317.5292965090984,243.03079874242943" stroke="#a52b0e" stroke-width="1" fill="#a52b0e"></path><path d="M230,184.6L289.16836211203287,106.64573679402268A114,91.2,0,0,1,317.5292965090984,243.03079874242943L230,184.6A0,0,0,0,0,230,184.6" stroke="#dc3912" stroke-width="1" fill="#dc3912"></path><text text-anchor="start" x="306.3629807717732" y="177.89730520506933" font-family="Arial" font-size="13" stroke="none" stroke-width="0" fill="#ffffff">227</text></g><g><path d="M317.5292965090984,243.03079874242943L317.5292965090984,265.8307987424294A114,91.2,0,0,1,282.00496381013676,288.55756029494773L282.00496381013676,265.7575602949477A114,91.2,0,0,0,317.5292965090984,243.03079874242943" stroke="#bf7300" stroke-width="1" fill="#bf7300"></path><path d="M230,184.6L230,207.4L282.00496381013676,288.55756029494773L282.00496381013676,265.7575602949477" stroke="#bf7300" stroke-width="1" fill="#bf7300"></path><path d="M230,184.6L317.5292965090984,243.03079874242943A114,91.2,0,0,1,282.00496381013676,265.7575602949477L230,184.6A0,0,0,0,0,230,184.6" stroke="#ff9900" stroke-width="1" fill="#ff9900"></path><text text-anchor="start" x="279.25387353014264" y="243.6148324677636" font-family="Arial" font-size="13" stroke="none" stroke-width="0" fill="#ffffff">53</text></g><g><path d="M230,184.6L230,207.4L217.9262285079624,116.71293704803777L217.9262285079624,93.91293704803778" stroke="#8a2323" stroke-width="1" fill="#8a2323"></path><path d="M230,184.6L217.9262285079624,93.91293704803778A114,91.2,0,0,1,230,93.39999999999999L230,184.6A0,0,0,0,0,230,184.6" stroke="#b82e2e" stroke-width="1" fill="#b82e2e"></path></g><g><path d="M230,184.6L230,207.4L184.63396612405052,123.73237961412806L184.63396612405052,100.93237961412807" stroke="#4d8000" stroke-width="1" fill="#4d8000"></path><path d="M230,184.6L184.63396612405052,100.93237961412807A114,91.2,0,0,1,217.9262285079624,93.91293704803778L230,184.6A0,0,0,0,0,230,184.6" stroke="#66aa00" stroke-width="1" fill="#66aa00"></path><text text-anchor="start" x="199.8105775519507" y="121.02508359259454" font-family="Arial" font-size="13" stroke="none" stroke-width="0" fill="#ffffff">40</text></g><g><path d="M230,184.6L230,207.4L165.03565314072182,132.4573183841522L165.03565314072182,109.65731838415218" stroke="#a63359" stroke-width="1" fill="#a63359"></path><path d="M230,184.6L165.03565314072182,109.65731838415218A114,91.2,0,0,1,184.63396612405072,100.93237961412801L230,184.6A0,0,0,0,0,230,184.6" stroke="#dd4477" stroke-width="1" fill="#dd4477"></path></g><g><path d="M230,184.6L230,207.4L154.8278104983375,138.83695724126056L154.8278104983375,116.03695724126055" stroke="#007395" stroke-width="1" fill="#007395"></path><path d="M230,184.6L154.8278104983375,116.03695724126055A114,91.2,0,0,1,165.03565314072182,109.65731838415218L230,184.6A0,0,0,0,0,230,184.6" stroke="#0099c6" stroke-width="1" fill="#0099c6"></path></g><g><path d="M230,184.6L230,207.4L141.64601408424932,149.7690462460357L141.64601408424932,126.9690462460357" stroke="#730073" stroke-width="1" fill="#730073"></path><path d="M230,184.6L141.64601408424932,126.9690462460357A114,91.2,0,0,1,154.82781049833756,116.03695724126054L230,184.6A0,0,0,0,0,230,184.6" stroke="#990099" stroke-width="1" fill="#990099"></path></g><g><path d="M282.00496381013676,265.7575602949477L282.00496381013676,288.55756029494773A114,91.2,0,0,1,116,207.4L116,184.6A114,91.2,0,0,0,282.00496381013676,265.7575602949477" stroke="#0c7112" stroke-width="1" fill="#0c7112"></path><path d="M230,184.6L282.00496381013676,265.7575602949477A114,91.2,0,0,1,141.64601408424932,126.9690462460357L230,184.6A0,0,0,0,0,230,184.6" stroke="#109618" stroke-width="1" fill="#109618"></path><text text-anchor="start" x="151.23409653065795" y="231.59955901204964" font-family="Arial" font-size="13" stroke="none" stroke-width="0" fill="#ffffff">360</text></g><g></g></svg>