<svg xmlns="http://www.w3.org/2000/svg" xmlns:xlink="http://www.w3.org/1999/xlink" width="600" height="390" style="overflow:hidden" aria-label="A chart."><defs id="_ABSTRACT_RENDERER_ID_3"><filter id="_ABSTRACT_RENDERER_ID_4"><feGaussianBlur in="SourceAlpha" stdDeviation="2"/><feOffset dx="1" dy="1"/><feComponentTransfer><feFuncA slope=".1" type="linear"/></feComponentTransfer><feMerge><feMergeNode/><feMergeNode in="SourceGraphic"/></feMerge></filter></defs><rect width="600" height="390" x="0" y="0" fill="#fff" stroke="none" stroke-width="0"/><g><rect width="121" height="181" x="365" y="75" fill="#fff" fill-opacity="0" stroke="none" stroke-width="0"/><g column-id="Bug"><rect width="121" height="13" x="365" y="75" fill="#fff" fill-opacity="0" stroke="none" stroke-width="0"/><g><text x="383" y="86.05" fill="#222" stroke="none" stroke-width="0" font-family="Arial" font-size="13" text-anchor="start">Bug</text></g><circle cx="371.5" cy="81.5" r="6.5" fill="#36c" stroke="none" stroke-width="0"/></g><g column-id="Documentation"><rect width="121" height="13" x="365" y="96" fill="#fff" fill-opacity="0" stroke="none" stroke-width="0"/><g><text x="383" y="107.05" fill="#222" stroke="none" stroke-width="0" font-family="Arial" font-size="13" text-anchor="start">Documentation</text></g><circle cx="371.5" cy="102.5" r="6.5" fill="#dc3912" stroke="none" stroke-width="0"/></g><g column-id="Experimentation"><rect width="121" height="13" x="365" y="117" fill="#fff" fill-opacity="0" stroke="none" stroke-width="0"/><g><text x="383" y="128.05" fill="#222" stroke="none" stroke-width="0" font-family="Arial" font-size="13" text-anchor="start">Experimentation</text></g><circle cx="371.5" cy="123.5" r="6.5" fill="#f90" stroke="none" stroke-width="0"/></g><g column-id="Feature"><rect width="121" height="13" x="365" y="138" fill="#fff" fill-opacity="0" stroke="none" stroke-width="0"/><g><text x="383" y="149.05" fill="#222" stroke="none" stroke-width="0" font-family="Arial" font-size="13" text-anchor="start">Feature</text></g><circle cx="371.5" cy="144.5" r="6.5" fill="#109618" stroke="none" stroke-width="0"/></g><g column-id="Research"><rect width="121" height="13" x="365" y="159" fill="#fff" fill-opacity="0" stroke="none" stroke-width="0"/><g><text x="383" y="170.05" fill="#222" stroke="none" stroke-width="0" font-family="Arial" font-size="13" text-anchor="start">Research</text></g><circle cx="371.5" cy="165.5" r="6.5" fill="#909" stroke="none" stroke-width="0"/></g><g column-id="Validation"><rect width="121" height="13" x="365" y="180" fill="#fff" fill-opacity="0" stroke="none" stroke-width="0"/><g><text x="383" y="191.05" fill="#222" stroke="none" stroke-width="0" font-family="Arial" font-size="13" text-anchor="start">Validation</text></g><circle cx="371.5" cy="186.5" r="6.5" fill="#0099c6" stroke="none" stroke-width="0"/></g><g column-id="Training"><rect width="121" height="13" x="365" y="201" fill="#fff" fill-opacity="0" stroke="none" stroke-width="0"/><g><text x="383" y="212.05" fill="#222" stroke="none" stroke-width="0" font-family="Arial" font-size="13" text-anchor="start">Training</text></g><circle cx="371.5" cy="207.5" r="6.5" fill="#d47" stroke="none" stroke-width="0"/></g><g column-id="Code"><rect width="121" height="13" x="365" y="222" fill="#fff" fill-opacity="0" stroke="none" stroke-width="0"/><g><text x="383" y="233.05" fill="#222" stroke="none" stroke-width="0" font-family="Arial" font-size="13" text-anchor="start">Code</text></g><circle cx="371.5" cy="228.5" r="6.5" fill="#6a0" stroke="none" stroke-width="0"/></g><g column-id="Quality"><rect width="121" height="13" x="365" y="243" fill="#fff" fill-opacity="0" stroke="none" stroke-width="0"/><g><text x="383" y="254.05" fill="#222" stroke="none" stroke-width="0" font-family="Arial" font-size="13" text-anchor="start">Quality</text></g><circle cx="371.5" cy="249.5" r="6.5" fill="#b82e2e" stroke="none" stroke-width="0"/></g></g><g><path fill="#264d99" stroke="#264d99" stroke-width="1" d="M230,184.6L230,207.4L289.16836211203287,129.44573679402268L289.16836211203287,106.64573679402268"/><path fill="#36c" stroke="#36c" stroke-width="1" d="M230,184.6L230,93.39999999999999A114,91.2,0,0,1,289.16836211203287,106.64573679402268L230,184.6A0,0,0,0,0,230,184.6"/><text x="247.504" y="121.351" fill="#fff" stroke="none" stroke-width="0" font-family="Arial" font-size="13" text-anchor="start">72</text></g><g><path fill="#a52b0e" stroke="#a52b0e" stroke-width="1" d="M344,184.6L344,207.4A114,91.2,0,0,1,317.5292965090984,265.83079874242947L317.5292965090984,243.03079874242943A114,91.2,0,0,0,344,184.6"/><path fill="#a52b0e" stroke="#a52b0e" stroke-width="1" d="M230,184.6L230,207.4L317.5292965090984,265.8307987424294L317.5292965090984,243.03079874242943"/><path fill="#dc3912" stroke="#dc3912" stroke-width="1" d="M230,184.6L289.16836211203287,106.64573679402268A114,91.2,0,0,1,317.5292965090984,243.03079874242943L230,184.6A0,0,0,0,0,230,184.6"/><text x="306.363" y="177.897" fill="#fff" stroke="none" stroke-width="0" font-family="Arial" font-size="13" text-anchor="start">227</text></g><g><path fill="#bf7300" stroke="#bf7300" stroke-width="1" d="M317.5292965090984,243.03079874242943L317.5292965090984,265.8307987424294A114,91.2,0,0,1,282.00496381013676,288.55756029494773L282.00496381013676,265.7575602949477A114,91.2,0,0,0,317.5292965090984,243.03079874242943"/><path fill="#bf7300" stroke="#bf7300" stroke-width="1" d="M230,184.6L230,207.4L282.00496381013676,288.55756029494773L282.00496381013676,265.7575602949477"/><path fill="#f90" stroke="#f90" stroke-width="1" d="M230,184.6L317.5292965090984,243.03079874242943A114,91.2,0,0,1,282.00496381013676,265.7575602949477L230,184.6A0,0,0,0,0,230,184.6"/><text x="279.254" y="243.615" fill="#fff" stroke="none" stroke-width="0" font-family="Arial" font-size="13" text-anchor="start">53</text></g><g><path fill="#8a2323" stroke="#8a2323" stroke-width="1" d="M230,184.6L230,207.4L217.9262285079624,116.71293704803777L217.9262285079624,93.91293704803778"/><path fill="#b82e2e" stroke="#b82e2e" stroke-width="1" d="M230,184.6L217.9262285079624,93.91293704803778A114,91.2,0,0,1,230,93.39999999999999L230,184.6A0,0,0,0,0,230,184.6"/></g><g><path fill="#4d8000" stroke="#4d8000" stroke-width="1" d="M230,184.6L230,207.4L184.63396612405052,123.73237961412806L184.63396612405052,100.93237961412807"/><path fill="#6a0" stroke="#6a0" stroke-width="1" d="M230,184.6L184.63396612405052,100.93237961412807A114,91.2,0,0,1,217.9262285079624,93.91293704803778L230,184.6A0,0,0,0,0,230,184.6"/><text x="199.811" y="121.025" fill="#fff" stroke="none" stroke-width="0" font-family="Arial" font-size="13" text-anchor="start">40</text></g><g><path fill="#a63359" stroke="#a63359" stroke-width="1" d="M230,184.6L230,207.4L165.03565314072182,132.4573183841522L165.03565314072182,109.65731838415218"/><path fill="#d47" stroke="#d47" stroke-width="1" d="M230,184.6L165.03565314072182,109.65731838415218A114,91.2,0,0,1,184.63396612405072,100.93237961412801L230,184.6A0,0,0,0,0,230,184.6"/></g><g><path fill="#007395" stroke="#007395" stroke-width="1" d="M230,184.6L230,207.4L154.8278104983375,138.83695724126056L154.8278104983375,116.03695724126055"/><path fill="#0099c6" stroke="#0099c6" stroke-width="1" d="M230,184.6L154.8278104983375,116.03695724126055A114,91.2,0,0,1,165.03565314072182,109.65731838415218L230,184.6A0,0,0,0,0,230,184.6"/></g><g><path fill="#730073" stroke="#730073" stroke-width="1" d="M230,184.6L230,207.4L141.64601408424932,149.7690462460357L141.64601408424932,126.9690462460357"/><path fill="#909" stroke="#909" stroke-width="1" d="M230,184.6L141.64601408424932,126.9690462460357A114,91.2,0,0,1,154.82781049833756,116.03695724126054L230,184.6A0,0,0,0,0,230,184.6"/></g><g><path fill="#0c7112" stroke="#0c7112" stroke-width="1" d="M282.00496381013676,265.7575602949477L282.00496381013676,288.55756029494773A114,91.2,0,0,1,116,207.4L116,184.6A114,91.2,0,0,0,282.00496381013676,265.7575602949477"/><path fill="#109618" stroke="#109618" stroke-width="1" d="M230,184.6L282.00496381013676,265.7575602949477A114,91.2,0,0,1,141.64601408424932,126.9690462460357L230,184.6A0,0,0,0,0,230,184.6"/><text x="151.234" y="231.6" fill="#fff" stroke="none" stroke-width="0" font-family="Arial" font-size="13" text-anchor="start">360</text></g></svg>