<svg xmlns="http://www.w3.org/2000/svg" xmlns:xlink="http://www.w3.org/1999/xlink" width="923" height="852" fill="#000" fill-opacity="0" stroke="#000" stroke-dasharray="none" stroke-dashoffset="0" stroke-linecap="square" stroke-linejoin="miter" stroke-miterlimit="10" stroke-opacity="0" stroke-width="1" color-interpolation="auto" color-rendering="auto" font-family="'Dialog'" font-size="12" font-style="normal" font-weight="normal" image-rendering="auto" shape-rendering="auto" text-rendering="auto"><g><defs id="defs1"><clipPath id="clipPath1" clipPathUnits="userSpaceOnUse"><path d="M-7 -7 L126 -7 L126 167 L-7 167 L-7 -7 Z"/></clipPath><clipPath id="clipPath2" clipPathUnits="userSpaceOnUse"><path d="M-7 -7 L731 -7 L731 857 L-7 857 L-7 -7 Z"/></clipPath><clipPath id="clipPath3" clipPathUnits="userSpaceOnUse"><path d="M0 0 L0 846 L720 846 L720 0 Z"/></clipPath><clipPath id="clipPath4" clipPathUnits="userSpaceOnUse"><path d="M-7 -7 L134 -7 L134 87 L-7 87 L-7 -7 Z"/></clipPath><clipPath id="clipPath5" clipPathUnits="userSpaceOnUse"><path d="M0 0 L0 76 L123 76 L123 0 Z"/></clipPath><clipPath id="clipPath6" clipPathUnits="userSpaceOnUse"><path d="M-7 -7 L232 -7 L232 87 L-7 87 L-7 -7 Z"/></clipPath><clipPath id="clipPath7" clipPathUnits="userSpaceOnUse"><path d="M0 0 L0 76 L221 76 L221 0 Z"/></clipPath><clipPath id="clipPath8" clipPathUnits="userSpaceOnUse"><path d="M-7 -7 L217 -7 L217 87 L-7 87 L-7 -7 Z"/></clipPath><clipPath id="clipPath9" clipPathUnits="userSpaceOnUse"><path d="M0 0 L0 76 L206 76 L206 0 Z"/></clipPath><clipPath id="clipPath10" clipPathUnits="userSpaceOnUse"><path d="M-7 -7 L140 -7 L140 87 L-7 87 L-7 -7 Z"/></clipPath><clipPath id="clipPath11" clipPathUnits="userSpaceOnUse"><path d="M0 0 L0 76 L129 76 L129 0 Z"/></clipPath><clipPath id="clipPath12" clipPathUnits="userSpaceOnUse"><path d="M-7 -7 L134 -7 L134 86 L-7 86 L-7 -7 Z"/></clipPath><clipPath id="clipPath13" clipPathUnits="userSpaceOnUse"><path d="M0 0 L0 75 L123 75 L123 0 Z"/></clipPath><clipPath id="clipPath14" clipPathUnits="userSpaceOnUse"><path d="M-97 -14 L194 -14 L194 28 L-97 28 L-97 -14 Z"/></clipPath><clipPath id="clipPath15" clipPathUnits="userSpaceOnUse"><path d="M-75 -20 L150 -20 L150 40 L-75 40 L-75 -20 Z"/></clipPath><clipPath id="clipPath16" clipPathUnits="userSpaceOnUse"><path d="M0 0 L104 0 L104 320 L0 320 L0 0 Z"/></clipPath><clipPath id="clipPath17" clipPathUnits="userSpaceOnUse"><path d="M88 28 L88 48 L13 48 L13 28 ZM0 0 L0 320 L104 320 L104 0 Z"/></clipPath><clipPath id="clipPath18" clipPathUnits="userSpaceOnUse"><path d="M0 0 L317 0 L317 200 L0 200 L0 0 Z"/></clipPath><clipPath id="clipPath19" clipPathUnits="userSpaceOnUse"><path d="M0 0 L0 40 L47 40 L47 60 L0 60 L0 200 L317 200 L317 0 Z"/></clipPath><clipPath id="clipPath20" clipPathUnits="userSpaceOnUse"><path d="M0 0 L300 0 L300 104 L0 104 L0 0 Z"/></clipPath><clipPath id="clipPath21" clipPathUnits="userSpaceOnUse"><path d="M0 0 L0 104 L300 104 L300 0 Z"/></clipPath><clipPath id="clipPath22" clipPathUnits="userSpaceOnUse"><path d="M0 0 L278 0 L278 162 L0 162 L0 0 Z"/></clipPath><clipPath id="clipPath23" clipPathUnits="userSpaceOnUse"><path d="M0 0 L0 162 L278 162 L278 0 Z"/></clipPath><clipPath id="clipPath24" clipPathUnits="userSpaceOnUse"><path d="M0 0 L243 0 L243 104 L0 104 L0 0 Z"/></clipPath><clipPath id="clipPath25" clipPathUnits="userSpaceOnUse"><path d="M164 35 L164 49 L72 49 L72 35 ZM0 0 L0 104 L243 104 L243 0 Z"/></clipPath><clipPath id="clipPath26" clipPathUnits="userSpaceOnUse"><path d="M0 0 L104 0 L104 167 L0 167 L0 0 Z"/></clipPath><clipPath id="clipPath27" clipPathUnits="userSpaceOnUse"><path d="M0 0 L0 167 L104 167 L104 94 L49 94 L49 80 L104 80 L104 0 Z"/></clipPath><clipPath id="clipPath28" clipPathUnits="userSpaceOnUse"><path d="M0 0 L104 0 L104 173 L0 173 L0 0 Z"/></clipPath><clipPath id="clipPath29" clipPathUnits="userSpaceOnUse"><path d="M0 0 L0 88 L23 88 L23 102 L0 102 L0 173 L104 173 L104 92 L51 92 L51 78 L104 78 L104 0 Z"/></clipPath><clipPath id="clipPath30" clipPathUnits="userSpaceOnUse"><path d="M0 0 L104 0 L104 177 L0 177 L0 0 Z"/></clipPath><clipPath id="clipPath31" clipPathUnits="userSpaceOnUse"><path d="M0 0 L0 177 L104 177 L104 90 L51 90 L51 76 L104 76 L104 0 Z"/></clipPath><clipPath id="clipPath32" clipPathUnits="userSpaceOnUse"><path d="M0 0 L308 0 L308 104 L0 104 L0 0 Z"/></clipPath><clipPath id="clipPath33" clipPathUnits="userSpaceOnUse"><path d="M0 0 L0 104 L308 104 L308 0 Z"/></clipPath><clipPath id="clipPath34" clipPathUnits="userSpaceOnUse"><path d="M0 0 L0 92 L41 92 L41 104 L300 104 L300 0 Z"/></clipPath><clipPath id="clipPath35" clipPathUnits="userSpaceOnUse"><path d="M0 0 L306 0 L306 160 L0 160 L0 0 Z"/></clipPath><clipPath id="clipPath36" clipPathUnits="userSpaceOnUse"><path d="M0 0 L0 37 L47 37 L47 51 L0 51 L0 160 L306 160 L306 0 Z"/></clipPath><clipPath id="clipPath37" clipPathUnits="userSpaceOnUse"><path d="M0 0 L240 0 L240 626 L0 626 L0 0 Z"/></clipPath><clipPath id="clipPath38" clipPathUnits="userSpaceOnUse"><path d="M174 19 L174 33 L82 33 L82 19 ZM215 441 L215 455 L121 455 L121 441 ZM0 0 L0 586 L91 586 L91 600 L0 600 L0 626 L240 626 L240 0 Z"/></clipPath><clipPath id="clipPath39" clipPathUnits="userSpaceOnUse"><path d="M0 0 L244 0 L244 104 L0 104 L0 0 Z"/></clipPath><clipPath id="clipPath40" clipPathUnits="userSpaceOnUse"><path d="M156 29 L156 43 L62 43 L62 29 ZM0 0 L0 104 L244 104 L244 0 Z"/></clipPath><clipPath id="clipPath41" clipPathUnits="userSpaceOnUse"><path d="M166 29 L166 43 L72 43 L72 29 ZM0 0 L0 104 L244 104 L244 0 Z"/></clipPath><clipPath id="clipPath42" clipPathUnits="userSpaceOnUse"><path d="M0 0 L324 0 L324 136 L0 136 L0 0 Z"/></clipPath><clipPath id="clipPath43" clipPathUnits="userSpaceOnUse"><path d="M0 0 L0 103 L30 103 L30 123 L0 123 L0 136 L324 136 L324 0 Z"/></clipPath><clipPath id="clipPath44" clipPathUnits="userSpaceOnUse"><path d="M-24 -14 L48 -14 L48 28 L-24 28 L-24 -14 Z"/></clipPath><clipPath id="clipPath45" clipPathUnits="userSpaceOnUse"><path d="M-94 -14 L188 -14 L188 28 L-94 28 L-94 -14 Z"/></clipPath><clipPath id="clipPath46" clipPathUnits="userSpaceOnUse"><path d="M-92 -14 L184 -14 L184 28 L-92 28 L-92 -14 Z"/></clipPath></defs><g fill="#fff" fill-opacity="1" stroke="#fff" stroke-opacity="1" text-rendering="geometricPrecision"><rect width="923" height="852" x="0" y="0" stroke="none"/></g><g fill="#7ACFF5" fill-opacity="1" stroke="#7ACFF5" stroke-opacity="1" font-family="sans-serif" font-size="11" image-rendering="optimizeQuality" text-rendering="geometricPrecision" transform="translate(2,551)"><circle cx="56.5" cy="19.5" r="19.5" stroke="none" clip-path="url(#clipPath1)"/></g><g fill="#000" fill-opacity="1" stroke="#000" stroke-linecap="butt" stroke-linejoin="round" stroke-miterlimit="0" stroke-opacity="1" font-family="sans-serif" font-size="11" image-rendering="optimizeQuality" text-rendering="geometricPrecision" transform="translate(2,551)"><circle cx="56.5" cy="19.5" r="19.5" fill="none" clip-path="url(#clipPath1)"/><line x1="57" x2="57" y1="39" y2="104" fill="none" clip-path="url(#clipPath1)"/><line x1="18" x2="96" y1="62" y2="62" fill="none" clip-path="url(#clipPath1)"/><line x1="57" x2="18" y1="104" y2="156" fill="none" clip-path="url(#clipPath1)"/><line x1="57" x2="96" y1="104" y2="156" fill="none" clip-path="url(#clipPath1)"/></g><g fill="#7ACFF5" fill-opacity="1" stroke="#7ACFF5" stroke-opacity="1" font-family="sans-serif" font-size="11" image-rendering="optimizeQuality" text-rendering="geometricPrecision" transform="translate(2,156)"><circle cx="56.5" cy="19.5" r="19.5" stroke="none" clip-path="url(#clipPath1)"/></g><g fill="#000" fill-opacity="1" stroke="#000" stroke-linecap="butt" stroke-linejoin="round" stroke-miterlimit="0" stroke-opacity="1" font-family="sans-serif" font-size="11" image-rendering="optimizeQuality" text-rendering="geometricPrecision" transform="translate(2,156)"><circle cx="56.5" cy="19.5" r="19.5" fill="none" clip-path="url(#clipPath1)"/><line x1="57" x2="57" y1="39" y2="104" fill="none" clip-path="url(#clipPath1)"/><line x1="18" x2="96" y1="62" y2="62" fill="none" clip-path="url(#clipPath1)"/><line x1="57" x2="18" y1="104" y2="156" fill="none" clip-path="url(#clipPath1)"/><line x1="57" x2="96" y1="104" y2="156" fill="none" clip-path="url(#clipPath1)"/></g><g fill="#7ACFF5" fill-opacity="1" stroke="#7ACFF5" stroke-opacity="1" font-family="sans-serif" font-size="11" image-rendering="optimizeQuality" text-rendering="geometricPrecision" transform="translate(197,2)"><rect width="719" height="845" x="0" y="0" stroke="none" clip-path="url(#clipPath2)"/></g><g fill="#000" fill-opacity="1" stroke="#000" stroke-linecap="butt" stroke-linejoin="round" stroke-miterlimit="0" stroke-opacity="1" font-family="sans-serif" font-size="11" image-rendering="optimizeQuality" text-rendering="geometricPrecision" transform="translate(197,2)"><rect width="719" height="845" x="0" y="0" fill="none" clip-path="url(#clipPath2)"/></g><g fill="#000" fill-opacity="1" stroke="#000" stroke-opacity="1" font-family="sans-serif" font-size="11" image-rendering="optimizeQuality" text-rendering="geometricPrecision"><text x="332" y="11" stroke="none" clip-path="url(#clipPath3)" transform="translate(197,2)" xml:space="preserve">UBUMLaaS</text></g><g fill="#7ACFF5" fill-opacity="1" stroke="#7ACFF5" stroke-opacity="1" font-family="sans-serif" font-size="11" image-rendering="optimizeQuality" text-rendering="geometricPrecision" transform="translate(313,379)"><ellipse cx="61.5" cy="38" stroke="none" clip-path="url(#clipPath4)" rx="61.5" ry="38"/></g><g fill="#000" fill-opacity="1" stroke="#000" stroke-linecap="butt" stroke-linejoin="round" stroke-miterlimit="0" stroke-opacity="1" font-family="sans-serif" font-size="11" image-rendering="optimizeQuality" text-rendering="geometricPrecision" transform="translate(313,379)"><ellipse cx="61.5" cy="38" fill="none" clip-path="url(#clipPath4)" rx="61.5" ry="38"/></g><g fill="#000" fill-opacity="1" stroke="#000" stroke-opacity="1" font-family="sans-serif" font-size="11" image-rendering="optimizeQuality" text-rendering="geometricPrecision"><text x="23" y="35" stroke="none" clip-path="url(#clipPath5)" transform="translate(313,379)" xml:space="preserve">4. Registro de</text><text x="41" y="49" stroke="none" clip-path="url(#clipPath5)" transform="translate(313,379)" xml:space="preserve">usuario</text></g><g fill="#7ACFF5" fill-opacity="1" stroke="#7ACFF5" stroke-opacity="1" font-family="sans-serif" font-size="11" image-rendering="optimizeQuality" text-rendering="geometricPrecision" transform="translate(313,168)"><ellipse cx="61.5" cy="38" stroke="none" clip-path="url(#clipPath4)" rx="61.5" ry="38"/></g><g fill="#000" fill-opacity="1" stroke="#000" stroke-linecap="butt" stroke-linejoin="round" stroke-miterlimit="0" stroke-opacity="1" font-family="sans-serif" font-size="11" image-rendering="optimizeQuality" text-rendering="geometricPrecision" transform="translate(313,168)"><ellipse cx="61.5" cy="38" fill="none" clip-path="url(#clipPath4)" rx="61.5" ry="38"/></g><g fill="#000" fill-opacity="1" stroke="#000" stroke-opacity="1" font-family="sans-serif" font-size="11" image-rendering="optimizeQuality" text-rendering="geometricPrecision"><text x="39" y="35" stroke="none" clip-path="url(#clipPath5)" transform="translate(313,168)" xml:space="preserve">2. Crear</text><text x="27" y="49" stroke="none" clip-path="url(#clipPath5)" transform="translate(313,168)" xml:space="preserve">Experimento</text></g><g fill="#7ACFF5" fill-opacity="1" stroke="#7ACFF5" stroke-opacity="1" font-family="sans-serif" font-size="11" image-rendering="optimizeQuality" text-rendering="geometricPrecision" transform="translate(623,188)"><ellipse cx="61.5" cy="38" stroke="none" clip-path="url(#clipPath4)" rx="61.5" ry="38"/></g><g fill="#000" fill-opacity="1" stroke="#000" stroke-linecap="butt" stroke-linejoin="round" stroke-miterlimit="0" stroke-opacity="1" font-family="sans-serif" font-size="11" image-rendering="optimizeQuality" text-rendering="geometricPrecision" transform="translate(623,188)"><ellipse cx="61.5" cy="38" fill="none" clip-path="url(#clipPath4)" rx="61.5" ry="38"/></g><g fill="#000" fill-opacity="1" stroke="#000" stroke-opacity="1" font-family="sans-serif" font-size="11" image-rendering="optimizeQuality" text-rendering="geometricPrecision"><text x="22" y="35" stroke="none" clip-path="url(#clipPath5)" transform="translate(623,188)" xml:space="preserve">1.1.1. Predecir</text><text x="13" y="49" stroke="none" clip-path="url(#clipPath5)" transform="translate(623,188)" xml:space="preserve">Nuevas Instancias</text></g><g fill="#7ACFF5" fill-opacity="1" stroke="#7ACFF5" stroke-opacity="1" font-family="sans-serif" font-size="11" image-rendering="optimizeQuality" text-rendering="geometricPrecision" transform="translate(290,54)"><ellipse cx="110.5" cy="38" stroke="none" clip-path="url(#clipPath6)" rx="110.5" ry="38"/></g><g fill="#000" fill-opacity="1" stroke="#000" stroke-linecap="butt" stroke-linejoin="round" stroke-miterlimit="0" stroke-opacity="1" font-family="sans-serif" font-size="11" image-rendering="optimizeQuality" text-rendering="geometricPrecision" transform="translate(290,54)"><ellipse cx="110.5" cy="38" fill="none" clip-path="url(#clipPath6)" rx="110.5" ry="38"/></g><g fill="#000" fill-opacity="1" stroke="#000" stroke-opacity="1" font-family="sans-serif" font-size="11" image-rendering="optimizeQuality" text-rendering="geometricPrecision"><text x="38" y="42" stroke="none" clip-path="url(#clipPath7)" transform="translate(290,54)" xml:space="preserve">1. Consultar Experimentos</text></g><g fill="#7ACFF5" fill-opacity="1" stroke="#7ACFF5" stroke-opacity="1" font-family="sans-serif" font-size="11" image-rendering="optimizeQuality" text-rendering="geometricPrecision" transform="translate(650,54)"><ellipse cx="103" cy="38" stroke="none" clip-path="url(#clipPath8)" rx="103" ry="38"/></g><g fill="#000" fill-opacity="1" stroke="#000" stroke-linecap="butt" stroke-linejoin="round" stroke-miterlimit="0" stroke-opacity="1" font-family="sans-serif" font-size="11" image-rendering="optimizeQuality" text-rendering="geometricPrecision" transform="translate(650,54)"><ellipse cx="103" cy="38" fill="none" clip-path="url(#clipPath8)" rx="103" ry="38"/></g><g fill="#000" fill-opacity="1" stroke="#000" stroke-opacity="1" font-family="sans-serif" font-size="11" image-rendering="optimizeQuality" text-rendering="geometricPrecision"><text x="29" y="42" stroke="none" clip-path="url(#clipPath9)" transform="translate(650,54)" xml:space="preserve">1.1. Consultar Experimento</text></g><g fill="#7ACFF5" fill-opacity="1" stroke="#7ACFF5" stroke-opacity="1" font-family="sans-serif" font-size="11" image-rendering="optimizeQuality" text-rendering="geometricPrecision" transform="translate(762,188)"><ellipse cx="64.5" cy="38" stroke="none" clip-path="url(#clipPath10)" rx="64.5" ry="38"/></g><g fill="#000" fill-opacity="1" stroke="#000" stroke-linecap="butt" stroke-linejoin="round" stroke-miterlimit="0" stroke-opacity="1" font-family="sans-serif" font-size="11" image-rendering="optimizeQuality" text-rendering="geometricPrecision" transform="translate(762,188)"><ellipse cx="64.5" cy="38" fill="none" clip-path="url(#clipPath10)" rx="64.5" ry="38"/></g><g fill="#000" fill-opacity="1" stroke="#000" stroke-opacity="1" font-family="sans-serif" font-size="11" image-rendering="optimizeQuality" text-rendering="geometricPrecision"><text x="21" y="35" stroke="none" clip-path="url(#clipPath11)" transform="translate(762,188)" xml:space="preserve">1.1.2. Reutilizar</text><text x="30" y="49" stroke="none" clip-path="url(#clipPath11)" transform="translate(762,188)" xml:space="preserve">Experimento</text></g><g fill="#7ACFF5" fill-opacity="1" stroke="#7ACFF5" stroke-opacity="1" font-family="sans-serif" font-size="11" image-rendering="optimizeQuality" text-rendering="geometricPrecision" transform="translate(313,524)"><ellipse cx="61.5" cy="37.5" stroke="none" clip-path="url(#clipPath12)" rx="61.5" ry="37.5"/></g><g fill="#000" fill-opacity="1" stroke="#000" stroke-linecap="butt" stroke-linejoin="round" stroke-miterlimit="0" stroke-opacity="1" font-family="sans-serif" font-size="11" image-rendering="optimizeQuality" text-rendering="geometricPrecision" transform="translate(313,524)"><ellipse cx="61.5" cy="37.5" fill="none" clip-path="url(#clipPath12)" rx="61.5" ry="37.5"/></g><g fill="#000" fill-opacity="1" stroke="#000" stroke-opacity="1" font-family="sans-serif" font-size="11" image-rendering="optimizeQuality" text-rendering="geometricPrecision"><text x="22" y="34" stroke="none" clip-path="url(#clipPath13)" transform="translate(313,524)" xml:space="preserve">5. Administrar</text><text x="37" y="48" stroke="none" clip-path="url(#clipPath13)" transform="translate(313,524)" xml:space="preserve">Usuarios</text></g><g fill="#7ACFF5" fill-opacity="1" stroke="#7ACFF5" stroke-opacity="1" font-family="sans-serif" font-size="11" image-rendering="optimizeQuality" text-rendering="geometricPrecision" transform="translate(313,630)"><ellipse cx="61.5" cy="38" stroke="none" clip-path="url(#clipPath4)" rx="61.5" ry="38"/></g><g fill="#000" fill-opacity="1" stroke="#000" stroke-linecap="butt" stroke-linejoin="round" stroke-miterlimit="0" stroke-opacity="1" font-family="sans-serif" font-size="11" image-rendering="optimizeQuality" text-rendering="geometricPrecision" transform="translate(313,630)"><ellipse cx="61.5" cy="38" fill="none" clip-path="url(#clipPath4)" rx="61.5" ry="38"/></g><g fill="#000" fill-opacity="1" stroke="#000" stroke-opacity="1" font-family="sans-serif" font-size="11" image-rendering="optimizeQuality" text-rendering="geometricPrecision"><text x="28" y="35" stroke="none" clip-path="url(#clipPath5)" transform="translate(313,630)" xml:space="preserve">6. Consultar</text><text x="15" y="49" stroke="none" clip-path="url(#clipPath5)" transform="translate(313,630)" xml:space="preserve">Analíticas de Uso</text></g><g fill="#7ACFF5" fill-opacity="1" stroke="#7ACFF5" stroke-opacity="1" font-family="sans-serif" font-size="11" image-rendering="optimizeQuality" text-rendering="geometricPrecision" transform="translate(313,737)"><ellipse cx="61.5" cy="38" stroke="none" clip-path="url(#clipPath4)" rx="61.5" ry="38"/></g><g fill="#000" fill-opacity="1" stroke="#000" stroke-linecap="butt" stroke-linejoin="round" stroke-miterlimit="0" stroke-opacity="1" font-family="sans-serif" font-size="11" image-rendering="optimizeQuality" text-rendering="geometricPrecision" transform="translate(313,737)"><ellipse cx="61.5" cy="38" fill="none" clip-path="url(#clipPath4)" rx="61.5" ry="38"/></g><g fill="#000" fill-opacity="1" stroke="#000" stroke-opacity="1" font-family="sans-serif" font-size="11" image-rendering="optimizeQuality" text-rendering="geometricPrecision"><text x="14" y="28" stroke="none" clip-path="url(#clipPath5)" transform="translate(313,737)" xml:space="preserve">7. Monitorización</text><text x="22" y="42" stroke="none" clip-path="url(#clipPath5)" transform="translate(313,737)" xml:space="preserve">del Sistema en</text><text x="28" y="56" stroke="none" clip-path="url(#clipPath5)" transform="translate(313,737)" xml:space="preserve">Tiempo Real</text></g><g fill="#7ACFF5" fill-opacity="1" stroke="#7ACFF5" stroke-opacity="1" font-family="sans-serif" font-size="11" image-rendering="optimizeQuality" text-rendering="geometricPrecision" transform="translate(576,630)"><ellipse cx="61.5" cy="38" stroke="none" clip-path="url(#clipPath4)" rx="61.5" ry="38"/></g><g fill="#000" fill-opacity="1" stroke="#000" stroke-linecap="butt" stroke-linejoin="round" stroke-miterlimit="0" stroke-opacity="1" font-family="sans-serif" font-size="11" image-rendering="optimizeQuality" text-rendering="geometricPrecision" transform="translate(576,630)"><ellipse cx="61.5" cy="38" fill="none" clip-path="url(#clipPath4)" rx="61.5" ry="38"/></g><g fill="#000" fill-opacity="1" stroke="#000" stroke-opacity="1" font-family="sans-serif" font-size="11" image-rendering="optimizeQuality" text-rendering="geometricPrecision"><text x="23" y="28" stroke="none" clip-path="url(#clipPath5)" transform="translate(576,630)" xml:space="preserve">1.2. Consultar</text><text x="7" y="42" stroke="none" clip-path="url(#clipPath5)" transform="translate(576,630)" xml:space="preserve">Registros en la Base</text><text x="37" y="56" stroke="none" clip-path="url(#clipPath5)" transform="translate(576,630)" xml:space="preserve">de Datos</text></g><g fill="#7ACFF5" fill-opacity="1" stroke="#7ACFF5" stroke-opacity="1" font-family="sans-serif" font-size="11" image-rendering="optimizeQuality" text-rendering="geometricPrecision" transform="translate(576,737)"><ellipse cx="61.5" cy="38" stroke="none" clip-path="url(#clipPath4)" rx="61.5" ry="38"/></g><g fill="#000" fill-opacity="1" stroke="#000" stroke-linecap="butt" stroke-linejoin="round" stroke-miterlimit="0" stroke-opacity="1" font-family="sans-serif" font-size="11" image-rendering="optimizeQuality" text-rendering="geometricPrecision" transform="translate(576,737)"><ellipse cx="61.5" cy="38" fill="none" clip-path="url(#clipPath4)" rx="61.5" ry="38"/></g><g fill="#000" fill-opacity="1" stroke="#000" stroke-opacity="1" font-family="sans-serif" font-size="11" image-rendering="optimizeQuality" text-rendering="geometricPrecision"><text x="26" y="28" stroke="none" clip-path="url(#clipPath5)" transform="translate(576,737)" xml:space="preserve">&lt;&lt;thread&gt;&gt;</text><text x="19" y="42" stroke="none" clip-path="url(#clipPath5)" transform="translate(576,737)" xml:space="preserve">7.1 Monitor del</text><text x="40" y="56" stroke="none" clip-path="url(#clipPath5)" transform="translate(576,737)" xml:space="preserve">Sistema</text></g><g fill="#7ACFF5" fill-opacity="1" stroke="#7ACFF5" stroke-opacity="1" font-family="sans-serif" font-size="11" image-rendering="optimizeQuality" text-rendering="geometricPrecision" transform="translate(313,283)"><ellipse cx="61.5" cy="38" stroke="none" clip-path="url(#clipPath4)" rx="61.5" ry="38"/></g><g fill="#000" fill-opacity="1" stroke="#000" stroke-linecap="butt" stroke-linejoin="round" stroke-miterlimit="0" stroke-opacity="1" font-family="sans-serif" font-size="11" image-rendering="optimizeQuality" text-rendering="geometricPrecision" transform="translate(313,283)"><ellipse cx="61.5" cy="38" fill="none" clip-path="url(#clipPath4)" rx="61.5" ry="38"/></g><g fill="#000" fill-opacity="1" stroke="#000" stroke-opacity="1" font-family="sans-serif" font-size="11" image-rendering="optimizeQuality" text-rendering="geometricPrecision"><text x="8" y="42" stroke="none" clip-path="url(#clipPath5)" transform="translate(313,283)" xml:space="preserve">3. Modificar usuario</text></g><g fill="#000" fill-opacity="1" stroke="#000" stroke-opacity="1" font-family="sans-serif" font-size="11" image-rendering="optimizeQuality" text-rendering="geometricPrecision"><text x="10" y="11" stroke="none" clip-path="url(#clipPath14)" transform="translate(11,707)" xml:space="preserve">Administrador</text></g><g fill="#000" fill-opacity="1" stroke="#000" stroke-opacity="1" font-family="sans-serif" font-size="11" image-rendering="optimizeQuality" text-rendering="geometricPrecision"><text x="17" y="14" stroke="none" clip-path="url(#clipPath15)" transform="translate(22,312)" xml:space="preserve">Usuario</text></g><g fill="#000" fill-opacity="1" stroke="#000" stroke-linecap="butt" stroke-linejoin="round" stroke-opacity="1" font-family="sans-serif" font-size="11" image-rendering="optimizeQuality" text-rendering="geometricPrecision" transform="translate(9,284)"><line x1="50" x2="50" y1="50" y2="266" fill="none" clip-path="url(#clipPath17)"/><polygon fill="#fff" stroke="none" points="50 50 44 62 56 62" clip-path="url(#clipPath17)"/><polygon fill="none" points="50 50 44 62 56 62" clip-path="url(#clipPath17)"/></g><g fill="#000" fill-opacity="1" stroke="#000" stroke-linecap="butt" stroke-linejoin="round" stroke-opacity="1" font-family="sans-serif" font-size="11" image-rendering="optimizeQuality" text-rendering="geometricPrecision" transform="translate(50,272)"><line x1="50" x2="192" y1="50" y2="146" fill="none" clip-path="url(#clipPath19)"/><line x1="192" x2="263" y1="146" y2="146" fill="none" clip-path="url(#clipPath19)"/></g><g fill="#000" fill-opacity="1" stroke="#000" stroke-linecap="butt" stroke-linejoin="round" stroke-opacity="1" font-family="sans-serif" font-size="11" image-rendering="optimizeQuality" text-rendering="geometricPrecision" transform="translate(67,158)"><line x1="50" x2="246" y1="50" y2="50" fill="none" clip-path="url(#clipPath21)"/></g><g fill="#000" fill-opacity="1" stroke="#000" stroke-linecap="butt" stroke-linejoin="round" stroke-opacity="1" font-family="sans-serif" font-size="11" image-rendering="optimizeQuality" text-rendering="geometricPrecision" transform="translate(67,48)"><line x1="50" x2="175" y1="108" y2="50" fill="none" clip-path="url(#clipPath23)"/><line x1="175" x2="224" y1="50" y2="50" fill="none" clip-path="url(#clipPath23)"/></g><g fill="#000" fill-opacity="1" stroke="#000" stroke-dasharray="4" stroke-linecap="butt" stroke-linejoin="round" stroke-opacity="1" font-family="sans-serif" font-size="11" image-rendering="optimizeQuality" text-rendering="geometricPrecision" transform="translate(461,42)"><line x1="189" x2="50" y1="50" y2="50" fill="none" clip-path="url(#clipPath25)"/><line x1="50" x2="62" y1="50" y2="56" fill="none" stroke-dasharray="none" clip-path="url(#clipPath25)"/><line x1="50" x2="62" y1="50" y2="44" fill="none" stroke-dasharray="none" clip-path="url(#clipPath25)"/></g><g fill="#000" fill-opacity="1" stroke="#000" stroke-dasharray="4" stroke-linecap="butt" stroke-linejoin="round" stroke-opacity="1" font-family="sans-serif" font-size="11" image-rendering="optimizeQuality" text-rendering="geometricPrecision" transform="translate(658,77)"><line x1="50" x2="50" y1="113" y2="50" fill="none" clip-path="url(#clipPath27)"/><line x1="50" x2="44" y1="50" y2="62" fill="none" stroke-dasharray="none" clip-path="url(#clipPath27)"/><line x1="50" x2="56" y1="50" y2="62" fill="none" stroke-dasharray="none" clip-path="url(#clipPath27)"/></g><g fill="#000" fill-opacity="1" stroke="#000" stroke-dasharray="4" stroke-linecap="butt" stroke-linejoin="round" stroke-opacity="1" font-family="sans-serif" font-size="11" image-rendering="optimizeQuality" text-rendering="geometricPrecision" transform="translate(776,69)"><line x1="50" x2="50" y1="119" y2="50" fill="none" clip-path="url(#clipPath29)"/><line x1="50" x2="44" y1="50" y2="62" fill="none" stroke-dasharray="none" clip-path="url(#clipPath29)"/><line x1="50" x2="56" y1="50" y2="62" fill="none" stroke-dasharray="none" clip-path="url(#clipPath29)"/></g><g fill="#000" fill-opacity="1" stroke="#000" stroke-dasharray="4" stroke-linecap="butt" stroke-linejoin="round" stroke-opacity="1" font-family="sans-serif" font-size="11" image-rendering="optimizeQuality" text-rendering="geometricPrecision" transform="translate(304,403)"><line x1="50" x2="50" y1="50" y2="123" fill="none" clip-path="url(#clipPath31)"/><line x1="50" x2="56" y1="123" y2="111" fill="none" stroke-dasharray="none" clip-path="url(#clipPath31)"/><line x1="50" x2="44" y1="123" y2="111" fill="none" stroke-dasharray="none" clip-path="url(#clipPath31)"/></g><g fill="#000" fill-opacity="1" stroke="#000" stroke-linecap="butt" stroke-linejoin="round" stroke-opacity="1" font-family="sans-serif" font-size="11" image-rendering="optimizeQuality" text-rendering="geometricPrecision" transform="translate(67,531)"><line x1="50" x2="254" y1="50" y2="50" fill="none" clip-path="url(#clipPath33)"/></g><g fill="#000" fill-opacity="1" stroke="#000" stroke-linecap="butt" stroke-linejoin="round" stroke-opacity="1" font-family="sans-serif" font-size="11" image-rendering="optimizeQuality" text-rendering="geometricPrecision" transform="translate(67,615)"><line x1="246" x2="50" y1="50" y2="50" fill="none" clip-path="url(#clipPath34)"/></g><g fill="#000" fill-opacity="1" stroke="#000" stroke-linecap="butt" stroke-linejoin="round" stroke-opacity="1" font-family="sans-serif" font-size="11" image-rendering="optimizeQuality" text-rendering="geometricPrecision" transform="translate(61,670)"><line x1="252" x2="181" y1="106" y2="106" fill="none" clip-path="url(#clipPath36)"/><line x1="181" x2="50" y1="106" y2="50" fill="none" clip-path="url(#clipPath36)"/></g><g fill="#000" fill-opacity="1" stroke="#000" stroke-dasharray="4" stroke-linecap="butt" stroke-linejoin="round" stroke-opacity="1" font-family="sans-serif" font-size="11" image-rendering="optimizeQuality" text-rendering="geometricPrecision" transform="translate(451,58)"><line x1="50" x2="186" y1="50" y2="360" fill="none" clip-path="url(#clipPath38)"/><line x1="186" x2="186" y1="360" y2="572" fill="none" clip-path="url(#clipPath38)"/><line x1="186" x2="192" y1="572" y2="560" fill="none" stroke-dasharray="none" clip-path="url(#clipPath38)"/><line x1="186" x2="180" y1="572" y2="560" fill="none" stroke-dasharray="none" clip-path="url(#clipPath38)"/></g><g fill="#000" fill-opacity="1" stroke="#000" stroke-dasharray="4" stroke-linecap="butt" stroke-linejoin="round" stroke-opacity="1" font-family="sans-serif" font-size="11" image-rendering="optimizeQuality" text-rendering="geometricPrecision" transform="translate(386,615)"><line x1="50" x2="190" y1="50" y2="50" fill="none" clip-path="url(#clipPath40)"/><line x1="190" x2="178" y1="50" y2="44" fill="none" stroke-dasharray="none" clip-path="url(#clipPath40)"/><line x1="190" x2="178" y1="50" y2="56" fill="none" stroke-dasharray="none" clip-path="url(#clipPath40)"/></g><g fill="#000" fill-opacity="1" stroke="#000" stroke-dasharray="4" stroke-linecap="butt" stroke-linejoin="round" stroke-opacity="1" font-family="sans-serif" font-size="11" image-rendering="optimizeQuality" text-rendering="geometricPrecision" transform="translate(386,725)"><line x1="50" x2="190" y1="50" y2="50" fill="none" clip-path="url(#clipPath41)"/><line x1="190" x2="178" y1="50" y2="44" fill="none" stroke-dasharray="none" clip-path="url(#clipPath41)"/><line x1="190" x2="178" y1="50" y2="56" fill="none" stroke-dasharray="none" clip-path="url(#clipPath41)"/></g><g fill="#000" fill-opacity="1" stroke="#000" stroke-linecap="butt" stroke-linejoin="round" stroke-opacity="1" font-family="sans-serif" font-size="11" image-rendering="optimizeQuality" text-rendering="geometricPrecision" transform="translate(67,209)"><line x1="50" x2="175" y1="50" y2="50" fill="none" clip-path="url(#clipPath43)"/><line x1="175" x2="270" y1="50" y2="82" fill="none" clip-path="url(#clipPath43)"/></g><g fill="#000" fill-opacity="1" stroke="#000" stroke-opacity="1" font-family="sans-serif" font-size="11" image-rendering="optimizeQuality" text-rendering="geometricPrecision"><text x="10" y="11" stroke="none" clip-path="url(#clipPath45)" transform="translate(458,754)" xml:space="preserve">&lt;&lt;Include&gt;&gt;</text></g><g fill="#000" fill-opacity="1" stroke="#000" stroke-opacity="1" font-family="sans-serif" font-size="11" image-rendering="optimizeQuality" text-rendering="geometricPrecision"><text x="10" y="11" stroke="none" clip-path="url(#clipPath45)" transform="translate(448,644)" xml:space="preserve">&lt;&lt;Include&gt;&gt;</text></g><g fill="#000" fill-opacity="1" stroke="#000" stroke-opacity="1" font-family="sans-serif" font-size="11" image-rendering="optimizeQuality" text-rendering="geometricPrecision"><text x="10" y="11" stroke="none" clip-path="url(#clipPath45)" transform="translate(572,499)" xml:space="preserve">&lt;&lt;Include&gt;&gt;</text></g><g fill="#000" fill-opacity="1" stroke="#000" stroke-opacity="1" font-family="sans-serif" font-size="11" image-rendering="optimizeQuality" text-rendering="geometricPrecision"><text x="10" y="11" stroke="none" clip-path="url(#clipPath46)" transform="translate(355,479)" xml:space="preserve">&lt;&lt;Extend&gt;&gt;</text></g><g fill="#000" fill-opacity="1" stroke="#000" stroke-opacity="1" font-family="sans-serif" font-size="11" image-rendering="optimizeQuality" text-rendering="geometricPrecision"><text x="10" y="11" stroke="none" clip-path="url(#clipPath46)" transform="translate(827,147)" xml:space="preserve">&lt;&lt;Extend&gt;&gt;</text></g><g fill="#000" fill-opacity="1" stroke="#000" stroke-opacity="1" font-family="sans-serif" font-size="11" image-rendering="optimizeQuality" text-rendering="geometricPrecision"><text x="10" y="11" stroke="none" clip-path="url(#clipPath46)" transform="translate(707,157)" xml:space="preserve">&lt;&lt;Extend&gt;&gt;</text></g><g fill="#000" fill-opacity="1" stroke="#000" stroke-opacity="1" font-family="sans-serif" font-size="11" image-rendering="optimizeQuality" text-rendering="geometricPrecision"><text x="10" y="11" stroke="none" clip-path="url(#clipPath46)" transform="translate(533,77)" xml:space="preserve">&lt;&lt;Extend&gt;&gt;</text></g></g></svg>